<svg width="32" height="32" viewBox="0 0 32 32" fill="none" xmlns="http://www.w3.org/2000/svg">
<g opacity="0.75">
<path d="M0 16C0 24.8366 7.16344 32 16 32C24.8366 32 32 24.8366 32 16C32 7.16344 24.8366 0 16 0C7.16344 0 0 7.16344 0 16Z" fill="#1877F2"/>
<rect x="6" y="5" width="20" height="20" rx="10" fill="white"/>
<path d="M26 15C26 9.5 21.5 5 16 5C10.5 5 6 9.5 6 15C6 20 9.625 24.125 14.375 24.875V17.875H11.875V15H14.375V12.75C14.375 10.25 15.875 8.875 18.125 8.875C19.25 8.875 20.375 9.125 20.375 9.125V11.625H19.125C17.875 11.625 17.5 12.375 17.5 13.125V15H20.25L19.75 17.875H17.375V25C22.375 24.25 26 20 26 15Z" fill="#1877F2"/>
<rect x="6" y="5" width="20" height="20" rx="10" stroke="#1877F2"/>
</g>
</svg>
