<svg width="32" height="32" viewBox="0 0 32 32" fill="none" xmlns="http://www.w3.org/2000/svg">
<g opacity="0.75">
<path d="M0 16C0 7.16344 7.16344 0 16 0C24.8366 0 32 7.16344 32 16C32 24.8366 24.8366 32 16 32C7.16344 32 0 24.8366 0 16Z" fill="black"/>
<path d="M14.4984 14.3001V13.6772C14.285 13.6487 14.068 13.6309 13.844 13.6309C11.173 13.6274 9 15.8022 9 18.4789C9 20.1199 9.818 21.5722 11.0699 22.4514C10.2626 21.5864 9.76821 20.4224 9.76821 19.1481C9.76821 16.5105 11.8808 14.3606 14.4984 14.3001Z" fill="#25F4EE"/>
<path d="M14.6157 21.3624C15.8072 21.3624 16.7816 20.412 16.8243 19.2303L16.8279 8.66919H18.7555C18.7164 8.45206 18.695 8.22781 18.695 8H16.0632L16.0597 18.5611C16.017 19.7428 15.0425 20.6932 13.8511 20.6932C13.4812 20.6932 13.1327 20.6007 12.8232 20.4369C13.2216 20.9958 13.876 21.3624 14.6157 21.3624Z" fill="#25F4EE"/>
<path d="M22.3585 12.254V11.6667C21.6223 11.6667 20.9394 11.4496 20.3633 11.0723C20.8754 11.6596 21.5689 12.0868 22.3585 12.254Z" fill="#25F4EE"/>
<path d="M20.3632 11.0716C19.8013 10.4273 19.4634 9.5873 19.4634 8.66895H18.7593C18.9406 9.67273 19.5382 10.5341 20.3632 11.0716Z" fill="#FE2C55"/>
<path d="M13.8474 16.2617C12.6275 16.2617 11.6353 17.2549 11.6353 18.4758C11.6353 19.3265 12.1189 20.0669 12.8231 20.4371C12.5599 20.074 12.4035 19.6291 12.4035 19.1449C12.4035 17.924 13.3957 16.9309 14.6156 16.9309C14.8432 16.9309 15.0637 16.9701 15.27 17.0342V14.3432C15.0566 14.3147 14.8397 14.2969 14.6156 14.2969C14.5765 14.2969 14.5409 14.3004 14.5018 14.3004V16.365C14.292 16.3009 14.075 16.2617 13.8474 16.2617Z" fill="#FE2C55"/>
<path d="M22.3582 12.2539V14.3006C20.9925 14.3006 19.7264 13.8628 18.695 13.1224V18.4795C18.695 21.1527 16.522 23.3311 13.8475 23.3311C12.8161 23.3311 11.8558 23.0036 11.0698 22.4519C11.9554 23.4023 13.218 24.0003 14.6157 24.0003C17.2866 24.0003 19.4632 21.8254 19.4632 19.1487V13.7916C20.4946 14.532 21.7607 14.9698 23.1264 14.9698V12.3358C22.8596 12.3358 22.6036 12.3073 22.3582 12.2539Z" fill="#FE2C55"/>
<path d="M18.6949 18.4789V13.1219C19.7263 13.8623 20.9924 14.3001 22.3581 14.3001V12.2534C21.5686 12.0861 20.8751 11.6589 20.3629 11.0716C19.5378 10.5341 18.9439 9.67273 18.7554 8.66895H16.8277L16.8242 19.23C16.7815 20.4117 15.807 21.3621 14.6156 21.3621C13.8758 21.3621 13.225 20.9955 12.8196 20.4402C12.1154 20.0665 11.6317 19.3297 11.6317 18.4789C11.6317 17.258 12.6239 16.2649 13.8438 16.2649C14.0714 16.2649 14.2919 16.3041 14.4982 16.3681V14.3036C11.8806 14.3606 9.76807 16.5105 9.76807 19.1481C9.76807 20.4224 10.2624 21.5829 11.0697 22.4514C11.8557 23.0031 12.816 23.3306 13.8474 23.3306C16.5183 23.3306 18.6949 21.1521 18.6949 18.4789Z" fill="white"/>
</g>
</svg>
