<svg width="24" height="25" viewBox="0 0 24 25" fill="none" xmlns="http://www.w3.org/2000/svg">
<path fill-rule="evenodd" clip-rule="evenodd" d="M3.37545 2.56836C2.79811 2.56836 2.33008 3.03639 2.33008 3.61373V16.6809C2.33008 17.2582 2.79811 17.7263 3.37545 17.7263H4.42082V22.4304L9.125 17.7263H20.6241C21.2014 17.7263 21.6695 17.2582 21.6695 16.6809V3.61373C21.6695 3.03639 21.2014 2.56836 20.6241 2.56836H3.37545ZM8.0809 10.1466C8.0809 10.8683 7.49586 11.4533 6.77419 11.4533C6.05251 11.4533 5.46747 10.8683 5.46747 10.1466C5.46747 9.42495 6.05251 8.83991 6.77419 8.83991C7.49586 8.83991 8.0809 9.42495 8.0809 10.1466ZM13.3078 10.1466C13.3078 10.8683 12.7227 11.4533 12.001 11.4533C11.2794 11.4533 10.6943 10.8683 10.6943 10.1466C10.6943 9.42495 11.2794 8.83991 12.001 8.83991C12.7227 8.83991 13.3078 9.42495 13.3078 10.1466ZM17.2279 11.4533C17.9496 11.4533 18.5346 10.8683 18.5346 10.1466C18.5346 9.42495 17.9496 8.83991 17.2279 8.83991C16.5062 8.83991 15.9212 9.42495 15.9212 10.1466C15.9212 10.8683 16.5062 11.4533 17.2279 11.4533Z" fill="#589DC0"/>
</svg>
