<svg width="183" height="183" viewBox="0 0 183 183" fill="none" xmlns="http://www.w3.org/2000/svg">
<path d="M183 91.5C183 142.034 142.034 183 91.5 183C40.9659 183 0 142.034 0 91.5C0 40.9659 40.9659 0 91.5 0C142.034 0 183 40.9659 183 91.5ZM15.555 91.5C15.555 133.443 49.5567 167.445 91.5 167.445C133.443 167.445 167.445 133.443 167.445 91.5C167.445 49.5567 133.443 15.555 91.5 15.555C49.5567 15.555 15.555 49.5567 15.555 91.5Z" fill="url(#paint0_linear_1264_92596)"/>
<path d="M91.5 0C77.3712 -1.68485e-07 63.4343 3.27195 50.7815 9.55943L57.7037 23.4893C68.2054 18.2707 79.7731 15.555 91.5 15.555V0Z" fill="url(#paint1_linear_1264_92596)"/>
<path d="M50.68 9.60999C39.4582 15.2037 29.5059 23.0442 21.4408 32.6447C13.3756 42.2452 7.36962 53.4008 3.79568 65.4193C0.221739 77.4378 -0.843925 90.0626 0.664828 102.51C2.17358 114.958 6.22455 126.962 12.5663 137.779L25.985 129.911C20.7214 120.934 17.3591 110.97 16.1068 100.638C14.8545 90.3069 15.739 79.8284 18.7054 69.853C21.6718 59.8777 26.6567 50.6185 33.3508 42.6501C40.0449 34.6816 48.3053 28.1741 57.6194 23.5313L50.68 9.60999Z" fill="url(#paint2_linear_1264_92596)"/>
<defs>
<linearGradient id="paint0_linear_1264_92596" x1="91.5" y1="0" x2="91.5" y2="183" gradientUnits="userSpaceOnUse">
<stop stop-color="#8EE0F5"/>
<stop offset="1" stop-color="#55BEE8"/>
</linearGradient>
<linearGradient id="paint1_linear_1264_92596" x1="91.5" y1="0" x2="91.5" y2="183" gradientUnits="userSpaceOnUse">
<stop stop-color="#A795C4"/>
<stop offset="1" stop-color="#756299"/>
</linearGradient>
<linearGradient id="paint2_linear_1264_92596" x1="91.5" y1="0" x2="91.5" y2="183" gradientUnits="userSpaceOnUse">
<stop stop-color="#ABE898"/>
<stop offset="1" stop-color="#72CD5F"/>
</linearGradient>
</defs>
</svg>
