<svg width="26" height="26" viewBox="0 0 26 26" fill="none" xmlns="http://www.w3.org/2000/svg">
<path d="M9.62624 14.9596C9.23571 15.3501 9.23571 15.9832 9.62624 16.3738C10.0168 16.7643 10.6499 16.7643 11.0405 16.3738L9.62624 14.9596ZM13.7071 13.7071C14.0976 13.3166 14.0976 12.6834 13.7071 12.2929C13.3166 11.9024 12.6834 11.9024 12.2929 12.2929L13.7071 13.7071ZM12.2929 12.2929C11.9024 12.6834 11.9024 13.3166 12.2929 13.7071C12.6834 14.0976 13.3166 14.0976 13.7071 13.7071L12.2929 12.2929ZM16.3738 11.0404C16.7643 10.6499 16.7643 10.0167 16.3738 9.62623C15.9832 9.2357 15.3501 9.2357 14.9596 9.62623L16.3738 11.0404ZM12.2929 13.7071C12.6834 14.0976 13.3166 14.0976 13.7071 13.7071C14.0976 13.3166 14.0976 12.6834 13.7071 12.2929L12.2929 13.7071ZM11.0405 9.62623C10.6499 9.2357 10.0168 9.2357 9.62624 9.62623C9.23571 10.0167 9.23571 10.6499 9.62624 11.0404L11.0405 9.62623ZM13.7071 12.2929C13.3166 11.9024 12.6834 11.9024 12.2929 12.2929C11.9024 12.6834 11.9024 13.3166 12.2929 13.7071L13.7071 12.2929ZM14.9596 16.3738C15.3501 16.7643 15.9832 16.7643 16.3738 16.3738C16.7643 15.9832 16.7643 15.3501 16.3738 14.9596L14.9596 16.3738ZM1 13H0H1ZM11.0405 16.3738L13.7071 13.7071L12.2929 12.2929L9.62624 14.9596L11.0405 16.3738ZM13.7071 13.7071L16.3738 11.0404L14.9596 9.62623L12.2929 12.2929L13.7071 13.7071ZM13.7071 12.2929L11.0405 9.62623L9.62624 11.0404L12.2929 13.7071L13.7071 12.2929ZM12.2929 13.7071L14.9596 16.3738L16.3738 14.9596L13.7071 12.2929L12.2929 13.7071ZM24 13C24 16.9299 21.9034 20.5613 18.5 22.5263L19.5 24.2583C23.5222 21.9361 26 17.6445 26 13H24ZM18.5 22.5263C15.0966 24.4912 10.9034 24.4912 7.5 22.5263L6.5 24.2583C10.5222 26.5806 15.4778 26.5806 19.5 24.2583L18.5 22.5263ZM7.5 22.5263C4.09659 20.5613 2 16.9299 2 13H0C-1.19209e-07 17.6445 2.47779 21.9361 6.5 24.2583L7.5 22.5263ZM2 13C2 6.92487 6.92487 2 13 2V0C5.8203 0 1.78814e-07 5.8203 0 13H2ZM13 2C19.0751 2 24 6.92487 24 13H26C26 5.8203 20.1797 0 13 0V2Z" fill="#4A5568"/>
</svg>
