<svg width="20" height="20" viewBox="0 0 20 20" fill="none" xmlns="http://www.w3.org/2000/svg">
<path fill-rule="evenodd" clipRule="evenodd" d="M4 14.1016H2C0.8972 14.1016 0 13.313 0 12.3438V10C0 9.23617 0.557378 8.58488 1.33333 8.34301V7.65625C1.33333 3.43457 5.2212 0 10 0C14.7788 0 18.6667 3.43457 18.6667 7.65625V8.34297C19.4426 8.58484 20 9.23613 20 10V12.3438C20 13.1076 19.4426 13.7589 18.6667 14.0008V15.8984C18.6667 17.5139 17.1713 18.8281 15.3333 18.8281H11.8853C11.6101 19.5101 10.8691 20 10 20C8.8972 20 8 19.2114 8 18.2422C8 17.2729 8.8972 16.4844 10 16.4844C10.8691 16.4844 11.6101 16.9743 11.8853 17.6562H15.3333C16.4361 17.6562 17.3333 16.8677 17.3333 15.8984V14.1016H16V15.2734H14.6667V7.07031H16V8.24219H17.3333V7.65625C17.3333 4.08074 14.0436 1.17188 10 1.17188C5.9564 1.17188 2.66667 4.08074 2.66667 7.65625V8.24219H4V7.07031H5.33333V15.2734H4V14.1016ZM9.3334 18.2422C9.3334 18.5653 9.63246 18.8281 10.0001 18.8281C10.3677 18.8281 10.6667 18.5653 10.6667 18.2422C10.6667 17.9191 10.3677 17.6562 10.0001 17.6562C9.63246 17.6562 9.3334 17.9191 9.3334 18.2422ZM18.6667 9.99951V12.3433C18.6667 12.6663 18.3677 12.9292 18.0001 12.9292H16.0001V9.41357H18.0001C18.3677 9.41357 18.6667 9.67643 18.6667 9.99951ZM1.99997 9.41357C1.63237 9.41357 1.33331 9.67643 1.33331 9.99951V12.3433C1.33331 12.6663 1.63237 12.9292 1.99997 12.9292H3.99997V9.41357H1.99997Z" fill="#1F6EAC"/>
</svg>
