<svg width="24" height="24" viewBox="0 0 24 24" fill="none" xmlns="http://www.w3.org/2000/svg">
<path d="M20.9236 15.3281L21.602 7.14099C21.6354 6.70798 21.2466 6.41586 20.9431 6.64597L15.9308 10.4471C15.7443 10.5885 15.5003 10.5373 15.3637 10.328L12.3381 5.69291C12.1651 5.42788 11.8342 5.42788 11.6612 5.69291L8.63554 10.328C8.49893 10.5373 8.25493 10.5886 8.06849 10.4472L3.0554 6.64588C2.75196 6.4158 2.36316 6.70792 2.39654 7.14092L3.07491 15.3281H20.9236Z" fill="#EAA100"/>
<path d="M20.9298 16.8416H3.0688V17.9803C3.0688 18.2706 3.26227 18.5058 3.50092 18.5058H20.4976C20.7363 18.5058 20.9298 18.2706 20.9298 17.9803V16.8416Z" fill="#EAA100"/>
</svg>
