<svg width="16" height="16" viewBox="0 0 16 16" fill="none" xmlns="http://www.w3.org/2000/svg">
<path fill-rule="evenodd" clip-rule="evenodd" d="M12.912 0.638672C13.3771 0.638672 13.7541 1.0157 13.7541 1.48078V2.74394H15.0172C15.4823 2.74394 15.8593 3.12096 15.8593 3.58604C15.8593 4.05112 15.4823 4.42815 15.0172 4.42815H13.7541V5.6913C13.7541 6.15639 13.3771 6.53341 12.912 6.53341C12.4469 6.53341 12.0699 6.15639 12.0699 5.6913V4.42815H10.8067C10.3416 4.42815 9.96461 4.05112 9.96461 3.58604C9.96461 3.12096 10.3416 2.74394 10.8067 2.74394H12.0699V1.48078C12.0699 1.0157 12.4469 0.638672 12.912 0.638672ZM5.01851 1.34043L8.35057 1.34043C8.81565 1.34043 9.19267 1.71745 9.19267 2.18253C9.19267 2.64761 8.81565 3.02464 8.35057 3.02464H5.05232C4.4489 3.02464 4.04698 3.02529 3.73817 3.05052C3.43919 3.07495 3.30238 3.11815 3.2157 3.16231C2.97803 3.28342 2.78479 3.47665 2.66368 3.71433C2.61952 3.801 2.57632 3.93781 2.55189 4.23679C2.52666 4.54561 2.52601 4.94753 2.52601 5.55095V11.4457C2.52601 12.0491 2.52666 12.451 2.55189 12.7598C2.57632 13.0588 2.61952 13.1956 2.66368 13.2823C2.75774 13.4669 2.8953 13.6247 3.0634 13.7427C3.10328 13.6919 3.13982 13.652 3.16599 13.6237C3.27676 13.5038 3.4258 13.3684 3.57343 13.2342L9.54804 7.80274C9.65938 7.70148 9.77474 7.59658 9.88134 7.51349C10.0016 7.41978 10.1572 7.31568 10.3589 7.25017C10.6373 7.15974 10.9357 7.15033 11.2192 7.22303C11.4246 7.27569 11.5865 7.36978 11.7124 7.45572C11.824 7.53192 11.9457 7.62934 12.0632 7.72337L14.0437 9.30774C14.06 9.32081 14.0763 9.33383 14.0926 9.34679C14.3091 9.51959 14.5159 9.68463 14.6784 9.89164C14.8802 10.1487 15.0235 10.4468 15.0982 10.7649C15.1583 11.0211 15.158 11.2857 15.1576 11.5628C15.1576 11.5835 15.1576 11.6044 15.1576 11.6253V11.6542C15.1576 11.7685 15.1576 11.8785 15.1573 11.9841C15.1575 11.9918 15.1576 11.9994 15.1576 12.0071C15.1576 12.043 15.1576 12.0784 15.1576 12.1134C15.158 12.661 15.1584 13.094 15.0572 13.4717C14.9379 13.9167 14.7188 14.319 14.4248 14.6537C14.3153 14.7784 14.1954 14.8938 14.0663 14.9984C13.7502 15.2548 13.3794 15.4469 12.9731 15.5558C12.5954 15.657 12.1624 15.6567 11.6148 15.6563C11.5798 15.6562 11.5444 15.6562 11.5085 15.6562H11.206C11.1893 15.6562 11.1725 15.6562 11.1556 15.6562H5.01849C4.99892 15.6562 4.97946 15.6562 4.96011 15.6562L4.50975 15.6562C4.33414 15.6562 4.15704 15.6563 4.00625 15.6466C3.86196 15.642 3.72692 15.635 3.60102 15.6247C3.19788 15.5918 2.81476 15.5203 2.45109 15.335C1.89651 15.0524 1.44562 14.6015 1.16304 14.0469C0.977743 13.6833 0.906214 13.3001 0.873277 12.897C0.841774 12.5114 0.841785 12.0402 0.841797 11.4795V5.51714C0.841785 4.9564 0.841774 4.48522 0.873277 4.09965C0.906214 3.69651 0.977743 3.31339 1.16304 2.94972C1.44562 2.39513 1.89651 1.94424 2.45109 1.66167C2.81476 1.47637 3.19788 1.40484 3.60102 1.37191C3.98659 1.3404 4.45777 1.34041 5.01851 1.34043ZM13.197 13.4975C13.2675 13.4092 13.3264 13.3112 13.3716 13.2057C13.404 13.13 13.4361 13.01 13.4542 12.7521C13.4729 12.4864 13.4734 12.1422 13.4734 11.6253C13.4734 11.2456 13.4682 11.1909 13.4585 11.1498C13.4398 11.0703 13.404 10.9958 13.3536 10.9315C13.3276 10.8984 13.2881 10.8601 12.9916 10.6229L11.0286 9.0525C10.9608 8.99827 10.908 8.956 10.8618 8.92016C10.8547 8.91469 10.848 8.90952 10.8417 8.90465C10.8356 8.90991 10.8293 8.91549 10.8226 8.92139C10.7788 8.96008 10.7287 9.00559 10.6644 9.06399L5.26561 13.972H11.1267C11.6435 13.972 11.9877 13.9715 12.2535 13.9529C12.5113 13.9348 12.6313 13.9026 12.707 13.8702C12.8309 13.8172 12.9443 13.7453 13.0437 13.658C13.0994 13.6091 13.1507 13.5554 13.197 13.4975ZM5.54355 5.48078C5.2335 5.48078 4.98215 5.73213 4.98215 6.04218C4.98215 6.35224 5.2335 6.60358 5.54355 6.60358C5.85361 6.60358 6.10496 6.35224 6.10496 6.04218C6.10496 5.73213 5.85361 5.48078 5.54355 5.48078ZM3.29794 6.04218C3.29794 4.80196 4.30333 3.79657 5.54355 3.79657C6.78377 3.79657 7.78917 4.80196 7.78917 6.04218C7.78917 7.2824 6.78377 8.2878 5.54355 8.2878C4.30333 8.2878 3.29794 7.2824 3.29794 6.04218Z" fill="#1F6EAC"/>
</svg>
