<svg width="24" height="24" viewBox="0 0 24 24" fill="none" xmlns="http://www.w3.org/2000/svg">
<g id="gear setting icon">
<path id="Shape" fill-rule="evenodd" clip-rule="evenodd" d="M19.2 6.375L17.5125 8.0625C18.075 8.85 18.525 9.8625 18.6375 10.875H21V13.125H18.6375C18.525 14.1375 18.075 15.15 17.5125 15.9375L19.2 17.625L17.625 19.2L15.9375 17.5125C15.15 18.075 14.1375 18.4125 13.125 18.6375V21H10.875V18.6375C9.8625 18.525 8.85 18.075 8.0625 17.5125L6.375 19.2L4.8 17.625L6.4875 15.9375C5.925 15.15 5.5875 14.1375 5.3625 13.125H3V10.875H5.3625C5.475 9.8625 5.925 8.85 6.4875 8.175L4.8 6.4875L6.4875 4.8L8.0625 6.4875C8.85 5.925 9.8625 5.5875 10.875 5.3625V3H13.125V5.3625C14.1375 5.475 15.15 5.925 15.9375 6.4875L17.625 4.8L19.2 6.375ZM8.625 12C8.625 13.9125 10.0875 15.375 12 15.375C13.9125 15.375 15.375 13.9125 15.375 12C15.375 10.0875 13.9125 8.625 12 8.625C10.0875 8.625 8.625 10.0875 8.625 12Z" fill="#333333"/>
</g>
</svg>
