<svg width="40" height="40" viewBox="0 0 40 40" fill="none" xmlns="http://www.w3.org/2000/svg">
<path d="M16.3803 16.8534C17.0763 18.303 18.0251 19.6616 19.2266 20.8632C20.4282 22.0648 21.7869 23.0136 23.2365 23.7096C23.3612 23.7694 23.4235 23.7994 23.5024 23.8224C23.7828 23.9041 24.127 23.8454 24.3644 23.6754C24.4313 23.6275 24.4884 23.5704 24.6027 23.4561C24.9523 23.1064 25.1271 22.9316 25.3029 22.8174C25.9658 22.3864 26.8204 22.3864 27.4833 22.8174C27.6591 22.9316 27.8339 23.1064 28.1835 23.4561L28.3783 23.6509C28.9098 24.1824 29.1755 24.4481 29.3198 24.7335C29.6069 25.301 29.6069 25.9713 29.3198 26.5389C29.1755 26.8242 28.9098 27.09 28.3783 27.6214L28.2207 27.779C27.6911 28.3087 27.4263 28.5735 27.0662 28.7757C26.6667 29.0001 26.0462 29.1615 25.588 29.1601C25.1751 29.1589 24.8928 29.0788 24.3284 28.9186C21.295 28.0576 18.4326 26.4332 16.0447 24.0452C13.6567 21.6572 12.0322 18.7948 11.1712 15.7614C11.011 15.197 10.9309 14.9148 10.9297 14.5018C10.9283 14.0436 11.0897 13.4231 11.3141 13.0236C11.5164 12.6636 11.7812 12.3988 12.3108 11.8691L12.4684 11.7115C12.9999 11.1801 13.2656 10.9143 13.551 10.77C14.1185 10.4829 14.7888 10.4829 15.3564 10.77C15.6417 10.9143 15.9075 11.1801 16.4389 11.7115L16.6338 11.9064C16.9834 12.256 17.1582 12.4308 17.2725 12.6066C17.7035 13.2694 17.7035 14.124 17.2725 14.7869C17.1582 14.9627 16.9834 15.1375 16.6338 15.4871C16.5195 15.6014 16.4623 15.6586 16.4145 15.7254C16.2445 15.9628 16.1858 16.3071 16.2675 16.5874C16.2905 16.6663 16.3204 16.7287 16.3803 16.8534Z" fill="#1F6EAC"/>
<rect x="1" y="1" width="38" height="38" rx="19" stroke="#1F6EAC" stroke-width="2"/>
</svg>
