<svg width="13" height="14" viewBox="0 0 13 14" fill="none" xmlns="http://www.w3.org/2000/svg">
<path fill-rule="evenodd" clip-rule="evenodd" d="M6.1561 5.59838V8.39757C6.1561 8.78405 6.46251 9.09736 6.84049 9.09736C7.21847 9.09736 7.52488 8.78405 7.52488 8.39757V1.39959H8.89366V8.39757C8.89366 8.78405 9.20007 9.09736 9.57805 9.09736C9.95603 9.09736 10.2624 8.78405 10.2624 8.39757V1.39959H10.9468C11.3248 1.39959 11.6312 1.08628 11.6312 0.699797C11.6312 0.31331 11.3248 0 10.9468 0H6.1561C4.64419 0 3.41854 1.25324 3.41854 2.79919C3.41854 4.34514 4.64419 5.59838 6.1561 5.59838ZM12.3156 10.497H2.33036L3.22006 9.59422C3.48843 9.31981 3.48843 8.87491 3.22006 8.60051C2.9517 8.3261 2.5166 8.3261 2.24823 8.60051L0.19506 10.6999C0.132753 10.7665 0.0839116 10.8449 0.0513385 10.9308C-0.0171128 11.1012 -0.0171128 11.2923 0.0513385 11.4627C0.0839116 11.5486 0.132753 11.6271 0.19506 11.6936L2.24823 13.793C2.37674 13.9255 2.55166 14 2.73415 14C2.91663 14 3.09156 13.9255 3.22006 13.793C3.34963 13.6616 3.42251 13.4827 3.42251 13.2961C3.42251 13.1096 3.34963 12.9307 3.22006 12.7993L2.33036 11.8966H12.3156C12.6936 11.8966 13 11.5832 13 11.1968C13 10.8103 12.6936 10.497 12.3156 10.497ZM4.78732 2.79919C4.78732 3.57216 5.40014 4.19878 6.1561 4.19878V1.39959C5.40014 1.39959 4.78732 2.02621 4.78732 2.79919Z" fill="#999999"/>
</svg>
