<svg width="20" height="21" viewBox="0 0 20 21" fill="none" xmlns="http://www.w3.org/2000/svg">
<g clip-path="url(#clip0_1043_47019)">
<path d="M9.49228 4.40679C9.6553 4.07653 9.73681 3.9114 9.84746 3.85865C9.94374 3.81274 10.0556 3.81274 10.1519 3.85865C10.2625 3.9114 10.344 4.07653 10.507 4.40679L12.0536 7.54C12.1018 7.6375 12.1258 7.68625 12.161 7.7241C12.1921 7.75761 12.2295 7.78477 12.2709 7.80406C12.3178 7.82584 12.3716 7.8337 12.4792 7.84943L15.9387 8.35508C16.3029 8.40833 16.4851 8.43496 16.5694 8.52393C16.6427 8.60135 16.6772 8.70773 16.6633 8.81345C16.6472 8.93496 16.5153 9.0634 16.2516 9.32029L13.7492 11.7576C13.6712 11.8336 13.6322 11.8716 13.6071 11.9168C13.5848 11.9568 13.5705 12.0008 13.565 12.0462C13.5587 12.0976 13.5679 12.1512 13.5864 12.2586L14.1768 15.7012C14.2391 16.0643 14.2702 16.2458 14.2117 16.3535C14.1608 16.4473 14.0703 16.513 13.9654 16.5325C13.8448 16.5548 13.6818 16.4691 13.3558 16.2976L10.263 14.6712C10.1667 14.6205 10.1185 14.5951 10.0677 14.5852C10.0228 14.5764 9.97655 14.5764 9.9316 14.5852C9.88084 14.5951 9.83266 14.6205 9.7363 14.6712L6.64356 16.2976C6.3175 16.4691 6.15447 16.5548 6.03393 16.5325C5.92904 16.513 5.83854 16.4473 5.78763 16.3535C5.72911 16.2458 5.76025 16.0643 5.82252 15.7012L6.41297 12.2586C6.43137 12.1512 6.44058 12.0976 6.43435 12.0462C6.42883 12.0008 6.41454 11.9568 6.39226 11.9168C6.36709 11.8716 6.32808 11.8336 6.25008 11.7576L3.74771 9.32029C3.48397 9.0634 3.3521 8.93496 3.33605 8.81345C3.32209 8.70773 3.35658 8.60135 3.42993 8.52393C3.51422 8.43496 3.69637 8.40833 4.06067 8.35508L7.52015 7.84943C7.62774 7.8337 7.68153 7.82584 7.72838 7.80406C7.76986 7.78477 7.8072 7.75761 7.83834 7.7241C7.87351 7.68625 7.89757 7.6375 7.9457 7.54L9.49228 4.40679Z" fill="#FFC657"/>
<path d="M18.635 5.72855C18.6688 5.59346 18.6857 5.52591 18.7125 5.51017C18.7357 5.49661 18.7643 5.49661 18.7875 5.51017C18.8143 5.52591 18.8312 5.59346 18.865 5.72855L18.9428 6.03986C18.9804 6.19034 18.9992 6.26558 19.0384 6.3268C19.0731 6.38096 19.119 6.42695 19.1732 6.4616C19.2344 6.50078 19.3097 6.51959 19.4601 6.55721L19.7714 6.63503C19.9065 6.66881 19.9741 6.68569 19.9898 6.71254C20.0034 6.73567 20.0034 6.76433 19.9898 6.78746C19.9741 6.81431 19.9065 6.83119 19.7714 6.86497L19.4601 6.94279C19.3097 6.98041 19.2344 6.99922 19.1732 7.0384C19.119 7.07305 19.0731 7.11904 19.0384 7.1732C18.9992 7.23442 18.9804 7.30966 18.9428 7.46014L18.865 7.77145C18.8312 7.90654 18.8143 7.97409 18.7875 7.98983C18.7643 8.00339 18.7357 8.00339 18.7125 7.98983C18.6857 7.97409 18.6688 7.90654 18.635 7.77145L18.5572 7.46014C18.5196 7.30966 18.5008 7.23442 18.4616 7.1732C18.4269 7.11904 18.381 7.07305 18.3268 7.0384C18.2656 6.99922 18.1903 6.98041 18.0399 6.94279L17.7286 6.86497C17.5935 6.83119 17.5259 6.81431 17.5102 6.78746C17.4966 6.76433 17.4966 6.73567 17.5102 6.71254C17.5259 6.68569 17.5935 6.66881 17.7286 6.63503L18.0399 6.55721C18.1903 6.51959 18.2656 6.50078 18.3268 6.4616C18.381 6.42695 18.4269 6.38096 18.4616 6.3268C18.5008 6.26558 18.5196 6.19034 18.5572 6.03986L18.635 5.72855Z" fill="#FFC657"/>
<path d="M18.635 5.72855C18.6688 5.59346 18.6857 5.52591 18.7125 5.51017C18.7357 5.49661 18.7643 5.49661 18.7875 5.51017C18.8143 5.52591 18.8312 5.59346 18.865 5.72855L18.9428 6.03986C18.9804 6.19034 18.9992 6.26558 19.0384 6.3268C19.0731 6.38096 19.119 6.42695 19.1732 6.4616C19.2344 6.50078 19.3097 6.51959 19.4601 6.55721L19.7714 6.63503C19.9065 6.66881 19.9741 6.68569 19.9898 6.71254C20.0034 6.73567 20.0034 6.76433 19.9898 6.78746C19.9741 6.81431 19.9065 6.83119 19.7714 6.86497L19.4601 6.94279C19.3097 6.98041 19.2344 6.99922 19.1732 7.0384C19.119 7.07305 19.0731 7.11904 19.0384 7.1732C18.9992 7.23442 18.9804 7.30966 18.9428 7.46014L18.865 7.77145C18.8312 7.90654 18.8143 7.97409 18.7875 7.98983C18.7643 8.00339 18.7357 8.00339 18.7125 7.98983C18.6857 7.97409 18.6688 7.90654 18.635 7.77145L18.5572 7.46014C18.5196 7.30966 18.5008 7.23442 18.4616 7.1732C18.4269 7.11904 18.381 7.07305 18.3268 7.0384C18.2656 6.99922 18.1903 6.98041 18.0399 6.94279L17.7286 6.86497C17.5935 6.83119 17.5259 6.81431 17.5102 6.78746C17.4966 6.76433 17.4966 6.73567 17.5102 6.71254C17.5259 6.68569 17.5935 6.66881 17.7286 6.63503L18.0399 6.55721C18.1903 6.51959 18.2656 6.50078 18.3268 6.4616C18.381 6.42695 18.4269 6.38096 18.4616 6.3268C18.5008 6.26558 18.5196 6.19034 18.5572 6.03986L18.635 5.72855Z" fill="#FFC657"/>
<path d="M13.9371 0.957105C14.0046 0.68692 14.0384 0.551827 14.0921 0.520347C14.1383 0.493218 14.1957 0.493218 14.2419 0.520347C14.2956 0.551827 14.3294 0.68692 14.3969 0.957105L14.5526 1.57971C14.6278 1.88067 14.6654 2.03115 14.7438 2.1536C14.8131 2.26191 14.9051 2.35389 15.0134 2.4232C15.1358 2.50155 15.2863 2.53917 15.5873 2.61441L16.2099 2.77007C16.4801 2.83761 16.6152 2.87139 16.6466 2.92507C16.6738 2.97134 16.6738 3.02866 16.6466 3.07493C16.6152 3.12861 16.4801 3.16239 16.2099 3.22993L15.5873 3.38559C15.2863 3.46083 15.1358 3.49845 15.0134 3.5768C14.9051 3.64611 14.8131 3.73809 14.7438 3.8464C14.6654 3.96885 14.6278 4.11933 14.5526 4.42029L14.3969 5.04289C14.3294 5.31308 14.2956 5.44817 14.2419 5.47965C14.1957 5.50678 14.1383 5.50678 14.0921 5.47965C14.0384 5.44817 14.0046 5.31308 13.9371 5.04289L13.7814 4.42029C13.7062 4.11933 13.6685 3.96885 13.5902 3.8464C13.5209 3.73809 13.4289 3.64611 13.3206 3.5768C13.1981 3.49845 13.0477 3.46083 12.7467 3.38559L12.1241 3.22993C11.8539 3.16239 11.7188 3.12861 11.6873 3.07493C11.6602 3.02866 11.6602 2.97134 11.6873 2.92507C11.7188 2.87139 11.8539 2.83761 12.1241 2.77007L12.7467 2.61441C13.0477 2.53917 13.1981 2.50155 13.3206 2.4232C13.4289 2.35389 13.5209 2.26191 13.5902 2.1536C13.6685 2.03115 13.7062 1.88067 13.7814 1.57971L13.9371 0.957105Z" fill="#FFC657"/>
<path d="M13.9371 0.957105C14.0046 0.68692 14.0384 0.551827 14.0921 0.520347C14.1383 0.493218 14.1957 0.493218 14.2419 0.520347C14.2956 0.551827 14.3294 0.68692 14.3969 0.957105L14.5526 1.57971C14.6278 1.88067 14.6654 2.03115 14.7438 2.1536C14.8131 2.26191 14.9051 2.35389 15.0134 2.4232C15.1358 2.50155 15.2863 2.53917 15.5873 2.61441L16.2099 2.77007C16.4801 2.83761 16.6152 2.87139 16.6466 2.92507C16.6738 2.97134 16.6738 3.02866 16.6466 3.07493C16.6152 3.12861 16.4801 3.16239 16.2099 3.22993L15.5873 3.38559C15.2863 3.46083 15.1358 3.49845 15.0134 3.5768C14.9051 3.64611 14.8131 3.73809 14.7438 3.8464C14.6654 3.96885 14.6278 4.11933 14.5526 4.42029L14.3969 5.04289C14.3294 5.31308 14.2956 5.44817 14.2419 5.47965C14.1957 5.50678 14.1383 5.50678 14.0921 5.47965C14.0384 5.44817 14.0046 5.31308 13.9371 5.04289L13.7814 4.42029C13.7062 4.11933 13.6685 3.96885 13.5902 3.8464C13.5209 3.73809 13.4289 3.64611 13.3206 3.5768C13.1981 3.49845 13.0477 3.46083 12.7467 3.38559L12.1241 3.22993C11.8539 3.16239 11.7188 3.12861 11.6873 3.07493C11.6602 3.02866 11.6602 2.97134 11.6873 2.92507C11.7188 2.87139 11.8539 2.83761 12.1241 2.77007L12.7467 2.61441C13.0477 2.53917 13.1981 2.50155 13.3206 2.4232C13.4289 2.35389 13.5209 2.26191 13.5902 2.1536C13.6685 2.03115 13.7062 1.88067 13.7814 1.57971L13.9371 0.957105Z" fill="#FFC657"/>
</g>
<defs>
<clipPath id="clip0_1043_47019">
<rect width="20" height="20" fill="white" transform="translate(0 0.5)"/>
</clipPath>
</defs>
</svg>
