<svg width="15" height="14" viewBox="0 0 15 14" fill="none" xmlns="http://www.w3.org/2000/svg">
<path fill-rule="evenodd" clip-rule="evenodd" d="M9.55183 9.44346C10.0785 8.79414 10.8682 8.41468 11.7043 8.40915C13.2482 8.40915 14.4997 9.6607 14.4997 11.2046C14.4997 12.7484 13.2482 14 11.7043 14C10.1604 14 8.90888 12.7484 8.90888 11.2046C8.91099 11.0381 8.92735 10.8721 8.9578 10.7084L5.26784 9.01017C4.16981 10.0838 2.41128 10.0707 1.32944 8.98069C0.247607 7.89073 0.247607 6.13215 1.32944 5.04218C2.41128 3.95222 4.16981 3.93906 5.26784 5.01271L8.9578 3.31449C8.92735 3.15079 8.91099 2.98479 8.90888 2.8183C8.89789 1.45799 9.86773 0.287264 11.2063 0.0449732C12.5449 -0.197317 13.8636 0.559182 14.3301 1.83704C14.7966 3.1149 14.2755 4.54306 13.0957 5.2202C11.9159 5.89734 10.4198 5.62684 9.55183 4.57942L5.98766 6.22173C6.15524 6.73487 6.15524 7.28801 5.98766 7.80114L9.55183 9.44346ZM13.102 2.8183C13.102 2.04636 12.4762 1.42059 11.7043 1.42059C10.9324 1.42059 10.3066 2.04636 10.3066 2.8183C10.3066 3.59023 10.9324 4.21601 11.7043 4.21601C12.4762 4.21601 13.102 3.59023 13.102 2.8183ZM3.31803 8.40915C2.5461 8.40915 1.92032 7.78337 1.92032 7.01144C1.92032 6.2395 2.5461 5.61372 3.31803 5.61372C4.08997 5.61372 4.71575 6.2395 4.71575 7.01144C4.71575 7.78337 4.08997 8.40915 3.31803 8.40915ZM10.3066 11.2046C10.3066 11.9765 10.9324 12.6023 11.7043 12.6023C12.4762 12.6023 13.102 11.9765 13.102 11.2046C13.102 10.4326 12.4762 9.80686 11.7043 9.80686C10.9324 9.80686 10.3066 10.4326 10.3066 11.2046Z" fill="#808080"/>
</svg>
