<svg width="21" height="18" viewBox="0 0 21 18" fill="none" xmlns="http://www.w3.org/2000/svg">
<path opacity="0.5" fill-rule="evenodd" clip-rule="evenodd" d="M7.79211 16.4688C6.98684 17.4896 5.95263 18 4.68947 18C3.26842 18 2.13158 17.3975 1.27895 16.1926C0.426316 14.9877 0 13.4816 0 11.6742C0 9.13053 0.631579 6.89643 1.89474 4.97192C3.15789 3.04742 4.91053 1.39903 7.15263 0.0267758C7.24737 -0.0401636 7.40526 0.0184083 7.62632 0.202492C7.84737 0.386575 8.00526 0.545556 8.1 0.679435C8.19474 0.813313 8.29737 1.0225 8.4079 1.30699C8.51842 1.59148 8.52632 1.75046 8.43158 1.78393C7.51579 2.38639 6.63158 3.21476 5.77895 4.26906C4.92632 5.32335 4.5 6.5199 4.5 7.85868C4.5 8.26032 4.52368 8.54481 4.57105 8.71216C4.61842 8.87951 4.70526 8.96318 4.83158 8.96318C4.92632 8.96318 5.02895 8.93808 5.13947 8.88788C5.25 8.83767 5.38421 8.81257 5.54211 8.81257C6.45789 8.81257 7.26316 9.15563 7.95789 9.84176C8.65263 10.5279 9 11.6073 9 13.08C9 14.3183 8.59737 15.4479 7.79211 16.4688ZM19.7921 16.4688C18.9868 17.4896 17.9526 18 16.6895 18C15.2684 18 14.1316 17.3975 13.2789 16.1926C12.4263 14.9877 12 13.4816 12 11.6742C12 9.13053 12.6316 6.89643 13.8947 4.97192C15.1579 3.04742 16.9105 1.39903 19.1526 0.0267758C19.2474 -0.0401636 19.4053 0.0184083 19.6263 0.202492C19.8474 0.386575 20.0053 0.545556 20.1 0.679435C20.1947 0.813313 20.2974 1.0225 20.4079 1.30699C20.5184 1.59148 20.5263 1.75046 20.4316 1.78393C19.5158 2.38639 18.6316 3.21476 17.7789 4.26906C16.9263 5.32335 16.5 6.5199 16.5 7.85868C16.5 8.26032 16.5237 8.54481 16.5711 8.71216C16.6184 8.87951 16.7053 8.96318 16.8316 8.96318C16.9263 8.96318 17.0289 8.93808 17.1395 8.88788C17.25 8.83767 17.3842 8.81257 17.5421 8.81257C18.4579 8.81257 19.2632 9.15563 19.9579 9.84176C20.6526 10.5279 21 11.6073 21 13.08C21 14.3183 20.5974 15.4479 19.7921 16.4688Z" fill="#589DC0"/>
</svg>
