<svg width="20" height="21" viewBox="0 0 20 21" fill="none" xmlns="http://www.w3.org/2000/svg">
<path d="M14.5582 9.91146C14.4786 9.98834 14.4151 10.0803 14.3714 10.182C14.3277 10.2836 14.3047 10.393 14.3038 10.5036C14.3028 10.6143 14.3239 10.724 14.3658 10.8264C14.4077 10.9288 14.4696 11.0219 14.5478 11.1001C14.6261 11.1784 14.7191 11.2402 14.8215 11.2821C14.9239 11.324 15.0337 11.3451 15.1443 11.3442C15.255 11.3432 15.3643 11.3202 15.466 11.2765C15.5677 11.2329 15.6596 11.1694 15.7365 11.0898L17.0232 9.80313C17.8462 8.96101 18.304 7.82833 18.2973 6.65083C18.2905 5.47333 17.8198 4.34597 16.9871 3.51333C16.1545 2.6807 15.0271 2.20995 13.8496 2.2032C12.6721 2.19645 11.5394 2.65426 10.6973 3.4773L9.41066 4.76396C9.33107 4.84084 9.26758 4.93279 9.22391 5.03446C9.18023 5.13613 9.15724 5.24548 9.15628 5.35613C9.15532 5.46678 9.17641 5.57651 9.21831 5.67893C9.26021 5.78134 9.32208 5.87438 9.40033 5.95263C9.47857 6.03087 9.57162 6.09275 9.67403 6.13465C9.77644 6.17655 9.88618 6.19763 9.99682 6.19667C10.1075 6.19571 10.2168 6.17272 10.3185 6.12905C10.4202 6.08537 10.5121 6.02189 10.589 5.9423L11.8757 4.65563C12.1358 4.39267 12.4453 4.18371 12.7864 4.04076C13.1275 3.89782 13.4936 3.82371 13.8634 3.8227C14.2333 3.82169 14.5997 3.89379 14.9416 4.03487C15.2835 4.17594 15.5942 4.38321 15.8557 4.64474C16.1172 4.90628 16.3245 5.21693 16.4656 5.55884C16.6067 5.90075 16.6788 6.26717 16.6778 6.63703C16.6767 7.0069 16.6026 7.37292 16.4597 7.71405C16.3167 8.05518 16.1078 8.36469 15.8448 8.6248L14.5582 9.91146Z" fill="#A6B0C3"/>
<path d="M5.4423 11.089C5.52189 11.0121 5.58537 10.9202 5.62905 10.8185C5.67272 10.7168 5.69571 10.6075 5.69667 10.4968C5.69763 10.3862 5.67655 10.2764 5.63465 10.174C5.59275 10.0716 5.53087 9.97857 5.45263 9.90033C5.37438 9.82208 5.28134 9.76021 5.17892 9.71831C5.07651 9.67641 4.96678 9.65532 4.85613 9.65628C4.74548 9.65724 4.63613 9.68023 4.53446 9.72391C4.43279 9.76758 4.34084 9.83107 4.26396 9.91066L2.9773 11.1973C2.15426 12.0394 1.69645 13.1721 1.7032 14.3496C1.70995 15.5271 2.1807 16.6545 3.01333 17.4871C3.84597 18.3198 4.97333 18.7905 6.15083 18.7973C7.32833 18.804 8.46101 18.3462 9.30313 17.5232L10.5898 16.2365C10.7416 16.0793 10.8256 15.8688 10.8237 15.6503C10.8218 15.4318 10.7342 15.2228 10.5796 15.0683C10.4251 14.9138 10.2161 14.8262 9.99763 14.8243C9.77913 14.8224 9.56863 14.9064 9.41146 15.0582L8.1248 16.3448C7.59746 16.8664 6.8851 17.1581 6.14339 17.156C5.40168 17.154 4.69093 16.8585 4.16646 16.334C3.64199 15.8095 3.34644 15.0988 3.34441 14.3571C3.34239 13.6153 3.63404 12.903 4.15563 12.3757L5.4423 11.089Z" fill="#A6B0C3"/>
<path d="M6.83788 13.6676C6.99415 13.8238 7.20607 13.9115 7.42704 13.9115C7.64801 13.9115 7.85994 13.8238 8.01621 13.6676L13.167 8.51672C13.2466 8.43985 13.3101 8.3479 13.3538 8.24623C13.3975 8.14456 13.4205 8.03521 13.4214 7.92456C13.4224 7.81391 13.4013 7.70418 13.3594 7.60176C13.3175 7.49935 13.2556 7.40631 13.1774 7.32806C13.0991 7.24982 13.0061 7.18794 12.9037 7.14604C12.8013 7.10414 12.6915 7.08305 12.5809 7.08402C12.4702 7.08498 12.3609 7.10797 12.2592 7.15164C12.1575 7.19531 12.0656 7.2588 11.9887 7.33839L6.83788 12.4851C6.75989 12.5625 6.69801 12.6546 6.65577 12.7561C6.61354 12.8576 6.5918 12.9664 6.5918 13.0763C6.5918 13.1862 6.61354 13.295 6.65577 13.3965C6.69801 13.498 6.75989 13.5901 6.83788 13.6676Z" fill="#A6B0C3"/>
</svg>
