<svg width="25" height="25" viewBox="0 0 25 25" fill="none" xmlns="http://www.w3.org/2000/svg">
<path d="M23 9.00001L23 2.00001M23 2.00001H16M23 2.00001L12.5 12.5M10.1667 2H7.6C5.63982 2 4.65972 2 3.91103 2.38148C3.25247 2.71703 2.71703 3.25247 2.38148 3.91103C2 4.65972 2 5.63982 2 7.6V17.4C2 19.3602 2 20.3403 2.38148 21.089C2.71703 21.7475 3.25247 22.283 3.91103 22.6185C4.65972 23 5.63982 23 7.6 23H17.4C19.3602 23 20.3403 23 21.089 22.6185C21.7475 22.283 22.283 21.7475 22.6185 21.089C23 20.3403 23 19.3602 23 17.4V14.8333" stroke="#589DC0" stroke-width="2.5" stroke-linecap="round" stroke-linejoin="round"/>
</svg>
