<svg width="24" height="24" viewBox="0 0 24 24" fill="none" xmlns="http://www.w3.org/2000/svg">
<path fill-rule="evenodd" clip-rule="evenodd" d="M17.5209 4.90359L19.0697 6.45248C19.7902 7.17289 19.7902 8.32555 19.1058 9.04596L9.30817 18.8436C9.27215 18.8796 9.23613 18.9156 9.20011 18.9156H9.16409H9.12807L4.8056 19.636H4.73356C4.62549 19.636 4.55345 19.6 4.48141 19.5279C4.40937 19.4199 4.33733 19.3118 4.37335 19.2038L5.09376 14.8813V14.8453V14.8093C5.11177 14.7912 5.12078 14.7732 5.12978 14.7552C5.13879 14.7372 5.14779 14.7192 5.1658 14.7012L14.9994 4.90359C15.3236 4.54338 15.7919 4.36328 16.2601 4.36328C16.7284 4.36328 17.1967 4.5794 17.5209 4.90359ZM5.38193 17.2587L6.67867 18.5554L8.26357 18.3032L5.63407 15.6737L5.38193 17.2587ZM14.3871 10.0906L8.51572 15.9619C8.44368 16.0339 8.33561 16.07 8.26357 16.07C8.15551 16.07 8.08347 16.0339 8.01143 15.9619C7.86735 15.8178 7.86735 15.6017 8.01143 15.4576L13.8828 9.58627C14.0269 9.44218 14.243 9.44218 14.3871 9.58627C14.5312 9.73035 14.5312 9.94647 14.3871 10.0906ZM13.8468 7.0288L16.9445 10.1266L17.8811 9.19004L14.7833 6.09227L13.8468 7.0288Z" fill="white"/>
</svg>
