<svg width="19" height="20" viewBox="0 0 19 20" fill="none" xmlns="http://www.w3.org/2000/svg">
<path d="M1 11H16.587C17.0495 11 17.2808 11 17.4128 10.903C17.528 10.8185 17.6015 10.6887 17.6147 10.5464C17.63 10.3833 17.511 10.185 17.273 9.7884L15.247 6.4116C15.1572 6.26195 15.1123 6.18712 15.0947 6.10724C15.0792 6.03659 15.0792 5.96341 15.0947 5.89276C15.1123 5.81288 15.1572 5.73805 15.247 5.5884L17.273 2.2116C17.511 1.81503 17.63 1.61674 17.6147 1.45359C17.6015 1.31133 17.528 1.18154 17.4128 1.09698C17.2808 1 17.0495 1 16.587 1H1L1 19" stroke="#333333" strokeWidth="2" strokeLinecap="round" strokeLinejoin="round"/>
</svg>
