<svg width="28" height="23" viewBox="0 0 28 23" fill="none" xmlns="http://www.w3.org/2000/svg">
<path fill-rule="evenodd" clipRule="evenodd" d="M2.59961 3.10078C2.59961 2.60078 2.89961 2.30078 3.39961 2.30078H23.7996C24.1996 2.30078 24.5996 2.60078 24.5996 3.10078V20.1008C24.5996 20.5008 24.1996 20.9008 23.7996 20.9008H3.39961C2.89961 20.9008 2.59961 20.5008 2.59961 20.1008V3.10078ZM4.09961 3.80078V19.4008H23.0996V3.80078H4.09961ZM7.69961 15.4008C6.89961 15.4008 6.39961 14.4008 6.99961 13.7008L8.39961 12.0008C8.79961 11.6008 9.39961 11.5008 9.79961 11.8008L11.6996 13.2008C12.0996 13.5008 12.6996 13.4008 13.0996 13.1008L16.0996 9.70078C16.5996 9.20078 17.2996 9.30078 17.6996 9.80078L20.4996 13.8008C20.8996 14.5008 20.3996 15.4008 19.5996 15.4008H7.69961ZM12.4996 8.30078C12.4996 9.10078 11.6996 9.70078 10.6996 9.70078C9.79961 9.70078 8.99961 9.10078 8.99961 8.30078C8.99961 7.50078 9.79961 6.90078 10.6996 6.90078C11.6996 6.90078 12.4996 7.50078 12.4996 8.30078Z" fill="#A6B0C3"/>
</svg>
