<svg width="14" height="14" viewBox="0 0 14 14" fill="none" xmlns="http://www.w3.org/2000/svg">
<path fill-rule="evenodd" clipRule="evenodd" d="M9.08341 1.73026L6.90074 0.518311L4.71802 1.73026L2.31763 2.41669L1.6312 4.81708L0.41925 6.99979L1.6312 9.18252L2.31763 11.5829L4.71802 12.2694L6.90074 13.4813L9.08341 12.2694L11.4839 11.5829L12.1703 9.18252L13.3822 6.99979L12.1703 4.81708L11.4839 2.41669L9.08341 1.73026ZM10.0811 5.56474C10.3624 5.24013 10.3273 4.74892 10.0027 4.46759C9.6781 4.18626 9.18686 4.22135 8.90554 4.54596L6.12296 7.75667L4.8959 6.34083C4.61457 6.01622 4.12336 5.98113 3.79875 6.26246C3.47414 6.54379 3.43906 7.035 3.72038 7.35961L5.5352 9.45365C5.68293 9.62406 5.89739 9.72198 6.12296 9.72198C6.34852 9.72198 6.56298 9.62406 6.71072 9.45365L10.0811 5.56474Z" fill="#3861FB"/>
</svg>
