<svg width="20" height="21" viewBox="0 0 20 21" fill="none" xmlns="http://www.w3.org/2000/svg">
<path fill-rule="evenodd" clip-rule="evenodd" d="M5.19655 3.1972C5.54802 2.84573 6.11787 2.84573 6.46934 3.1972L9.80267 6.53053C10.1541 6.882 10.1541 7.45185 9.80267 7.80332C9.4512 8.1548 8.88135 8.1548 8.52988 7.80332L6.73294 6.00639V17.1669C6.73294 17.664 6.33 18.0669 5.83294 18.0669C5.33589 18.0669 4.93294 17.664 4.93294 17.1669V6.00639L3.13601 7.80332C2.78453 8.1548 2.21469 8.1548 1.86321 7.80332C1.51174 7.45185 1.51174 6.882 1.86321 6.53053L5.19655 3.1972ZM14.1663 2.93359C14.6633 2.93359 15.0663 3.33654 15.0663 3.83359V14.9941L16.8632 13.1972C17.2147 12.8457 17.7845 12.8457 18.136 13.1972C18.4875 13.5487 18.4875 14.1185 18.136 14.47L14.8027 17.8033C14.4512 18.1548 13.8814 18.1548 13.5299 17.8033L10.1965 14.47C9.84507 14.1185 9.84507 13.5487 10.1965 13.1972C10.548 12.8457 11.1179 12.8457 11.4693 13.1972L13.2663 14.9941V3.83359C13.2663 3.33654 13.6692 2.93359 14.1663 2.93359Z" fill="#A6B0C3"/>
</svg>
