<svg width="29" height="28" viewBox="0 0 29 28" fill="none" xmlns="http://www.w3.org/2000/svg">
<g clip-path="url(#clip0_2623_6641)">
<path fill-rule="evenodd" clip-rule="evenodd" d="M14.5007 4.83398C15.0529 4.83398 15.5007 5.2817 15.5007 5.83398V13.0007H22.6673C23.2196 13.0007 23.6673 13.4484 23.6673 14.0007C23.6673 14.5529 23.2196 15.0007 22.6673 15.0007H15.5007V22.1673C15.5007 22.7196 15.0529 23.1673 14.5007 23.1673C13.9484 23.1673 13.5007 22.7196 13.5007 22.1673V15.0007H6.33398C5.7817 15.0007 5.33398 14.5529 5.33398 14.0007C5.33398 13.4484 5.7817 13.0007 6.33398 13.0007H13.5007V5.83398C13.5007 5.2817 13.9484 4.83398 14.5007 4.83398Z" fill="#1F6EAC"/>
<path fill-rule="evenodd" clip-rule="evenodd" d="M14.5 26C21.1274 26 26.5 20.6274 26.5 14C26.5 7.37258 21.1274 2 14.5 2C7.87258 2 2.5 7.37258 2.5 14C2.5 20.6274 7.87258 26 14.5 26ZM14.5 28C22.232 28 28.5 21.732 28.5 14C28.5 6.26801 22.232 0 14.5 0C6.76801 0 0.5 6.26801 0.5 14C0.5 21.732 6.76801 28 14.5 28Z" fill="#1F6EAC"/>
</g>
<defs>
<clipPath id="clip0_2623_6641">
<rect x="0.5" width="28" height="28" rx="14" fill="white"/>
</clipPath>
</defs>
</svg>
