<svg width="20" height="19" viewBox="0 0 20 19" fill="none" xmlns="http://www.w3.org/2000/svg">
<path d="M18.9008 17.0991L15.5 13.7258C16.8201 12.0798 17.4594 9.99066 17.2864 7.88783C17.1134 5.785 16.1413 3.82836 14.57 2.42023C12.9987 1.0121 10.9476 0.259524 8.83849 0.317238C6.72934 0.374952 4.72247 1.23857 3.23052 2.73052C1.73857 4.22247 0.874952 6.22934 0.817238 8.33849C0.759524 10.4476 1.5121 12.4987 2.92023 14.07C4.32836 15.6413 6.285 16.6134 8.38783 16.7864C10.4907 16.9594 12.5798 16.3201 14.2258 15L17.5991 18.3733C17.6844 18.4592 17.7857 18.5274 17.8974 18.574C18.0091 18.6205 18.129 18.6445 18.25 18.6445C18.371 18.6445 18.4908 18.6205 18.6025 18.574C18.7142 18.5274 18.8156 18.4592 18.9008 18.3733C19.066 18.2024 19.1584 17.974 19.1584 17.7362C19.1584 17.4985 19.066 17.2701 18.9008 17.0991ZM9.08331 15C7.81421 15 6.57361 14.6236 5.5184 13.9186C4.46318 13.2135 3.64074 12.2114 3.15508 11.0389C2.66942 9.86637 2.54235 8.57619 2.78993 7.33148C3.03752 6.08677 3.64865 4.94343 4.54604 4.04604C5.44343 3.14865 6.58677 2.53752 7.83148 2.28993C9.07619 2.04235 10.3664 2.16942 11.5389 2.65508C12.7114 3.14074 13.7135 3.96318 14.4186 5.0184C15.1236 6.07361 15.5 7.31421 15.5 8.58331C15.5 10.2851 14.8239 11.9172 13.6206 13.1206C12.4172 14.3239 10.7851 15 9.08331 15Z" fill="#3C85B6"/>
</svg>
