<svg width="24" height="24" viewBox="0 0 24 24" fill="none" xmlns="http://www.w3.org/2000/svg">
<path fill-rule="evenodd" clip-rule="evenodd" d="M14.857 24C14.4262 24 14.0285 23.7566 13.8342 23.368L10.4421 16.5837C10.2558 16.2111 10.2878 15.7654 10.5243 15.4214L15.9999 7.99936L8.57686 13.4739C8.23285 13.7116 7.78712 13.7413 7.41454 13.5562L0.63148 10.1652C0.224611 9.96058 -0.0233964 9.53428 0.00174716 9.0794C0.0257479 8.62453 0.319471 8.2268 0.746912 8.07022L22.4618 0.0698984C22.879 -0.0821077 23.3487 0.0173249 23.6653 0.333909C23.9807 0.648207 24.0836 1.11908 23.9293 1.53739L15.9291 23.2525C15.7714 23.68 15.3748 23.9737 14.9199 23.9977C14.8993 23.9989 14.8776 24 14.857 24Z" fill="white"/>
</svg>
