<svg width="19" height="20" viewBox="0 0 19 20" fill="none" xmlns="http://www.w3.org/2000/svg">
<path fill-rule="evenodd" clip-rule="evenodd" d="M3.5 6C3.5 2.68629 6.18629 0 9.5 0C12.8137 0 15.5 2.68629 15.5 6V7.15032C15.7826 7.21225 16.0539 7.30243 16.316 7.43597C17.0686 7.81947 17.6805 8.43139 18.064 9.18404C18.3113 9.66937 18.4099 10.1861 18.4558 10.7482C18.5 11.2894 18.5 11.9537 18.5 12.7587V14.2413C18.5 15.0463 18.5 15.7106 18.4558 16.2518C18.4099 16.8139 18.3113 17.3306 18.064 17.816C17.6805 18.5686 17.0686 19.1805 16.316 19.564C15.8306 19.8113 15.3139 19.9099 14.7518 19.9558C14.2106 20 13.5463 20 12.7413 20H6.25868C5.45372 20 4.78936 20 4.24817 19.9558C3.68608 19.9099 3.16937 19.8113 2.68404 19.564C1.93139 19.1805 1.31947 18.5686 0.935975 17.816C0.688684 17.3306 0.59012 16.8139 0.544195 16.2518C0.499977 15.7106 0.499988 15.0463 0.5 14.2413V12.7587C0.499988 11.9537 0.499977 11.2894 0.544195 10.7482C0.59012 10.1861 0.688684 9.66937 0.935975 9.18404C1.31947 8.43139 1.93139 7.81947 2.68404 7.43597C2.94614 7.30243 3.21739 7.21225 3.5 7.15032V6ZM5.5 7.00163C5.73771 6.99999 5.9904 7 6.2587 7H12.7413C13.0096 7 13.2623 6.99999 13.5 7.00163V6C13.5 3.79086 11.7091 2 9.5 2C7.29086 2 5.5 3.79086 5.5 6V7.00163ZM4.41104 9.03755C3.97262 9.07337 3.74842 9.1383 3.59202 9.21799C3.2157 9.40973 2.90973 9.71569 2.71799 10.092C2.6383 10.2484 2.57337 10.4726 2.53755 10.911C2.50078 11.3611 2.5 11.9434 2.5 12.8V14.2C2.5 15.0566 2.50078 15.6389 2.53755 16.089C2.57337 16.5274 2.6383 16.7516 2.71799 16.908C2.90973 17.2843 3.2157 17.5903 3.59202 17.782C3.74842 17.8617 3.97262 17.9266 4.41104 17.9624C4.86113 17.9992 5.44342 18 6.3 18H12.7C13.5566 18 14.1389 17.9992 14.589 17.9624C15.0274 17.9266 15.2516 17.8617 15.408 17.782C15.7843 17.5903 16.0903 17.2843 16.282 16.908C16.3617 16.7516 16.4266 16.5274 16.4624 16.089C16.4992 15.6389 16.5 15.0566 16.5 14.2V12.8C16.5 11.9434 16.4992 11.3611 16.4624 10.911C16.4266 10.4726 16.3617 10.2484 16.282 10.092C16.0903 9.71569 15.7843 9.40973 15.408 9.21799C15.2516 9.1383 15.0274 9.07337 14.589 9.03755C14.1389 9.00078 13.5566 9 12.7 9H6.3C5.44342 9 4.86113 9.00078 4.41104 9.03755ZM9.5 11.5C10.0523 11.5 10.5 11.9477 10.5 12.5V14.5C10.5 15.0523 10.0523 15.5 9.5 15.5C8.94772 15.5 8.5 15.0523 8.5 14.5V12.5C8.5 11.9477 8.94772 11.5 9.5 11.5Z" fill="#DA314F"/>
</svg>
