<svg width="28" height="28" viewBox="0 0 28 28" fill="none" xmlns="http://www.w3.org/2000/svg">
<path fill-rule="evenodd" clip-rule="evenodd" d="M1.86719 5.59935C1.86719 5.08388 2.22536 4.66602 2.66719 4.66602H12.2672C12.709 4.66602 13.0672 5.08388 13.0672 5.59935C13.0672 6.11481 12.709 6.53268 12.2672 6.53268H2.66719C2.22536 6.53268 1.86719 6.11481 1.86719 5.59935Z" fill="#1F6EAC"/>
<path fill-rule="evenodd" clip-rule="evenodd" d="M1.86719 11.199C1.86719 10.6835 2.22536 10.2656 2.66719 10.2656H12.2672C12.709 10.2656 13.0672 10.6835 13.0672 11.199C13.0672 11.7144 12.709 12.1323 12.2672 12.1323H2.66719C2.22536 12.1323 1.86719 11.7144 1.86719 11.199Z" fill="#1F6EAC"/>
<path fill-rule="evenodd" clip-rule="evenodd" d="M1.86719 16.7986C1.86719 16.2831 2.22536 15.8652 2.66719 15.8652H12.2672C12.709 15.8652 13.0672 16.2831 13.0672 16.7986C13.0672 17.314 12.709 17.7319 12.2672 17.7319H2.66719C2.22536 17.7319 1.86719 17.314 1.86719 16.7986Z" fill="#1F6EAC"/>
<path fill-rule="evenodd" clip-rule="evenodd" d="M1.86719 22.3982C1.86719 21.8827 2.22536 21.4648 2.66719 21.4648H12.2672C12.709 21.4648 13.0672 21.8827 13.0672 22.3982C13.0672 22.9136 12.709 23.3315 12.2672 23.3315H2.66719C2.22536 23.3315 1.86719 22.9136 1.86719 22.3982Z" fill="#1F6EAC"/>
<path d="M18.349 12.3488C18.1232 12.3488 17.9338 12.2978 17.7809 12.1958C17.6279 12.0866 17.5332 11.9409 17.4968 11.7588C17.4604 11.5694 17.4932 11.3582 17.5951 11.1251L20.3157 5.26868C20.4468 4.9846 20.6071 4.777 20.7965 4.64589C20.9932 4.51478 21.2153 4.44922 21.463 4.44922C21.7106 4.44922 21.9255 4.51478 22.1076 4.64589C22.297 4.777 22.4609 4.9846 22.5993 5.26868L25.3199 11.1251C25.4364 11.3582 25.4765 11.5694 25.4401 11.7588C25.4109 11.9482 25.3199 12.0939 25.1669 12.1958C25.0212 12.2978 24.8391 12.3488 24.6206 12.3488C24.3293 12.3488 24.1035 12.2832 23.9432 12.1521C23.7902 12.021 23.6518 11.8098 23.528 11.5184L22.938 10.1308L23.7028 10.688H19.2013L19.977 10.1308L19.387 11.5184C19.2559 11.8098 19.1211 12.021 18.9827 12.1521C18.8444 12.2832 18.6331 12.3488 18.349 12.3488ZM21.4411 6.64537L20.1737 9.6719L19.8678 9.14745H23.0473L22.7413 9.6719L21.463 6.64537H21.4411Z" fill="#1F6EAC"/>
<path d="M19.3141 23.4697C19.0579 23.4697 18.8456 23.4148 18.6773 23.305C18.5162 23.1952 18.4064 23.0488 18.3479 22.8658C18.2893 22.6754 18.2893 22.4705 18.3479 22.2509C18.4064 22.0239 18.5272 21.797 18.7102 21.5701L22.4985 16.8156V17.3866H19.1604C18.8749 17.3866 18.659 17.317 18.5126 17.1779C18.3662 17.0315 18.293 16.8229 18.293 16.552C18.293 16.2812 18.3662 16.0762 18.5126 15.9371C18.659 15.7981 18.8749 15.7285 19.1604 15.7285H23.4428C23.699 15.7285 23.9076 15.7834 24.0687 15.8932C24.237 16.003 24.3505 16.1494 24.409 16.3324C24.4676 16.5154 24.4676 16.7204 24.409 16.9473C24.3505 17.1743 24.2297 17.4012 24.0467 17.6281L20.2585 22.3826V21.8117H23.7722C24.0504 21.8117 24.2626 21.8812 24.409 22.0203C24.5628 22.1594 24.6396 22.3643 24.6396 22.6352C24.6396 22.906 24.5628 23.1147 24.409 23.2611C24.2626 23.4001 24.0504 23.4697 23.7722 23.4697H19.3141Z" fill="#1F6EAC"/>
</svg>
