<svg width="28" height="28" viewBox="0 0 28 28" fill="none" xmlns="http://www.w3.org/2000/svg">
<path fill-rule="evenodd" clip-rule="evenodd" d="M1.86719 5.59935C1.86719 5.08388 2.22536 4.66602 2.66719 4.66602H12.2672C12.709 4.66602 13.0672 5.08388 13.0672 5.59935C13.0672 6.11481 12.709 6.53268 12.2672 6.53268H2.66719C2.22536 6.53268 1.86719 6.11481 1.86719 5.59935Z" fill="#1F6EAC"/>
<path fill-rule="evenodd" clip-rule="evenodd" d="M1.86719 11.199C1.86719 10.6835 2.22536 10.2656 2.66719 10.2656H12.2672C12.709 10.2656 13.0672 10.6835 13.0672 11.199C13.0672 11.7144 12.709 12.1323 12.2672 12.1323H2.66719C2.22536 12.1323 1.86719 11.7144 1.86719 11.199Z" fill="#1F6EAC"/>
<path fill-rule="evenodd" clip-rule="evenodd" d="M1.86719 16.7986C1.86719 16.2831 2.22536 15.8652 2.66719 15.8652H12.2672C12.709 15.8652 13.0672 16.2831 13.0672 16.7986C13.0672 17.314 12.709 17.7319 12.2672 17.7319H2.66719C2.22536 17.7319 1.86719 17.314 1.86719 16.7986Z" fill="#1F6EAC"/>
<path fill-rule="evenodd" clip-rule="evenodd" d="M1.86719 22.3982C1.86719 21.8827 2.22536 21.4648 2.66719 21.4648H12.2672C12.709 21.4648 13.0672 21.8827 13.0672 22.3982C13.0672 22.9136 12.709 23.3315 12.2672 23.3315H2.66719C2.22536 23.3315 1.86719 22.9136 1.86719 22.3982Z" fill="#1F6EAC"/>
<path d="M19.3141 12.2705C19.0579 12.2705 18.8456 12.2156 18.6773 12.1058C18.5162 11.996 18.4064 11.8496 18.3479 11.6666C18.2893 11.4762 18.2893 11.2713 18.3479 11.0517C18.4064 10.8247 18.5272 10.5978 18.7102 10.3709L22.4985 5.61636V6.18734H19.1604C18.8749 6.18734 18.659 6.11779 18.5126 5.97871C18.3662 5.8323 18.293 5.62368 18.293 5.35283C18.293 5.08198 18.3662 4.87701 18.5126 4.73792C18.659 4.59884 18.8749 4.5293 19.1604 4.5293H23.4428C23.699 4.5293 23.9076 4.5842 24.0687 4.694C24.237 4.80381 24.3505 4.95021 24.409 5.13322C24.4676 5.31623 24.4676 5.52119 24.409 5.74812C24.3505 5.97505 24.2297 6.20198 24.0467 6.42891L20.2585 11.1834V10.6124H23.7722C24.0504 10.6124 24.2626 10.682 24.409 10.8211C24.5628 10.9601 24.6396 11.1651 24.6396 11.436C24.6396 11.7068 24.5628 11.9154 24.409 12.0618C24.2626 12.2009 24.0504 12.2705 23.7722 12.2705H19.3141Z" fill="#1F6EAC"/>
<path d="M18.349 23.548C18.1232 23.548 17.9338 23.497 17.7809 23.395C17.6279 23.2858 17.5332 23.1401 17.4968 22.958C17.4604 22.7686 17.4932 22.5574 17.5951 22.3243L20.3157 16.4679C20.4468 16.1838 20.6071 15.9762 20.7965 15.8451C20.9932 15.714 21.2153 15.6484 21.463 15.6484C21.7106 15.6484 21.9255 15.714 22.1076 15.8451C22.297 15.9762 22.4609 16.1838 22.5993 16.4679L25.3199 22.3243C25.4364 22.5574 25.4765 22.7686 25.4401 22.958C25.4109 23.1474 25.3199 23.2931 25.1669 23.395C25.0212 23.497 24.8391 23.548 24.6206 23.548C24.3293 23.548 24.1035 23.4825 23.9432 23.3513C23.7902 23.2202 23.6518 23.009 23.528 22.7176L22.938 21.33L23.7028 21.8872H19.2013L19.977 21.33L19.387 22.7176C19.2559 23.009 19.1211 23.2202 18.9827 23.3513C18.8444 23.4825 18.6331 23.548 18.349 23.548ZM21.4411 17.8446L20.1737 20.8711L19.8678 20.3467H23.0473L22.7413 20.8711L21.463 17.8446H21.4411Z" fill="#1F6EAC"/>
</svg>
