<svg width="25" height="24" viewBox="0 0 25 24" fill="none" xmlns="http://www.w3.org/2000/svg">
<path d="M19.5 10V4M16.5 7H22.5M16.5 21V19.8C16.5 18.1198 16.5 17.2798 16.173 16.638C15.8854 16.0735 15.4265 15.6146 14.862 15.327C14.2202 15 13.3802 15 11.7 15H7.3C5.61984 15 4.77976 15 4.13803 15.327C3.57354 15.6146 3.1146 16.0735 2.82698 16.638C2.5 17.2798 2.5 18.1198 2.5 19.8V21M13 7.5C13 9.433 11.433 11 9.5 11C7.567 11 6 9.433 6 7.5C6 5.567 7.567 4 9.5 4C11.433 4 13 5.567 13 7.5Z" stroke="#589DC0" stroke-width="2" stroke-linecap="round" stroke-linejoin="round"/>
</svg>
