<svg width="21" height="20" viewBox="0 0 21 20" fill="none" xmlns="http://www.w3.org/2000/svg">
<path d="M0.147095 18.4119C0.147095 18.9642 0.59481 19.4119 1.14709 19.4119H3.9118V8.11779H1.14709C0.594809 8.11779 0.147095 8.56551 0.147095 9.11779V18.4119ZM20.853 9.05897C20.853 8.02367 20.0059 7.17661 18.9706 7.17661H13.0318L13.9259 2.87544L13.9542 2.57426C13.9542 2.18838 13.7942 1.83073 13.54 1.57661L12.5424 0.588379L6.34945 6.79073C6.00121 7.12956 5.79415 7.60014 5.79415 8.11779V17.5296C5.79415 18.5648 6.64121 19.4119 7.67651 19.4119H16.1471C16.9283 19.4119 17.5965 18.9413 17.8789 18.2637L20.7212 11.6284C20.8059 11.4119 20.853 11.186 20.853 10.9413V9.05897Z" fill="#589DC0"/>
</svg>
