<svg width="17" height="16" viewBox="0 0 17 16" fill="none" xmlns="http://www.w3.org/2000/svg">
<path d="M8.06319 0.723999C8.27996 0.0568433 9.22381 0.0568444 9.44058 0.724L10.8654 5.10918C10.9624 5.40754 11.2404 5.60955 11.5541 5.60955H16.165C16.8665 5.60955 17.1581 6.5072 16.5906 6.91953L12.8603 9.62972C12.6065 9.81412 12.5003 10.141 12.5973 10.4393L14.0221 14.8245C14.2389 15.4917 13.4753 16.0464 12.9078 15.6341L9.17752 12.9239C8.92372 12.7395 8.58005 12.7395 8.32625 12.9239L4.59599 15.6341C4.02847 16.0464 3.26488 15.4917 3.48166 14.8245L4.90649 10.4393C5.00343 10.141 4.89723 9.81412 4.64343 9.62972L0.913169 6.91953C0.345653 6.5072 0.637318 5.60955 1.33881 5.60955H5.94966C6.26338 5.60955 6.54142 5.40754 6.63836 5.10918L8.06319 0.723999Z" fill="#F1BA09"/>
</svg>
