<svg width="17" height="18" viewBox="0 0 17 18" fill="none" xmlns="http://www.w3.org/2000/svg">
<path d="M1.33301 9.83333H14.3222C14.7076 9.83333 14.9003 9.83333 15.0104 9.75252C15.1063 9.68205 15.1676 9.57389 15.1786 9.45534C15.1913 9.31938 15.0921 9.15413 14.8939 8.82367L13.2055 6.00966C13.1306 5.88496 13.0932 5.8226 13.0786 5.75604C13.0657 5.69716 13.0657 5.63618 13.0786 5.5773C13.0932 5.51073 13.1306 5.44838 13.2055 5.32367L14.8939 2.50966C15.0922 2.17919 15.1913 2.01395 15.1786 1.878C15.1676 1.75945 15.1063 1.65129 15.0104 1.58082C14.9003 1.5 14.7076 1.5 14.3222 1.5H1.33301L1.33301 16.5" stroke="#808080" stroke-width="2" stroke-linecap="round" stroke-linejoin="round"/>
</svg>
