<svg width="24" height="22" viewBox="0 0 24 22" fill="none" xmlns="http://www.w3.org/2000/svg">
<path fill-rule="evenodd" clip-rule="evenodd" d="M6.39344 2.63698C6.86238 1.78471 7.37252 1.21497 8.12952 0.913669C9.51669 0.362092 14.4848 0.362092 15.8709 0.913779C16.6275 1.21491 17.1378 1.78455 17.6071 2.63666L18.1347 3.64834C18.1468 3.66838 18.1579 3.68601 18.1678 3.70118L18.2126 3.76243C18.453 4.02435 18.8553 4.18258 19.1208 4.18258C21.6315 4.18258 23.6673 6.21794 23.6673 8.72792V15.4887C23.6673 18.6903 21.0706 21.2871 17.869 21.2871H6.13232C2.92994 21.2871 0.333984 18.6907 0.333984 15.4887V8.72792C0.333984 6.21794 2.36979 4.18258 4.88048 4.18258C5.14506 4.18258 5.54791 4.02412 5.78867 3.76243C5.79348 3.75719 5.79975 3.74939 5.80734 3.73906L5.86734 3.64703L6.39344 2.63698ZM16.0742 3.48093C15.7826 2.95145 15.5191 2.65727 15.2237 2.53972L15.0845 2.49344C13.8839 2.15408 9.70746 2.1695 8.7764 2.53972C8.48121 2.65721 8.21795 2.95123 7.92667 3.48061L7.47767 4.34872L7.36716 4.54872C7.2749 4.70217 7.18263 4.8317 7.07726 4.94651C6.48638 5.58876 5.61228 5.93258 4.88048 5.93258L4.68904 5.93903C3.23403 6.03742 2.08398 7.24884 2.08398 8.72792V15.4888C2.08398 17.7243 3.8965 19.5371 6.13232 19.5371H17.869C20.1041 19.5371 21.9173 17.7238 21.9173 15.4888V8.72792C21.9173 7.18453 20.6651 5.93258 19.1208 5.93258L18.9177 5.92409C18.2311 5.86759 17.4598 5.53028 16.9233 4.94573C16.8194 4.83245 16.7276 4.70384 16.6359 4.55168C16.6227 4.52985 16.6064 4.50112 16.5876 4.46712L16.4521 4.21308L16.0742 3.48093Z" fill="#A6B0C3"/>
<path d="M18.4223 6.91602C19.0666 6.91602 19.589 7.43835 19.589 8.08268C19.589 8.68099 19.1386 9.17411 18.5583 9.2415L18.4223 9.24935C17.7675 9.24935 17.2451 8.72702 17.2451 8.08268C17.2451 7.48437 17.6955 6.99126 18.2757 6.92386L18.4223 6.91602Z" fill="#A6B0C3"/>
<path fill-rule="evenodd" clip-rule="evenodd" d="M7.41602 12.3163C7.41602 9.78434 9.46793 7.73242 11.9998 7.73242C14.5318 7.73242 16.5837 9.78434 16.5837 12.3163C16.5837 14.8482 14.5318 16.9001 11.9998 16.9001C9.46793 16.9001 7.41602 14.8482 7.41602 12.3163ZM14.8337 12.3163C14.8337 10.7508 13.5653 9.48242 11.9998 9.48242C10.4344 9.48242 9.16602 10.7508 9.16602 12.3163C9.16602 13.8817 10.4344 15.1501 11.9998 15.1501C13.5653 15.1501 14.8337 13.8817 14.8337 12.3163Z" fill="#A6B0C3"/>
</svg>
