<svg width="20" height="20" viewBox="0 0 20 20" fill="none" xmlns="http://www.w3.org/2000/svg">
<rect x="1" y="1" width="18" height="18" rx="9" fill="#589DC0"/>
<path d="M10.004 14C10.3972 14 10.654 13.7146 10.654 13.3365V10.6287H13.3099C13.7031 10.6287 14 10.3819 14 10.0039C14 9.62584 13.7031 9.37898 13.3099 9.37898H10.654V6.66345C10.654 6.28544 10.3972 6 10.004 6C9.61083 6 9.35406 6.28544 9.35406 6.66345V9.37898H6.69007C6.29689 9.37898 6 9.62584 6 10.0039C6 10.3819 6.29689 10.6287 6.69007 10.6287H9.35406V13.3365C9.35406 13.7146 9.61083 14 10.004 14Z" fill="white"/>
<rect x="1" y="1" width="18" height="18" rx="9" stroke="white" stroke-width="2"/>
</svg>
