<svg width="21" height="20" viewBox="0 0 21 20" fill="none" xmlns="http://www.w3.org/2000/svg">
<path d="M0.146973 18.4114C0.146973 18.9637 0.594688 19.4114 1.14697 19.4114H3.91168V8.1173H1.14697C0.594687 8.1173 0.146973 8.56502 0.146973 9.1173V18.4114ZM20.8529 9.05848C20.8529 8.02318 20.0058 7.17613 18.9705 7.17613H13.0317L13.9258 2.87495L13.954 2.57377C13.954 2.18789 13.794 1.83024 13.5399 1.57613L12.5423 0.587891L6.34933 6.79024C6.00109 7.12907 5.79403 7.59966 5.79403 8.1173V17.5291C5.79403 18.5644 6.64109 19.4114 7.67638 19.4114H16.147C16.9281 19.4114 17.5964 18.9408 17.8787 18.2632L20.7211 11.6279C20.8058 11.4114 20.8529 11.1855 20.8529 10.9408V9.05848Z" fill="#589DC0"/>
</svg>
