<svg width="41" height="41" viewBox="0 0 41 41" fill="none" xmlns="http://www.w3.org/2000/svg">
<g filter="url(#filter0_d_932_110555)">
<circle cx="20.2799" cy="18.0352" r="16" fill="white"/>
</g>
<path fill-rule="evenodd" clip-rule="evenodd" d="M9.61335 18.0339C9.61335 12.1414 14.3875 7.36719 20.28 7.36719C26.1725 7.36719 30.9467 12.1414 30.9467 18.0339C30.9467 23.9263 26.1725 28.7005 20.28 28.7005C14.3875 28.7005 9.61335 23.9263 9.61335 18.0339ZM20.8349 23.9913L25.5919 19.0794C26.9768 17.6515 26.8951 15.2859 25.3553 13.9698C24.0091 12.8214 22.0048 13.0278 20.7704 14.3009L20.2844 14.7999L19.7984 14.3009C18.5639 13.0278 16.5596 12.8214 15.2134 13.9698C13.6693 15.2859 13.5876 17.6515 14.9682 19.0794L19.7209 23.9913C20.0306 24.3095 20.5295 24.3095 20.8349 23.9913Z" fill="#FF5757"/>
<defs>
<filter id="filter0_d_932_110555" x="0.279938" y="0.0351562" width="40" height="40" filterUnits="userSpaceOnUse" color-interpolation-filters="sRGB">
<feFlood flood-opacity="0" result="BackgroundImageFix"/>
<feColorMatrix in="SourceAlpha" type="matrix" values="0 0 0 0 0 0 0 0 0 0 0 0 0 0 0 0 0 0 127 0" result="hardAlpha"/>
<feOffset dy="2"/>
<feGaussianBlur stdDeviation="2"/>
<feColorMatrix type="matrix" values="0 0 0 0 0.837183 0 0 0 0 0.837183 0 0 0 0 0.837183 0 0 0 0.5 0"/>
<feBlend mode="normal" in2="BackgroundImageFix" result="effect1_dropShadow_932_110555"/>
<feBlend mode="normal" in="SourceGraphic" in2="effect1_dropShadow_932_110555" result="shape"/>
</filter>
</defs>
</svg>
