<svg width="13" height="13" viewBox="0 0 13 13" fill="none" xmlns="http://www.w3.org/2000/svg">
<mask id="path-1-inside-1_6906_97702" fill="white">
<path fill-rule="evenodd" clip-rule="evenodd" d="M5.22299 0.251456C5.82682 -0.0838213 6.56091 -0.0838185 7.16475 0.251463L8.17604 0.812992C8.30927 0.88697 8.45053 0.945479 8.59705 0.987378L9.70927 1.30543C10.3733 1.49533 10.8924 2.01442 11.0823 2.67849L11.4003 3.79064C11.4422 3.93716 11.5007 4.07842 11.5747 4.21165L12.1363 5.223C12.4715 5.82682 12.4715 6.5609 12.1363 7.16472L11.5747 8.17608C11.5007 8.30932 11.4422 8.45057 11.4003 8.59708L11.0823 9.70925C10.8924 10.3733 10.3733 10.8924 9.70929 11.0823L8.59703 11.4004C8.45052 11.4423 8.30928 11.5008 8.17606 11.5748L7.16474 12.1363C6.56091 12.4716 5.82683 12.4716 5.22299 12.1363L4.21163 11.5747C4.07841 11.5008 3.93718 11.4423 3.79068 11.4004L2.67844 11.0823C2.0144 10.8924 1.49534 10.3733 1.30544 9.70928L0.987382 8.59707C0.945485 8.45056 0.886981 8.30932 0.813009 8.1761L0.251455 7.16473C-0.0838188 6.5609 -0.0838185 5.82682 0.251457 5.22299L0.813007 4.21164C0.88698 4.07841 0.945485 3.93717 0.987382 3.79066L1.30544 2.67845C1.49534 2.01441 2.01441 1.49533 2.67846 1.30543L3.79067 0.987375C3.93718 0.945478 4.07842 0.886974 4.21164 0.813001L5.22299 0.251456Z"/>
</mask>
<path fill-rule="evenodd" clip-rule="evenodd" d="M5.22299 0.251456C5.82682 -0.0838213 6.56091 -0.0838185 7.16475 0.251463L8.17604 0.812992C8.30927 0.88697 8.45053 0.945479 8.59705 0.987378L9.70927 1.30543C10.3733 1.49533 10.8924 2.01442 11.0823 2.67849L11.4003 3.79064C11.4422 3.93716 11.5007 4.07842 11.5747 4.21165L12.1363 5.223C12.4715 5.82682 12.4715 6.5609 12.1363 7.16472L11.5747 8.17608C11.5007 8.30932 11.4422 8.45057 11.4003 8.59708L11.0823 9.70925C10.8924 10.3733 10.3733 10.8924 9.70929 11.0823L8.59703 11.4004C8.45052 11.4423 8.30928 11.5008 8.17606 11.5748L7.16474 12.1363C6.56091 12.4716 5.82683 12.4716 5.22299 12.1363L4.21163 11.5747C4.07841 11.5008 3.93718 11.4423 3.79068 11.4004L2.67844 11.0823C2.0144 10.8924 1.49534 10.3733 1.30544 9.70928L0.987382 8.59707C0.945485 8.45056 0.886981 8.30932 0.813009 8.1761L0.251455 7.16473C-0.0838188 6.5609 -0.0838185 5.82682 0.251457 5.22299L0.813007 4.21164C0.88698 4.07841 0.945485 3.93717 0.987382 3.79066L1.30544 2.67845C1.49534 2.01441 2.01441 1.49533 2.67846 1.30543L3.79067 0.987375C3.93718 0.945478 4.07842 0.886974 4.21164 0.813001L5.22299 0.251456Z" fill="#589EC0"/>
<path d="M4.21164 0.813001L3.96892 0.375865L4.21164 0.813001ZM0.251457 5.22299L-0.185679 4.98027L0.251457 5.22299ZM0.813009 8.1761L0.375873 8.41881L0.813009 8.1761ZM2.67844 11.0823L2.81592 10.6016L2.67844 11.0823ZM4.21163 11.5747L3.96891 12.0119L4.21163 11.5747ZM7.16474 12.1363L6.92202 11.6992L7.16474 12.1363ZM5.22299 12.1363L4.98028 12.5734L5.22299 12.1363ZM8.59703 11.4004L8.45955 10.9196L8.59703 11.4004ZM8.17606 11.5748L8.41878 12.0119L8.17606 11.5748ZM11.0823 9.70925L11.563 9.84671L11.0823 9.70925ZM9.70929 11.0823L9.57182 10.6016L9.70929 11.0823ZM11.5747 8.17608L12.0119 8.4188L11.5747 8.17608ZM11.4003 8.59708L10.9196 8.45962L11.4003 8.59708ZM12.1363 5.223L11.6991 5.46571L12.1363 5.223ZM11.4003 3.79064L11.8811 3.65318L11.4003 3.79064ZM11.5747 4.21165L11.1376 4.45436L11.5747 4.21165ZM9.70927 1.30543L9.5718 1.78616L9.70927 1.30543ZM11.0823 2.67849L11.5631 2.54103L11.0823 2.67849ZM8.41876 0.375858L7.40747 -0.185671L6.92202 0.688598L7.93332 1.25013L8.41876 0.375858ZM9.84674 0.824699L8.73452 0.506647L8.45958 1.46811L9.5718 1.78616L9.84674 0.824699ZM11.8811 3.65318L11.5631 2.54103L10.6016 2.81596L10.9196 3.92811L11.8811 3.65318ZM12.5734 4.98028L12.0119 3.96893L11.1376 4.45436L11.6991 5.46571L12.5734 4.98028ZM12.0119 8.4188L12.5734 7.40744L11.6991 6.92201L11.1376 7.93337L12.0119 8.4188ZM11.563 9.84671L11.8811 8.73455L10.9196 8.45962L10.6016 9.57178L11.563 9.84671ZM8.73451 11.8811L9.84677 11.563L9.57182 10.6016L8.45955 10.9196L8.73451 11.8811ZM7.40746 12.5734L8.41878 12.0119L7.93334 11.1376L6.92202 11.6992L7.40746 12.5734ZM3.96891 12.0119L4.98028 12.5734L5.46571 11.6992L4.45435 11.1376L3.96891 12.0119ZM2.54096 11.563L3.6532 11.8811L3.92816 10.9197L2.81592 10.6016L2.54096 11.563ZM0.506652 8.73454L0.824712 9.84676L1.78617 9.57181L1.46811 8.4596L0.506652 8.73454ZM-0.185681 7.40745L0.375873 8.41881L1.25015 7.93338L0.688591 6.92202L-0.185681 7.40745ZM0.375871 3.96892L-0.185679 4.98027L0.688592 5.46571L1.25014 4.45436L0.375871 3.96892ZM0.824708 2.54098L0.506653 3.65318L1.46811 3.92813L1.78617 2.81593L0.824708 2.54098ZM3.65319 0.506646L2.54099 0.824701L2.81594 1.78616L3.92814 1.46811L3.65319 0.506646ZM4.98027 -0.18568L3.96892 0.375865L4.45436 1.25014L5.4657 0.688592L4.98027 -0.18568ZM3.92814 1.46811C4.11128 1.41573 4.28783 1.3426 4.45436 1.25014L3.96892 0.375865C3.86901 0.431344 3.76307 0.475223 3.65319 0.506646L3.92814 1.46811ZM1.78617 2.81593C1.92859 2.31789 2.3179 1.92858 2.81594 1.78616L2.54099 0.824701C1.71093 1.06207 1.06208 1.71092 0.824708 2.54098L1.78617 2.81593ZM1.25014 4.45436C1.34261 4.28782 1.41574 4.11127 1.46811 3.92813L0.506653 3.65318C0.47523 3.76307 0.431351 3.869 0.375871 3.96892L1.25014 4.45436ZM0.688591 6.92202C0.437136 6.46914 0.437136 5.91858 0.688592 5.46571L-0.185679 4.98027C-0.604773 5.73506 -0.604773 6.65266 -0.185681 7.40745L0.688591 6.92202ZM1.46811 8.4596C1.41574 8.27646 1.34261 8.09991 1.25015 7.93338L0.375873 8.41881C0.431352 8.51873 0.475229 8.62466 0.506652 8.73454L1.46811 8.4596ZM2.81592 10.6016C2.31789 10.4591 1.92859 10.0698 1.78617 9.57181L0.824712 9.84676C1.06208 10.6768 1.71091 11.3256 2.54096 11.563L2.81592 10.6016ZM4.45435 11.1376C4.28783 11.0451 4.11129 10.972 3.92816 10.9197L3.6532 11.8811C3.76308 11.9125 3.869 11.9564 3.96891 12.0119L4.45435 11.1376ZM6.92202 11.6992C6.46915 11.9506 5.91858 11.9506 5.46571 11.6992L4.98028 12.5734C5.73507 12.9925 6.65267 12.9925 7.40746 12.5734L6.92202 11.6992ZM8.45955 10.9196C8.27642 10.972 8.09987 11.0452 7.93334 11.1376L8.41878 12.0119C8.51869 11.9564 8.62462 11.9125 8.73451 11.8811L8.45955 10.9196ZM10.6016 9.57178C10.4592 10.0698 10.0699 10.4591 9.57182 10.6016L9.84677 11.563C10.6768 11.3257 11.3257 10.6768 11.563 9.84671L10.6016 9.57178ZM11.1376 7.93337C11.0451 8.09991 10.972 8.27647 10.9196 8.45962L11.8811 8.73455C11.9125 8.62466 11.9564 8.51872 12.0119 8.4188L11.1376 7.93337ZM11.6991 5.46571C11.9506 5.91858 11.9506 6.46914 11.6991 6.92201L12.5734 7.40744C12.9925 6.65266 12.9925 5.73506 12.5734 4.98028L11.6991 5.46571ZM10.9196 3.92811C10.972 4.11126 11.0451 4.28782 11.1376 4.45436L12.0119 3.96893C11.9564 3.86901 11.9125 3.76307 11.8811 3.65318L10.9196 3.92811ZM9.5718 1.78616C10.0699 1.92858 10.4592 2.3179 10.6016 2.81596L11.5631 2.54103C11.3257 1.71094 10.6768 1.06207 9.84674 0.824699L9.5718 1.78616ZM7.40747 -0.185671C6.65268 -0.604773 5.73506 -0.604777 4.98027 -0.18568L5.4657 0.688592C5.91858 0.437134 6.46915 0.437136 6.92202 0.688598L7.40747 -0.185671ZM7.93332 1.25013C8.09986 1.3426 8.27643 1.41573 8.45958 1.46811L8.73452 0.506647C8.62463 0.475223 8.51869 0.431342 8.41876 0.375858L7.93332 1.25013Z" fill="white" mask="url(#path-1-inside-1_6906_97702)"/>
<mask id="path-3-inside-2_6906_97702" fill="white">
<path d="M7.93519 4.83944C8.02159 4.75674 8.13657 4.71102 8.25586 4.71193C8.37516 4.71283 8.48944 4.7603 8.57458 4.84431C8.65973 4.92831 8.70909 5.04229 8.71224 5.16219C8.71539 5.28209 8.6721 5.39853 8.59148 5.48694L6.14419 8.5641C6.1021 8.60967 6.05131 8.64624 5.99485 8.67162C5.93839 8.69701 5.87742 8.71068 5.81558 8.71183C5.75374 8.71299 5.69231 8.70159 5.63495 8.67832C5.57759 8.65506 5.52549 8.6204 5.48176 8.57643L3.85882 6.94474C3.81362 6.90239 3.77737 6.85133 3.75223 6.7946C3.72708 6.73787 3.71356 6.67663 3.71247 6.61453C3.71138 6.55243 3.72275 6.49074 3.74588 6.43315C3.76902 6.37556 3.80346 6.32325 3.84714 6.27933C3.89082 6.23541 3.94285 6.20079 4.00014 6.17753C4.05742 6.15427 4.11877 6.14284 4.18054 6.14394C4.2423 6.14504 4.30322 6.15863 4.35965 6.18391C4.41607 6.20918 4.46686 6.24563 4.50897 6.29107L5.79335 7.58175L7.92354 4.85301C7.92737 4.84826 7.93085 4.84373 7.93519 4.83944Z"/>
</mask>
<path d="M7.93519 4.83944C8.02159 4.75674 8.13657 4.71102 8.25586 4.71193C8.37516 4.71283 8.48944 4.7603 8.57458 4.84431C8.65973 4.92831 8.70909 5.04229 8.71224 5.16219C8.71539 5.28209 8.6721 5.39853 8.59148 5.48694L6.14419 8.5641C6.1021 8.60967 6.05131 8.64624 5.99485 8.67162C5.93839 8.69701 5.87742 8.71068 5.81558 8.71183C5.75374 8.71299 5.69231 8.70159 5.63495 8.67832C5.57759 8.65506 5.52549 8.6204 5.48176 8.57643L3.85882 6.94474C3.81362 6.90239 3.77737 6.85133 3.75223 6.7946C3.72708 6.73787 3.71356 6.67663 3.71247 6.61453C3.71138 6.55243 3.72275 6.49074 3.74588 6.43315C3.76902 6.37556 3.80346 6.32325 3.84714 6.27933C3.89082 6.23541 3.94285 6.20079 4.00014 6.17753C4.05742 6.15427 4.11877 6.14284 4.18054 6.14394C4.2423 6.14504 4.30322 6.15863 4.35965 6.18391C4.41607 6.20918 4.46686 6.24563 4.50897 6.29107L5.79335 7.58175L7.92354 4.85301C7.92737 4.84826 7.93085 4.84373 7.93519 4.83944Z" fill="white"/>
<path d="M7.93519 4.83944L4.47786 1.2274L4.44816 1.25583L4.41893 1.28474L7.93519 4.83944ZM8.59148 5.48694L4.89674 2.11814L4.78315 2.24272L4.6782 2.37467L8.59148 5.48694ZM6.14419 8.5641L9.81753 11.9562L9.94266 11.8207L10.0575 11.6764L6.14419 8.5641ZM5.48176 8.57643L9.02702 5.05065L9.02679 5.05041L5.48176 8.57643ZM3.85882 6.94474L7.40384 3.41872L7.34162 3.35616L7.27723 3.29584L3.85882 6.94474ZM4.50897 6.29107L0.841793 9.68986L0.902155 9.75499L0.964791 9.81793L4.50897 6.29107ZM5.79335 7.58175L2.24916 11.1086L6.247 15.1261L9.73461 10.6585L5.79335 7.58175ZM7.92354 4.85301L4.03403 1.71107L4.00788 1.74345L3.98227 1.77626L7.92354 4.85301ZM11.3925 8.45148C10.5415 9.26605 9.40361 9.7208 8.21783 9.71178L8.2939 -0.287928C6.86953 -0.298764 5.50167 0.247436 4.47786 1.2274L11.3925 8.45148ZM8.21783 9.71178C7.03207 9.70276 5.90138 9.23077 5.06298 8.40361L12.0862 1.285C11.0775 0.289827 9.71825 -0.277092 8.2939 -0.287928L8.21783 9.71178ZM5.06298 8.40361C4.22542 7.57727 3.74468 6.46159 3.71397 5.29363L13.7105 5.03074C13.6735 3.62299 13.094 2.27936 12.0862 1.285L5.06298 8.40361ZM3.71397 5.29363C3.68326 4.12574 4.10462 2.98689 4.89674 2.11814L12.2862 8.85574C13.2396 7.81016 13.7475 6.43843 13.7105 5.03074L3.71397 5.29363ZM4.6782 2.37467L2.23091 5.45182L10.0575 11.6764L12.5048 8.59921L4.6782 2.37467ZM2.47085 5.17196C2.88468 4.72382 3.38564 4.36261 3.94458 4.11132L8.04513 13.2319C8.71699 12.9299 9.31953 12.4955 9.81753 11.9562L2.47085 5.17196ZM3.94458 4.11132C4.50359 3.85999 5.10836 3.72414 5.72251 3.7127L5.90866 13.711C6.64648 13.6972 7.37319 13.534 8.04513 13.2319L3.94458 4.11132ZM5.72251 3.7127C6.33666 3.70127 6.94618 3.81452 7.51434 4.04497L3.75557 13.3117C4.43844 13.5887 5.17082 13.7247 5.90866 13.711L5.72251 3.7127ZM7.51434 4.04497C8.08245 4.27541 8.59668 4.61793 9.02702 5.05065L1.9365 12.1022C2.4543 12.6229 3.07273 13.0347 3.75557 13.3117L7.51434 4.04497ZM9.02679 5.05041L7.40384 3.41872L0.313789 10.4708L1.93673 12.1024L9.02679 5.05041ZM7.27723 3.29584C7.7222 3.7127 8.07754 4.21391 8.32343 4.76874L-0.818977 8.82046C-0.5228 9.48876 -0.0949578 10.0921 0.440404 10.5936L7.27723 3.29584ZM8.32343 4.76874C8.56929 5.32351 8.70108 5.92134 8.7117 6.52679L-1.28676 6.70226C-1.27395 7.43191 -1.11512 8.15223 -0.818977 8.82046L8.32343 4.76874ZM8.7117 6.52679C8.72233 7.13224 8.6116 7.73422 8.38546 8.2971L-0.893695 4.5692C-1.16611 5.24726 -1.29956 5.97261 -1.28676 6.70226L8.7117 6.52679ZM8.38546 8.2971C8.1593 8.86005 7.82195 9.37324 7.39217 9.80535L0.302112 2.75332C-0.215039 3.27325 -0.621258 3.89107 -0.893695 4.5692L8.38546 8.2971ZM7.39217 9.80535C6.96232 10.2375 6.44877 10.5797 5.8814 10.8101L2.11887 1.54494C1.43694 1.82187 0.819324 2.23331 0.302112 2.75332L7.39217 9.80535ZM5.8814 10.8101C5.31399 11.0405 4.70528 11.154 4.09186 11.1432L4.26922 1.14473C3.53226 1.13165 2.80084 1.268 2.11887 1.54494L5.8814 10.8101ZM4.09186 11.1432C3.47844 11.1323 2.87424 10.9973 2.31553 10.747L6.40376 1.62084C5.73219 1.32 5.00617 1.1578 4.26922 1.14473L4.09186 11.1432ZM2.31553 10.747C1.75687 10.4967 1.25594 10.1367 0.841793 9.68986L8.17616 2.89228C7.67778 2.35455 7.07528 1.92166 6.40376 1.62084L2.31553 10.747ZM0.964791 9.81793L2.24916 11.1086L9.33753 4.05489L8.05316 2.76421L0.964791 9.81793ZM9.73461 10.6585L11.8648 7.92976L3.98227 1.77626L1.85208 4.505L9.73461 10.6585ZM11.813 7.99494C11.819 7.98759 11.8238 7.98161 11.8247 7.98052C11.827 7.97764 11.8237 7.98169 11.8208 7.98534C11.8144 7.99331 11.7929 8.01994 11.7645 8.05385C11.7063 8.1235 11.5985 8.24864 11.4515 8.39414L4.41893 1.28474C4.2675 1.43453 4.15584 1.56409 4.09381 1.63825C4.06355 1.67443 4.04024 1.70335 4.03196 1.71364C4.02808 1.71845 4.0239 1.72366 4.02527 1.72196C4.02537 1.72184 4.02638 1.72057 4.02776 1.71886C4.02918 1.71709 4.03136 1.71439 4.03403 1.71107L11.813 7.99494Z" fill="white" mask="url(#path-3-inside-2_6906_97702)"/>
</svg>
