<svg width="18" height="18" viewBox="0 0 18 18" fill="none" xmlns="http://www.w3.org/2000/svg">
<path fill-rule="evenodd" clip-rule="evenodd" d="M6.54884 11.4512C6.44303 11.3454 6.29953 11.286 6.14991 11.286C6.00028 11.286 5.85679 11.3454 5.75097 11.4512L1.12853 16.0736V12.9498C1.12853 12.8002 1.06908 12.6567 0.963258 12.5508C0.857438 12.445 0.713915 12.3856 0.564263 12.3856C0.414611 12.3856 0.271089 12.445 0.165269 12.5508C0.059449 12.6567 0 12.8002 0 12.9498V17.4357C0 17.5854 0.059449 17.7289 0.165269 17.8347C0.271089 17.9405 0.414611 18 0.564263 18H5.05016C5.19981 18 5.34333 17.9405 5.44915 17.8347C5.55497 17.7289 5.61442 17.5854 5.61442 17.4357C5.61442 17.2861 5.55497 17.1426 5.44915 17.0367C5.34333 16.9309 5.19981 16.8715 5.05016 16.8715H1.92639L6.54884 12.249C6.65462 12.1432 6.71405 11.9997 6.71405 11.8501C6.71405 11.7005 6.65462 11.557 6.54884 11.4512ZM11.4512 11.4512C11.557 11.3454 11.7005 11.286 11.8501 11.286C11.9997 11.286 12.1432 11.3454 12.249 11.4512L16.8715 16.0736V12.9498C16.8715 12.8002 16.9309 12.6567 17.0367 12.5508C17.1426 12.445 17.2861 12.3856 17.4357 12.3856C17.5854 12.3856 17.7289 12.445 17.8347 12.5508C17.9405 12.6567 18 12.8002 18 12.9498V17.4357C18 17.5854 17.9405 17.7289 17.8347 17.8347C17.7289 17.9405 17.5854 18 17.4357 18H12.9498C12.8002 18 12.6567 17.9405 12.5508 17.8347C12.445 17.7289 12.3856 17.5854 12.3856 17.4357C12.3856 17.2861 12.445 17.1426 12.5508 17.0367C12.6567 16.9309 12.8002 16.8715 12.9498 16.8715H16.0736L11.4512 12.249C11.3454 12.1432 11.286 11.9997 11.286 11.8501C11.286 11.7005 11.3454 11.557 11.4512 11.4512ZM11.4512 6.54884C11.557 6.65462 11.7005 6.71405 11.8501 6.71405C11.9997 6.71405 12.1432 6.65462 12.249 6.54884L16.8715 1.92639V5.05016C16.8715 5.19981 16.9309 5.34333 17.0367 5.44915C17.1426 5.55497 17.2861 5.61442 17.4357 5.61442C17.5854 5.61442 17.7289 5.55497 17.8347 5.44915C17.9405 5.34333 18 5.19981 18 5.05016V0.564263C18 0.414611 17.9405 0.271089 17.8347 0.165269C17.7289 0.059449 17.5854 0 17.4357 0H12.9498C12.8002 2.22999e-09 12.6567 0.059449 12.5508 0.165269C12.445 0.271089 12.3856 0.414611 12.3856 0.564263C12.3856 0.713915 12.445 0.857438 12.5508 0.963258C12.6567 1.06908 12.8002 1.12853 12.9498 1.12853H16.0736L11.4512 5.75097C11.3454 5.85679 11.286 6.00028 11.286 6.14991C11.286 6.29953 11.3454 6.44303 11.4512 6.54884ZM6.54884 6.54884C6.44303 6.65462 6.29953 6.71405 6.14991 6.71405C6.00028 6.71405 5.85679 6.65462 5.75097 6.54884L1.12853 1.92639V5.05016C1.12853 5.19981 1.06908 5.34333 0.963258 5.44915C0.857438 5.55497 0.713915 5.61442 0.564263 5.61442C0.414611 5.61442 0.271089 5.55497 0.165269 5.44915C0.059449 5.34333 0 5.19981 0 5.05016V0.564263C0 0.414611 0.059449 0.271089 0.165269 0.165269C0.271089 0.059449 0.414611 0 0.564263 0H5.05016C5.19981 2.22999e-09 5.34333 0.059449 5.44915 0.165269C5.55497 0.271089 5.61442 0.414611 5.61442 0.564263C5.61442 0.713915 5.55497 0.857438 5.44915 0.963258C5.34333 1.06908 5.19981 1.12853 5.05016 1.12853H1.92639L6.54884 5.75097C6.65462 5.85679 6.71405 6.00028 6.71405 6.14991C6.71405 6.29953 6.65462 6.44303 6.54884 6.54884Z" fill="#999999"/>
</svg>
