<svg width="23" height="19" viewBox="0 0 23 19" fill="none" xmlns="http://www.w3.org/2000/svg">
<path d="M18.5 7V1M15.5 4H21.5M15.5 18V16.8C15.5 15.1198 15.5 14.2798 15.173 13.638C14.8854 13.0735 14.4265 12.6146 13.862 12.327C13.2202 12 12.3802 12 10.7 12H6.3C4.61984 12 3.77976 12 3.13803 12.327C2.57354 12.6146 2.1146 13.0735 1.82698 13.638C1.5 14.2798 1.5 15.1198 1.5 16.8V18M12 4.5C12 6.433 10.433 8 8.5 8C6.567 8 5 6.433 5 4.5C5 2.567 6.567 1 8.5 1C10.433 1 12 2.567 12 4.5Z" stroke="#589DC0" stroke-width="2" stroke-linecap="round" stroke-linejoin="round"/>
</svg>
