<svg width="22" height="22" viewBox="0 0 22 22" fill="none" xmlns="http://www.w3.org/2000/svg">
<path fill-rule="evenodd" clip-rule="evenodd" d="M11.001 0.751953C11.6085 0.751953 12.101 1.24444 12.101 1.85195V2.54972C13.443 2.77121 14.6949 3.39479 15.6751 4.35154C16.9201 5.56677 17.6246 7.22072 17.6246 8.95108C17.6246 11.149 18.1069 12.7023 18.6695 13.7739L18.6791 13.7921C19.0415 14.4824 19.3248 15.0219 19.5148 15.4093C19.6099 15.6031 19.6935 15.7826 19.7542 15.9361C19.7843 16.0124 19.8172 16.103 19.8426 16.1983C19.8619 16.2708 19.9068 16.4499 19.8881 16.6655C19.8777 16.7856 19.854 17.0283 19.7261 17.2808C19.593 17.5437 19.4045 17.7056 19.3052 17.7874C19.1318 17.9302 18.9546 17.9934 18.8647 18.0215C18.7611 18.0538 18.6626 18.0722 18.5852 18.0839C18.4309 18.1071 18.2568 18.1183 18.0852 18.125C17.7436 18.1383 17.2692 18.1383 16.6825 18.1383H14.727C14.2948 19.865 12.8689 21.2488 11.001 21.2488C9.13309 21.2488 7.7071 19.865 7.2749 18.1383H5.31948C4.73278 18.1383 4.25836 18.1383 3.91672 18.125C3.74513 18.1183 3.57106 18.1071 3.41671 18.0839C3.33932 18.0722 3.24086 18.0538 3.13722 18.0215C3.04736 17.9934 2.87015 17.9302 2.69679 17.7874C2.59746 17.7056 2.40898 17.5437 2.27582 17.2808C2.14791 17.0283 2.12427 16.7856 2.11384 16.6655C2.09513 16.4499 2.14004 16.2708 2.15936 16.1983C2.18479 16.103 2.21763 16.0124 2.24779 15.9361C2.30849 15.7826 2.39208 15.6031 2.48716 15.4093C2.6772 15.0219 2.96048 14.4823 3.3229 13.792L3.33242 13.7739C3.89501 12.7023 4.37731 11.149 4.37731 8.95108C4.37731 7.22072 5.08179 5.56677 6.32681 4.35154C7.30702 3.39479 8.55894 2.77121 9.90097 2.54972V1.85195C9.90097 1.24444 10.3935 0.751953 11.001 0.751953ZM9.60818 18.1383C9.92582 18.7161 10.4773 19.0488 11.001 19.0488C11.5246 19.0488 12.0761 18.7161 12.3938 18.1383H9.60818ZM5.34675 15.9383C5.0963 15.9383 4.87674 15.9383 4.68465 15.9375C4.8415 15.6324 5.03908 15.256 5.28028 14.7965C6.01771 13.392 6.57731 11.4849 6.57731 8.95108C6.57731 7.82162 7.03673 6.73288 7.86349 5.9259C8.69116 5.11804 9.81926 4.65959 11.001 4.65959C12.1827 4.65959 13.3108 5.11804 14.1384 5.9259C14.9652 6.73288 15.4246 7.82162 15.4246 8.95108C15.4246 11.4849 15.9842 13.392 16.7217 14.7965C16.9629 15.256 17.1604 15.6324 17.3173 15.9375C17.1252 15.9383 16.9056 15.9383 16.6552 15.9383H5.34675Z" fill="#4A5568"/>
</svg>
