<svg width="25" height="25" viewBox="0 0 25 25" fill="none" xmlns="http://www.w3.org/2000/svg">
<path fill-rule="evenodd" clipRule="evenodd" d="M3.80078 12.5008C3.80078 7.70078 7.70078 3.80078 12.5008 3.80078C17.2008 3.80078 21.1008 7.70078 21.1008 12.5008C21.1008 17.2008 17.2008 21.1008 12.5008 21.1008C7.70078 21.1008 3.80078 17.2008 3.80078 12.5008ZM12.5008 2.30078C6.90078 2.30078 2.30078 6.90078 2.30078 12.5008C2.30078 18.0008 6.90078 22.6008 12.5008 22.6008C18.0008 22.6008 22.6008 18.0008 22.6008 12.5008C22.6008 6.90078 18.0008 2.30078 12.5008 2.30078ZM8.60078 12.4008C9.30078 12.4008 9.90078 11.9008 9.90078 11.2008C9.90078 10.5008 9.30078 9.90078 8.60078 9.90078C7.90078 9.90078 7.30078 10.5008 7.30078 11.2008C7.30078 11.9008 7.90078 12.4008 8.60078 12.4008ZM9.00078 15.0008C9.00078 15.9008 9.40078 16.8008 10.0008 17.4008C10.7008 18.1008 11.5008 18.4008 12.4008 18.4008C13.4008 18.4008 14.2008 18.1008 14.9008 17.4008C15.5008 16.8008 15.9008 15.9008 15.9008 15.0008H9.00078ZM17.6008 11.2008C17.6008 11.9008 17.0008 12.4008 16.3008 12.4008C15.6008 12.4008 15.0008 11.9008 15.0008 11.2008C15.0008 10.5008 15.6008 9.90078 16.3008 9.90078C17.0008 9.90078 17.6008 10.5008 17.6008 11.2008Z" fill="#A6B0C3"/>
</svg>
