<svg width="32" height="32" viewBox="0 0 32 32" fill="none" xmlns="http://www.w3.org/2000/svg">
<g filter="url(#filter0_d_1245_91137)">
<circle cx="16" cy="14" r="12" fill="white"/>
</g>
<path fill-rule="evenodd" clip-rule="evenodd" d="M15.8801 11.6001C17.102 9.45315 19.4372 8 22.1233 8H24.165C24.165 11.6219 21.3576 14.597 17.7623 14.9626C17.4178 13.6907 16.7638 12.5438 15.8801 11.6001ZM7.83203 9.99995H9.87373C13.82 9.99995 17.0197 13.1344 17.0197 17.0001V21.5001C17.0197 21.7751 16.79 22.0001 16.5093 22.0001H15.4884C15.2077 22.0001 14.978 21.7751 14.978 21.5001V17.0001C11.0318 17.0001 7.83203 13.8656 7.83203 9.99995Z" fill="#128F63"/>
<defs>
<filter id="filter0_d_1245_91137" x="0" y="0" width="32" height="32" filterUnits="userSpaceOnUse" color-interpolation-filters="sRGB">
<feFlood flood-opacity="0" result="BackgroundImageFix"/>
<feColorMatrix in="SourceAlpha" type="matrix" values="0 0 0 0 0 0 0 0 0 0 0 0 0 0 0 0 0 0 127 0" result="hardAlpha"/>
<feOffset dy="2"/>
<feGaussianBlur stdDeviation="2"/>
<feColorMatrix type="matrix" values="0 0 0 0 0.837183 0 0 0 0 0.837183 0 0 0 0 0.837183 0 0 0 0.5 0"/>
<feBlend mode="normal" in2="BackgroundImageFix" result="effect1_dropShadow_1245_91137"/>
<feBlend mode="normal" in="SourceGraphic" in2="effect1_dropShadow_1245_91137" result="shape"/>
</filter>
</defs>
</svg>
