<svg width="14" height="14" viewBox="0 0 14 14" fill="none" xmlns="http://www.w3.org/2000/svg">
<path fill-rule="evenodd" clip-rule="evenodd" d="M0 7C0 3.13306 3.13306 0 7 0C10.8669 0 14 3.13306 14 7C14 10.8669 10.8669 14 7 14C3.13306 14 0 10.8669 0 7ZM3.65524 4.4004L2.67016 4.54153C2.49516 4.56976 2.41895 4.78427 2.54879 4.91694L3.26573 5.61129L3.09637 6.59637C3.06815 6.77137 3.24597 6.90685 3.40685 6.81936L4.29032 6.35927L5.17097 6.81653C5.33185 6.90403 5.50968 6.76855 5.48145 6.59355L5.3121 5.60847L6.02903 4.91411C6.15887 4.78427 6.08266 4.56976 5.90766 4.54153L4.92258 4.4004L4.48508 3.50847C4.40323 3.34476 4.1746 3.34476 4.09274 3.50847L3.65524 4.4004ZM7 11.9677C5.28952 11.9677 3.20363 10.8867 2.94113 9.33427C2.88468 9.00121 3.20363 8.72742 3.5254 8.82903C4.37782 9.10282 5.64516 9.25806 7 9.25806C8.35484 9.25806 9.62218 9.10282 10.4746 8.82903C10.7992 8.7246 11.1125 9.00121 11.0589 9.33427C10.7964 10.8867 8.71048 11.9677 7 11.9677ZM10.7343 5.60847L11.4512 4.91411C11.581 4.78427 11.5048 4.56976 11.327 4.54435L10.3419 4.40323L9.90444 3.51129C9.82258 3.34758 9.59395 3.34758 9.5121 3.51129L9.0746 4.40323L8.08952 4.54435C7.91452 4.57258 7.84113 4.7871 7.96815 4.91694L8.68508 5.61129L8.51573 6.59637C8.4875 6.77137 8.66532 6.90685 8.82621 6.81936L9.70968 6.35927L10.5931 6.81653C10.754 6.90403 10.9319 6.76855 10.9036 6.59355L10.7343 5.60847Z" fill="#999999"/>
</svg>
