<svg width="29" height="28" viewBox="0 0 29 28" fill="none" xmlns="http://www.w3.org/2000/svg">
<rect x="0.5" width="28" height="28" rx="5" fill="#589DC0"/>
<path d="M18.4402 7.55914C18.2844 7.40247 18.0727 7.3141 17.8517 7.31348C17.6307 7.31285 17.4186 7.40002 17.2618 7.5558C17.1792 7.64008 17.1153 7.7409 17.0743 7.85164C16.381 9.2983 15.6177 10.1141 14.6543 10.5958C13.5735 11.1291 12.3327 11.5 10.3327 11.5C10.1682 11.5007 10.0075 11.5499 9.87075 11.6413C9.73398 11.7328 9.62713 11.8624 9.56352 12.0141C9.50054 12.1665 9.48411 12.334 9.51629 12.4957C9.54847 12.6574 9.62783 12.8059 9.74435 12.9225L12.4468 15.625L8.66602 20.6666L13.7077 16.8858L16.4093 19.5875C16.4867 19.6655 16.5792 19.727 16.681 19.7683C16.7827 19.8108 16.891 19.8333 16.9993 19.8333C17.1077 19.8333 17.216 19.8108 17.3177 19.7683C17.4701 19.7058 17.6004 19.5993 17.6921 19.4625C17.7838 19.3257 17.8328 19.1647 17.8327 19C17.8327 17 18.2027 15.7591 18.7352 14.695C19.216 13.7316 20.0318 12.9683 21.4793 12.275C21.59 12.2344 21.6907 12.1705 21.7743 12.0875C21.9301 11.9308 22.0173 11.7186 22.0167 11.4976C22.016 11.2766 21.9277 11.065 21.771 10.9091L18.4402 7.55914Z" fill="white"/>
</svg>
