<svg width="17" height="15" viewBox="0 0 17 15" fill="none" xmlns="http://www.w3.org/2000/svg">
<path fill-rule="evenodd" clip-rule="evenodd" d="M8.03663 0C7.724 0 7.44416 0.19393 7.33439 0.486657L4.83406 7.1542C4.80248 7.23841 4.7863 7.32761 4.7863 7.41755V13.2516C4.7863 13.6659 5.12209 14.0016 5.5363 14.0016H12.7122H12.7123C13.798 14.0016 14.7504 13.2775 15.0409 12.2314L15.041 12.2313L16.1986 8.06419L16.1986 8.06406C16.4006 7.3364 16.2509 6.55614 15.7939 5.95494C15.3369 5.35373 14.6251 5.0007 13.8699 5.00066H13.8699H10.4535V1.58344C10.4535 0.708932 9.74459 0 8.87008 0H8.03663ZM6.2863 7.55355L8.55638 1.5H8.87008C8.91616 1.5 8.95352 1.53736 8.95352 1.58344V5.75066C8.95352 6.16487 9.2893 6.50066 9.70352 6.50066H13.8699H13.8699C14.1564 6.50069 14.4264 6.63461 14.5997 6.86268C14.7731 7.09076 14.8299 7.38676 14.7533 7.66281L13.5957 11.8299L13.5956 11.83C13.4854 12.2269 13.1241 12.5016 12.7122 12.5016H12.7122H6.2863V7.55355ZM1.25 6.66747C0.835786 6.66747 0.5 7.00326 0.5 7.41747V13.2516C0.5 13.6658 0.835786 14.0016 1.25 14.0016H3.75033C4.16454 14.0016 4.50033 13.6658 4.50033 13.2516C4.50033 12.8374 4.16454 12.5016 3.75033 12.5016H2V8.16747H3.75033C4.16454 8.16747 4.50033 7.83169 4.50033 7.41747C4.50033 7.00326 4.16454 6.66747 3.75033 6.66747H1.25Z" fill="#808080"/>
</svg>
