<svg width="14" height="14" viewBox="0 0 14 14" fill="none" xmlns="http://www.w3.org/2000/svg">
<path fill-rule="evenodd" clip-rule="evenodd" d="M7.48148 1L9.66416 2.21195L12.0646 2.89838L12.751 5.29877L13.9629 7.48148L12.751 9.66421L12.0646 12.0646L9.66416 12.7511L7.48148 13.963L5.29877 12.7511L2.89838 12.0646L2.21195 9.66421L1 7.48148L2.21195 5.29877L2.89838 2.89838L5.29877 2.21195L7.48148 1Z" fill="#3861FB"/>
<mask id="path-2-inside-1_3543_25270" fill="white">
<path d="M9.83764 5.17535C9.95708 5.06164 10.116 4.99877 10.2809 5.00002C10.4459 5.00127 10.6038 5.06653 10.7215 5.18204C10.8393 5.29755 10.9075 5.45427 10.9118 5.61913C10.9162 5.78399 10.8563 5.94409 10.7449 6.06566L7.36173 10.2968C7.30356 10.3594 7.23334 10.4097 7.15529 10.4446C7.07724 10.4795 6.99295 10.4983 6.90746 10.4999C6.82198 10.5015 6.73705 10.4858 6.65776 10.4538C6.57846 10.4218 6.50644 10.3742 6.44598 10.3137L4.2024 8.07013C4.13992 8.01191 4.08981 7.9417 4.05505 7.86369C4.0203 7.78569 4.00161 7.70148 4.0001 7.61609C3.99859 7.5307 4.0143 7.44589 4.04628 7.3667C4.07827 7.28752 4.12587 7.21558 4.18626 7.1552C4.24665 7.09481 4.31858 7.0472 4.39777 7.01522C4.47695 6.98324 4.56177 6.96753 4.64715 6.96904C4.73254 6.97054 4.81675 6.98923 4.89476 7.02399C4.97277 7.05875 5.04297 7.10886 5.10119 7.17134L6.87672 8.94602L9.82153 5.19401C9.82683 5.18748 9.83164 5.18125 9.83764 5.17535Z"/>
</mask>
<path d="M9.83764 5.17535C9.95708 5.06164 10.116 4.99877 10.2809 5.00002C10.4459 5.00127 10.6038 5.06653 10.7215 5.18204C10.8393 5.29755 10.9075 5.45427 10.9118 5.61913C10.9162 5.78399 10.8563 5.94409 10.7449 6.06566L7.36173 10.2968C7.30356 10.3594 7.23334 10.4097 7.15529 10.4446C7.07724 10.4795 6.99295 10.4983 6.90746 10.4999C6.82198 10.5015 6.73705 10.4858 6.65776 10.4538C6.57846 10.4218 6.50644 10.3742 6.44598 10.3137L4.2024 8.07013C4.13992 8.01191 4.08981 7.9417 4.05505 7.86369C4.0203 7.78569 4.00161 7.70148 4.0001 7.61609C3.99859 7.5307 4.0143 7.44589 4.04628 7.3667C4.07827 7.28752 4.12587 7.21558 4.18626 7.1552C4.24665 7.09481 4.31858 7.0472 4.39777 7.01522C4.47695 6.98324 4.56177 6.96753 4.64715 6.96904C4.73254 6.97054 4.81675 6.98923 4.89476 7.02399C4.97277 7.05875 5.04297 7.10886 5.10119 7.17134L6.87672 8.94602L9.82153 5.19401C9.82683 5.18748 9.83164 5.18125 9.83764 5.17535Z" fill="white"/>
<path d="M9.83764 5.17535L6.39002 1.55404L6.36025 1.58238L6.33094 1.61121L9.83764 5.17535ZM10.7449 6.06566L7.05919 2.68697L6.94517 2.81136L6.8398 2.94314L10.7449 6.06566ZM7.36173 10.2968L11.026 13.6987L11.1516 13.5634L11.2668 13.4193L7.36173 10.2968ZM6.44598 10.3137L9.98175 6.77841L9.98152 6.77817L6.44598 10.3137ZM4.2024 8.07013L7.73794 4.53459L7.67556 4.47221L7.61102 4.41207L4.2024 8.07013ZM5.10119 7.17134L1.44314 10.58L1.50369 10.6449L1.5665 10.7077L5.10119 7.17134ZM6.87672 8.94602L3.34204 12.4824L7.32932 16.4678L10.81 12.0331L6.87672 8.94602ZM9.82153 5.19401L5.9403 2.04185L5.91403 2.0742L5.8883 2.10698L9.82153 5.19401ZM13.2853 8.79666C12.4656 9.57702 11.3748 10.0084 10.2431 9.99988L10.3188 0.000161171C8.85724 -0.0108972 7.44858 0.54625 6.39002 1.55404L13.2853 8.79666ZM10.2431 9.99988C9.11141 9.99131 8.02729 9.54344 7.21952 8.75077L14.2236 1.61331C13.1804 0.589618 11.7803 0.01122 10.3188 0.000161171L10.2431 9.99988ZM7.21952 8.75077C6.41175 7.9581 5.9435 6.88262 5.91359 5.75128L15.9101 5.48697C15.8715 4.02591 15.2668 2.637 14.2236 1.61331L7.21952 8.75077ZM5.91359 5.75128C5.88368 4.61994 6.29444 3.52122 7.05919 2.68697L14.4306 9.44435C15.4183 8.36696 15.9487 6.94803 15.9101 5.48697L5.91359 5.75128ZM6.8398 2.94314L3.45662 7.17423L11.2668 13.4193L14.65 9.18818L6.8398 2.94314ZM3.6975 6.89478C4.09673 6.46477 4.57857 6.1197 5.11418 5.88019L9.19641 15.009C9.88812 14.6997 10.5104 14.2541 11.026 13.6987L3.6975 6.89478ZM5.11418 5.88019C5.64979 5.64067 6.22822 5.51161 6.81489 5.50075L7.00004 15.499C7.75767 15.485 8.50468 15.3183 9.19641 15.009L5.11418 5.88019ZM6.81489 5.50075C7.40155 5.48988 7.98437 5.59744 8.52848 5.81696L4.78704 15.0907C5.48973 15.3742 6.2424 15.5131 7.00004 15.499L6.81489 5.50075ZM8.52848 5.81696C9.0726 6.03648 9.56688 6.36348 9.98175 6.77841L2.91022 13.849C3.446 14.3849 4.08433 14.8072 4.78704 15.0907L8.52848 5.81696ZM9.98152 6.77817L7.73794 4.53459L0.66687 11.6057L2.91045 13.8492L9.98152 6.77817ZM7.61102 4.41207C8.03977 4.8116 8.38368 5.29339 8.6222 5.82872L-0.512099 9.89867C-0.204058 10.59 0.240073 11.2122 0.793793 11.7282L7.61102 4.41207ZM8.6222 5.82872C8.86072 6.36403 8.98898 6.94191 8.99932 7.52788L-0.999123 7.7043C-0.985771 8.46104 -0.820134 9.20734 -0.512099 9.89867L8.6222 5.82872ZM8.99932 7.52788C9.00966 8.11386 8.90187 8.6959 8.68238 9.2393L-0.589812 5.49411C-0.873267 6.19587 -1.01248 6.94755 -0.999123 7.7043L8.99932 7.52788ZM8.68238 9.2393C8.46289 9.78271 8.13619 10.2763 7.7218 10.6907L0.650727 3.61966C0.115554 4.15484 -0.306352 4.79233 -0.589812 5.49411L8.68238 9.2393ZM7.7218 10.6907C7.3074 11.1051 6.81377 11.4318 6.27036 11.6513L2.52517 2.37912C1.82339 2.66259 1.1859 3.08449 0.650727 3.61966L7.7218 10.6907ZM6.27036 11.6513C5.72696 11.8708 5.14492 11.9786 4.55895 11.9683L4.73536 1.96981C3.97862 1.95646 3.22694 2.09567 2.52517 2.37912L6.27036 11.6513ZM4.55895 11.9683C3.97298 11.9579 3.3951 11.8297 2.85978 11.5911L6.92973 2.45684C6.2384 2.1488 5.4921 1.98317 4.73536 1.96981L4.55895 11.9683ZM2.85978 11.5911C2.32446 11.3526 1.84266 11.0087 1.44314 10.58L8.75925 3.76273C8.24328 3.20901 7.62107 2.76488 6.92973 2.45684L2.85978 11.5911ZM1.5665 10.7077L3.34204 12.4824L10.4114 5.40965L8.63588 3.63496L1.5665 10.7077ZM10.81 12.0331L13.7548 8.28103L5.8883 2.10698L2.9435 5.859L10.81 12.0331ZM13.7028 8.34616C13.7089 8.33859 13.7139 8.33239 13.715 8.33108C13.7175 8.32799 13.7144 8.33181 13.7116 8.33524C13.7055 8.34277 13.6843 8.36894 13.6562 8.40238C13.5984 8.47112 13.491 8.59518 13.3443 8.73949L6.33094 1.61121C6.17827 1.76142 6.0655 1.89154 6.00247 1.9665C5.97173 2.00306 5.94796 2.03238 5.93929 2.04309C5.93521 2.04812 5.93084 2.05354 5.93204 2.05206C5.93205 2.05205 5.93298 2.05089 5.93427 2.0493C5.93561 2.04764 5.9377 2.04505 5.9403 2.04185L13.7028 8.34616Z" fill="white" mask="url(#path-2-inside-1_3543_25270)"/>
</svg>
