<svg width="17" height="16" viewBox="0 0 17 16" fill="none" xmlns="http://www.w3.org/2000/svg">
<path fill-rule="evenodd" clip-rule="evenodd" d="M2.46738 0H13.6674C14.9929 0 16.0674 1.07452 16.0674 2.4V15.2C16.0658 15.523 15.8701 15.8133 15.5714 15.936C15.4764 15.9808 15.3723 16.0027 15.2674 16C15.0547 16.0012 14.8504 15.9177 14.6994 15.768L11.7394 12.8H2.46738C1.1419 12.8 0.0673828 11.7255 0.0673828 10.4V2.4C0.0673828 1.07452 1.1419 0 2.46738 0ZM12.6358 11.4319L14.4678 13.2719V2.39988C14.4678 1.95805 14.1096 1.59988 13.6678 1.59988H2.46782C2.02599 1.59988 1.66782 1.95805 1.66782 2.39988V10.3999C1.66782 10.8417 2.02599 11.1999 2.46782 11.1999H12.0678C12.2805 11.1987 12.4848 11.2821 12.6358 11.4319Z" fill="#808080"/>
</svg>
