<svg width="22" height="14" viewBox="0 0 22 14" fill="none" xmlns="http://www.w3.org/2000/svg">
<path fill-rule="evenodd" clip-rule="evenodd" d="M2.8208 1.3583C2.86446 1.04002 3.13795 0.802734 3.46113 0.802734H10.4623C10.7854 0.802734 11.0589 1.04002 11.1026 1.3583L12.7182 13.1348C12.7435 13.3186 12.6875 13.5043 12.5648 13.644C12.442 13.7838 12.2645 13.864 12.0779 13.864H1.84548C1.65885 13.864 1.48134 13.7838 1.35861 13.644C1.23589 13.5043 1.17993 13.3186 1.20515 13.1348L2.8208 1.3583ZM4.02524 2.08745L2.58585 12.5792H11.3375L9.89815 2.08745H4.02524Z" fill="white"/>
<path fill-rule="evenodd" clip-rule="evenodd" d="M12.8021 3.49682C12.8469 3.1797 13.1199 2.94385 13.4421 2.94385H18.7959C19.118 2.94385 19.391 3.1797 19.4358 3.49682L20.7981 13.1321C20.8241 13.3163 20.7686 13.5026 20.6458 13.643C20.5231 13.7833 20.3452 13.8639 20.1581 13.8639H12.0799C11.8928 13.8639 11.7149 13.7833 11.5921 13.643C11.4694 13.5026 11.4139 13.3163 11.4399 13.1321L12.8021 3.49682ZM14.0039 4.22856L12.8233 12.5792H19.4147L18.2341 4.22856H14.0039Z" fill="white"/>
<path fill-rule="evenodd" clip-rule="evenodd" d="M10.4621 4.12162H3.46094V2.83691H10.4621V4.12162Z" fill="white"/>
<path fill-rule="evenodd" clip-rule="evenodd" d="M19.0764 6.26274H13.1523V4.97803H19.0764V6.26274Z" fill="white"/>
<path fill-rule="evenodd" clip-rule="evenodd" d="M0.660156 13.2215C0.660156 12.8667 0.949496 12.5791 1.30641 12.5791L20.6942 12.5791C21.0511 12.5791 21.3404 12.8667 21.3404 13.2215C21.3404 13.5762 21.0511 13.8638 20.6942 13.8638L1.30641 13.8638C0.949496 13.8638 0.660156 13.5762 0.660156 13.2215Z" fill="white"/>
</svg>
