<svg width="19" height="20" viewBox="0 0 19 20" fill="none" xmlns="http://www.w3.org/2000/svg">
<path d="M18.662 10.0454C18.6713 9.32865 18.2831 8.66994 17.6526 8.32419L2.96073 0.252053C2.30267 -0.11986 1.52695 -0.0741675 0.906873 0.349253C0.27542 0.779806 -0.0477853 1.80475 0.128735 2.54501L1.50029 8.29128C1.64109 8.88052 2.16844 9.29541 2.77515 9.29282L10.9511 9.26745C11.3698 9.25906 11.7094 9.59861 11.701 10.0173C11.6997 10.4289 11.3652 10.7634 10.9465 10.7718L2.7627 10.7908C2.156 10.792 1.62606 11.2087 1.4816 11.7989L0.0615472 17.568C-0.11087 18.2497 0.0857046 18.9303 0.566734 19.4113C0.623326 19.4679 0.686992 19.5316 0.750701 19.5811C1.37365 20.0617 2.18949 20.123 2.88604 19.7518L17.6278 11.7587C18.2603 11.4232 18.6527 10.7621 18.662 10.0454Z" fill="url(#paint0_linear_318_5385)"/>
<defs>
<linearGradient id="paint0_linear_318_5385" x1="18.6621" y1="9.99589" x2="2.33216" y2="16.1671" gradientUnits="userSpaceOnUse">
<stop stop-color="#1D6CAB"/>
<stop offset="1" stop-color="#589DC0"/>
</linearGradient>
</defs>
</svg>
