<svg width="16" height="14" viewBox="0 0 16 14" fill="none" xmlns="http://www.w3.org/2000/svg">
<path d="M8.88441 8.15502L8 9.01739L7.11559 8.15502C6.18816 7.2507 5.65625 5.99689 5.65625 4.71451C5.65625 3.43212 6.18816 2.17832 7.11559 1.27399L8 0.411621L8.88441 1.27399C9.81184 2.17832 10.3438 3.43212 10.3438 4.71451C10.3438 5.99689 9.81184 7.2507 8.88441 8.15502Z" fill="white"/>
<path d="M0.880281 7.51226C1.23975 7.16193 1.62128 6.89674 1.98722 6.68265C2.97513 8.48216 4.90444 9.71132 7.14734 9.73865C6.30581 10.3276 5.30656 10.6564 4.25 10.6564C2.98428 10.6564 1.86537 10.19 0.880281 9.22987L0 8.37107L0.880281 7.51226Z" fill="white"/>
<path d="M9.1338 9.70348C10.0612 9.59184 12.5823 9.28833 14.0128 6.68265C14.3787 6.8968 14.7603 7.16199 15.1197 7.51226L16 8.37107L15.1197 9.22987C14.1346 10.19 13.0157 10.6564 11.75 10.6564C10.6954 10.6564 9.69778 10.3292 8.85716 9.74228C8.9179 9.72947 9.01213 9.71812 9.1338 9.70348Z" fill="white"/>
<path d="M6.09775 11.2809C6.343 11.8118 6.68313 12.304 7.11925 12.7293L8 13.5881L8.88075 12.7293C9.31569 12.3052 9.65478 11.8121 9.90025 11.2802C9.21253 11.0608 8.56863 10.7225 8.00003 10.2685C7.43087 10.7229 6.78628 11.0615 6.09775 11.2809Z" fill="white"/>
<path d="M6.40538 8.75025C5.33431 7.67982 4.71875 6.21437 4.71875 4.71451C4.71875 4.12364 4.81637 3.53874 4.99713 2.98023C4.50612 2.82489 3.99103 2.74295 3.47319 2.74295H2.22806V3.95705C2.22806 6.31358 3.95028 8.35656 6.40538 8.75025Z" fill="white"/>
<path d="M13.7719 2.74295V3.95705C13.7719 6.31638 12.0472 8.35696 9.59463 8.75025C10.6657 7.67982 11.2812 6.21437 11.2812 4.71451C11.2812 4.12364 11.1836 3.53874 11.0029 2.98023C11.4939 2.82492 12.009 2.74295 12.5268 2.74295H13.7719Z" fill="white"/>
</svg>
