<svg width="22" height="20" viewBox="0 0 22 20" fill="none" xmlns="http://www.w3.org/2000/svg">
<path d="M1 18C1 18.5523 1.44772 19 2 19H4.46883V8.2H2C1.44772 8.2 1 8.64772 1 9.2V18ZM21 9.1C21 8.11 20.2195 7.3 19.2656 7.3H13.7935L14.6173 3.187L14.6434 2.899C14.6434 2.53 14.4959 2.188 14.2618 1.945L13.3425 1L7.63631 6.931C7.31545 7.255 7.12466 7.705 7.12466 8.2V17.2C7.12466 18.19 7.90515 19 8.85908 19H16.664C17.3837 19 17.9995 18.55 18.2596 17.902L20.8786 11.557C20.9566 11.35 21 11.134 21 10.9V9.1Z" stroke="#394251" stroke-width="2" stroke-linejoin="round"/>
</svg>
