<svg width="25" height="24" viewBox="0 0 25 24" fill="none" xmlns="http://www.w3.org/2000/svg">
<path d="M5.5 15C4.56 15 3.69 15.33 3 15.88C2.08 16.61 1.5 17.74 1.5 19C1.5 19.75 1.71 20.46 2.08 21.06C2.77 22.22 4.04 23 5.5 23C6.51 23 7.43 22.63 8.13 22C8.44 21.74 8.71 21.42 8.92 21.06C9.29 20.46 9.5 19.75 9.5 19C9.5 16.79 7.71 15 5.5 15ZM7.57 18.57L5.44 20.54C5.3 20.67 5.11 20.74 4.93 20.74C4.74 20.74 4.55 20.67 4.4 20.52L3.41 19.53C3.12 19.24 3.12 18.76 3.41 18.47C3.7 18.18 4.18 18.18 4.47 18.47L4.95 18.95L6.55 17.47C6.85 17.19 7.33 17.21 7.61 17.51C7.89 17.81 7.87 18.29 7.57 18.57Z" fill="#1F6EAC"/>
<path d="M15.35 3.9498V7.7498H13.85V3.9498C13.85 3.6798 13.61 3.5498 13.45 3.5498C13.4 3.5498 13.35 3.5598 13.3 3.5798L5.37 6.56981C4.84 6.7698 4.5 7.2698 4.5 7.8398V8.5098C3.59 9.1898 3 10.2798 3 11.5098V7.8398C3 6.6498 3.73 5.5898 4.84 5.1698L12.78 2.1698C13 2.0898 13.23 2.0498 13.45 2.0498C14.45 2.0498 15.35 2.8598 15.35 3.9498Z" fill="#1F6EAC"/>
<path d="M22.0007 14.5V15.5C22.0007 15.77 21.7907 15.99 21.5107 16H20.0507C19.5207 16 19.0407 15.61 19.0007 15.09C18.9707 14.78 19.0907 14.49 19.2907 14.29C19.4707 14.1 19.7207 14 19.9907 14H21.5007C21.7907 14.01 22.0007 14.23 22.0007 14.5Z" fill="#1F6EAC"/>
<path d="M19.98 12.95H21C21.55 12.95 22 12.5 22 11.95V11.51C22 9.44 20.31 7.75 18.24 7.75H6.76C5.91 7.75 5.13 8.03 4.5 8.51C3.59 9.19 3 10.28 3 11.51V13.29C3 13.67 3.4 13.91 3.76 13.79C4.32 13.6 4.91 13.5 5.5 13.5C8.53 13.5 11 15.97 11 19C11 19.72 10.81 20.51 10.51 21.21C10.35 21.57 10.6 22 10.99 22H18.24C20.31 22 22 20.31 22 18.24V18.05C22 17.5 21.55 17.05 21 17.05H20.13C19.17 17.05 18.25 16.46 18 15.53C17.8 14.77 18.04 14.03 18.54 13.55C18.91 13.17 19.42 12.95 19.98 12.95ZM14.5 12.75H9.5C9.09 12.75 8.75 12.41 8.75 12C8.75 11.59 9.09 11.25 9.5 11.25H14.5C14.91 11.25 15.25 11.59 15.25 12C15.25 12.41 14.91 12.75 14.5 12.75Z" fill="#1F6EAC"/>
</svg>
