<svg width="10" height="10" viewBox="0 0 10 10" fill="none" xmlns="http://www.w3.org/2000/svg">
<path d="M5.20542 8.87213C4.96911 9.24568 4.6011 9.47527 4.20321 9.49809C3.80531 9.52114 3.41994 9.33437 3.15333 8.98951L0.764134 5.90156C0.384416 5.41109 0.418146 4.65504 0.83927 4.21279C1.2608 3.77055 1.90955 3.81007 2.28927 4.30077L3.97962 6.48565C4.00466 6.51811 4.04102 6.53552 4.07839 6.5334C4.11595 6.53129 4.15029 6.50941 4.17271 6.47459L7.64713 0.986284C7.98342 0.454649 8.62612 0.3415 9.08279 0.733405C9.53906 1.12531 9.63601 1.87383 9.29951 2.40523L5.20542 8.87213Z" fill="white"/>
</svg>
