<svg width="16" height="16" viewBox="0 0 16 16" fill="none" xmlns="http://www.w3.org/2000/svg">
<path d="M7.59393 3.12523C7.72434 2.86103 7.78955 2.72893 7.87807 2.68672C7.95509 2.65 8.04457 2.65 8.12158 2.68672C8.21011 2.72893 8.27531 2.86103 8.40573 3.12523L9.643 5.63181C9.6815 5.70981 9.70075 5.74881 9.72888 5.77909C9.75379 5.8059 9.78367 5.82762 9.81685 5.84305C9.85433 5.86048 9.89736 5.86677 9.98343 5.87935L12.751 6.28387C13.0425 6.32647 13.1882 6.34777 13.2556 6.41895C13.3143 6.48088 13.3419 6.56599 13.3307 6.65056C13.3179 6.74777 13.2124 6.85053 13.0014 7.05604L10.9995 9.00588C10.9371 9.06666 10.9059 9.09705 10.8858 9.13321C10.8679 9.16523 10.8565 9.20041 10.8521 9.23678C10.8471 9.27787 10.8545 9.3208 10.8692 9.40666L11.3415 12.1607C11.3914 12.4512 11.4163 12.5964 11.3695 12.6826C11.3287 12.7576 11.2563 12.8102 11.1724 12.8258C11.076 12.8437 10.9456 12.7751 10.6847 12.6379L8.21052 11.3367C8.13343 11.2962 8.09488 11.2759 8.05427 11.268C8.01832 11.2609 7.98134 11.2609 7.94538 11.268C7.90477 11.2759 7.86623 11.2962 7.78914 11.3367L5.31495 12.6379C5.0541 12.7751 4.92368 12.8437 4.82724 12.8258C4.74333 12.8102 4.67093 12.7576 4.6302 12.6826C4.58338 12.5964 4.60829 12.4512 4.65812 12.1607L5.13047 9.40666C5.1452 9.3208 5.15256 9.27787 5.14758 9.23678C5.14317 9.20041 5.13173 9.16523 5.1139 9.13321C5.09377 9.09705 5.06257 9.06666 5.00016 9.00588L2.99827 7.05604C2.78728 6.85053 2.68178 6.74777 2.66894 6.65056C2.65777 6.56599 2.68537 6.48088 2.74404 6.41895C2.81148 6.34777 2.9572 6.32647 3.24864 6.28387L6.01622 5.87935C6.10229 5.86677 6.14532 5.86048 6.1828 5.84305C6.21599 5.82762 6.24586 5.8059 6.27077 5.77909C6.2989 5.74881 6.31815 5.70981 6.35666 5.63181L7.59393 3.12523Z" fill="#FFC657"/>
<path d="M14.908 4.18284C14.935 4.07477 14.9486 4.02073 14.97 4.00814C14.9885 3.99729 15.0115 3.99729 15.03 4.00814C15.0514 4.02073 15.065 4.07477 15.092 4.18284L15.1542 4.43189C15.1843 4.55227 15.1994 4.61246 15.2307 4.66144C15.2584 4.70477 15.2952 4.74156 15.3386 4.76928C15.3875 4.80062 15.4477 4.81567 15.5681 4.84577L15.8172 4.90803C15.9252 4.93505 15.9793 4.94855 15.9919 4.97003C16.0027 4.98854 16.0027 5.01146 15.9919 5.02997C15.9793 5.05145 15.9252 5.06495 15.8172 5.09197L15.5681 5.15423C15.4477 5.18433 15.3875 5.19938 15.3386 5.23072C15.2952 5.25844 15.2584 5.29523 15.2307 5.33856C15.1994 5.38754 15.1843 5.44773 15.1542 5.56812L15.092 5.81716C15.065 5.92523 15.0514 5.97927 15.03 5.99186C15.0115 6.00271 14.9885 6.00271 14.97 5.99186C14.9486 5.97927 14.935 5.92523 14.908 5.81716L14.8458 5.56811C14.8157 5.44773 14.8006 5.38754 14.7693 5.33856C14.7416 5.29523 14.7048 5.25844 14.6614 5.23072C14.6125 5.19938 14.5523 5.18433 14.4319 5.15423L14.1828 5.09197C14.0748 5.06495 14.0207 5.05145 14.0081 5.02997C13.9973 5.01146 13.9973 4.98854 14.0081 4.97003C14.0207 4.94855 14.0748 4.93505 14.1828 4.90803L14.4319 4.84577C14.5523 4.81567 14.6125 4.80062 14.6614 4.76928C14.7048 4.74156 14.7416 4.70477 14.7693 4.66144C14.8006 4.61246 14.8157 4.55227 14.8458 4.43188L14.908 4.18284Z" fill="#FFC657"/>
<path d="M14.908 4.18284C14.935 4.07477 14.9486 4.02073 14.97 4.00814C14.9885 3.99729 15.0115 3.99729 15.03 4.00814C15.0514 4.02073 15.065 4.07477 15.092 4.18284L15.1542 4.43189C15.1843 4.55227 15.1994 4.61246 15.2307 4.66144C15.2584 4.70477 15.2952 4.74156 15.3386 4.76928C15.3875 4.80062 15.4477 4.81567 15.5681 4.84577L15.8172 4.90803C15.9252 4.93505 15.9793 4.94855 15.9919 4.97003C16.0027 4.98854 16.0027 5.01146 15.9919 5.02997C15.9793 5.05145 15.9252 5.06495 15.8172 5.09197L15.5681 5.15423C15.4477 5.18433 15.3875 5.19938 15.3386 5.23072C15.2952 5.25844 15.2584 5.29523 15.2307 5.33856C15.1994 5.38754 15.1843 5.44773 15.1542 5.56812L15.092 5.81716C15.065 5.92523 15.0514 5.97927 15.03 5.99186C15.0115 6.00271 14.9885 6.00271 14.97 5.99186C14.9486 5.97927 14.935 5.92523 14.908 5.81716L14.8458 5.56811C14.8157 5.44773 14.8006 5.38754 14.7693 5.33856C14.7416 5.29523 14.7048 5.25844 14.6614 5.23072C14.6125 5.19938 14.5523 5.18433 14.4319 5.15423L14.1828 5.09197C14.0748 5.06495 14.0207 5.05145 14.0081 5.02997C13.9973 5.01146 13.9973 4.98854 14.0081 4.97003C14.0207 4.94855 14.0748 4.93505 14.1828 4.90803L14.4319 4.84577C14.5523 4.81567 14.6125 4.80062 14.6614 4.76928C14.7048 4.74156 14.7416 4.70477 14.7693 4.66144C14.8006 4.61246 14.8157 4.55227 14.8458 4.43188L14.908 4.18284Z" fill="#FFC657"/>
<path d="M11.1495 0.365684C11.2036 0.149536 11.2306 0.0414615 11.2736 0.0162777C11.3106 -0.00542589 11.3564 -0.0054259 11.3934 0.0162777C11.4364 0.0414615 11.4634 0.149536 11.5174 0.365684L11.642 0.86377C11.7022 1.10454 11.7323 1.22492 11.7949 1.32288C11.8504 1.40953 11.924 1.48312 12.0106 1.53856C12.1086 1.60124 12.229 1.63134 12.4697 1.69153L12.9678 1.81605C13.184 1.87009 13.292 1.89711 13.3172 1.94006C13.3389 1.97707 13.3389 2.02293 13.3172 2.05994C13.292 2.10289 13.184 2.12991 12.9678 2.18395L12.4697 2.30847C12.229 2.36866 12.1086 2.39876 12.0106 2.46144C11.924 2.51688 11.8504 2.59047 11.7949 2.67712C11.7323 2.77508 11.7022 2.89546 11.642 3.13623L11.5174 3.63432C11.4634 3.85046 11.4364 3.95854 11.3934 3.98372C11.3564 4.00543 11.3106 4.00543 11.2736 3.98372C11.2306 3.95854 11.2036 3.85046 11.1495 3.63432L11.025 3.13623C10.9648 2.89546 10.9347 2.77508 10.8721 2.67712C10.8166 2.59047 10.743 2.51688 10.6564 2.46144C10.5584 2.39876 10.438 2.36866 10.1973 2.30847L9.69918 2.18395C9.48303 2.12991 9.37496 2.10289 9.34977 2.05994C9.32807 2.02293 9.32807 1.97707 9.34977 1.94006C9.37496 1.89711 9.48303 1.87009 9.69918 1.81605L10.1973 1.69153C10.438 1.63134 10.5584 1.60124 10.6564 1.53856C10.743 1.48312 10.8166 1.40953 10.8721 1.32288C10.9347 1.22492 10.9648 1.10454 11.025 0.863769L11.1495 0.365684Z" fill="#FFC657"/>
<path d="M11.1495 0.365684C11.2036 0.149536 11.2306 0.0414615 11.2736 0.0162777C11.3106 -0.00542589 11.3564 -0.0054259 11.3934 0.0162777C11.4364 0.0414615 11.4634 0.149536 11.5174 0.365684L11.642 0.86377C11.7022 1.10454 11.7323 1.22492 11.7949 1.32288C11.8504 1.40953 11.924 1.48312 12.0106 1.53856C12.1086 1.60124 12.229 1.63134 12.4697 1.69153L12.9678 1.81605C13.184 1.87009 13.292 1.89711 13.3172 1.94006C13.3389 1.97707 13.3389 2.02293 13.3172 2.05994C13.292 2.10289 13.184 2.12991 12.9678 2.18395L12.4697 2.30847C12.229 2.36866 12.1086 2.39876 12.0106 2.46144C11.924 2.51688 11.8504 2.59047 11.7949 2.67712C11.7323 2.77508 11.7022 2.89546 11.642 3.13623L11.5174 3.63432C11.4634 3.85046 11.4364 3.95854 11.3934 3.98372C11.3564 4.00543 11.3106 4.00543 11.2736 3.98372C11.2306 3.95854 11.2036 3.85046 11.1495 3.63432L11.025 3.13623C10.9648 2.89546 10.9347 2.77508 10.8721 2.67712C10.8166 2.59047 10.743 2.51688 10.6564 2.46144C10.5584 2.39876 10.438 2.36866 10.1973 2.30847L9.69918 2.18395C9.48303 2.12991 9.37496 2.10289 9.34977 2.05994C9.32807 2.02293 9.32807 1.97707 9.34977 1.94006C9.37496 1.89711 9.48303 1.87009 9.69918 1.81605L10.1973 1.69153C10.438 1.63134 10.5584 1.60124 10.6564 1.53856C10.743 1.48312 10.8166 1.40953 10.8721 1.32288C10.9347 1.22492 10.9648 1.10454 11.025 0.863769L11.1495 0.365684Z" fill="#FFC657"/>
</svg>
