<svg width="209" height="163" viewBox="0 0 209 163" fill="none" xmlns="http://www.w3.org/2000/svg">
<g clip-path="url(#clip0_4663_350435)">
<path d="M87.7982 81.9693C86.2053 81.5296 84.6907 81.5872 83.3898 82.224C81.7265 83.0365 81.1743 82.224 80.9686 80.8606C80.6579 78.8053 80.4177 76.7326 80.3048 74.6599C80.2332 73.4091 79.8761 72.547 78.704 71.9785C75.5566 70.4368 72.9801 67.9994 69.9549 66.2659C68.954 65.6934 68.9673 64.7576 69.1823 63.7588C70.4487 57.892 71.7066 52.0234 72.9562 46.153C73.1473 45.2534 73.6518 44.7145 74.5053 44.3833C76.2124 43.713 77.9248 43.0426 79.75 42.8576C80.8438 42.7463 81.0641 42.2355 81.0615 41.2488C81.0495 37.9212 80.9513 34.5937 81.6283 31.2929C82.1287 28.8515 83.5159 27.4049 85.8402 26.7842C87.6601 26.2826 89.5305 25.9912 91.4154 25.9154C98.5398 25.7009 105.665 25.3322 112.787 25.8296C114.452 25.9463 115.285 25.5722 115.727 23.7422C116.631 19.9883 117.868 16.3255 118.991 12.6306C119.293 11.6358 119.309 10.9695 118.214 10.2898C115.622 8.68098 115.018 5.79583 116.53 3.33434C118.291 0.469308 122.03 -0.835175 124.461 0.565837C127.701 2.43341 127.476 7.67145 123.945 9.81654C122.861 10.4748 122.546 11.2055 122.459 12.3464C122.151 16.3765 121.799 20.4034 121.403 24.4273C121.271 25.7452 121.721 26.1702 123.044 26.2318C135.345 26.811 147.62 27.6851 159.775 29.8007C160.475 29.9001 161.167 30.0406 161.85 30.2217C163.841 30.8156 164.583 31.9874 164.433 34.0922C164.39 34.7157 164.035 35.3404 164.459 36.1703C165.122 35.626 165.742 35.1071 166.375 34.6138C169.96 31.8265 173.954 30.3088 178.533 30.7258C180.437 30.8775 182.233 31.6817 183.623 33.005C187.845 37.0458 190.626 41.7864 190.415 47.9053C190.406 48.1922 190.415 48.4791 190.415 48.9041C191.46 48.6654 192.141 47.6868 193.389 47.9039C192.137 49.6803 193.366 50.2662 194.727 50.7046C196.771 51.3642 198.086 53.2519 200.16 53.9223C200.611 54.0684 200.618 55.2348 201.097 55.8971C204.925 61.1901 207.886 66.8907 208.817 73.4935C209.269 76.687 208.869 79.7666 207.803 82.7952C203.873 93.9697 186.616 106.391 170.911 100.213C168.001 99.0558 165.254 97.516 162.742 95.6335C162.278 95.2903 161.804 94.9632 161.135 94.4765C160.508 100.219 159.914 105.752 159.299 111.282C159.047 113.544 159.033 113.541 161.244 113.344C161.712 113.302 162.182 113.254 162.652 113.229C165.821 113.057 167.059 114.143 166.956 117.347C166.652 126.623 166.389 135.9 166.507 145.182C166.543 147.978 166.751 150.769 167.131 153.539C167.529 156.471 166.212 157.901 163.361 157.588C160.669 157.291 157.985 156.917 155.299 156.557C154.832 156.493 154.37 156.39 153.92 156.247C152.634 155.845 151.62 155.103 151.796 153.597C151.972 152.122 153.1 151.544 154.441 151.434C156.275 151.284 158.078 151.661 159.883 151.902C161.917 152.17 161.862 152.178 161.756 150.115C161.386 142.913 161.853 135.723 162.154 128.53C162.299 125.084 162.59 121.644 162.915 118.207C163.025 117.039 162.598 116.748 161.568 116.732C160.56 116.716 160.091 116.957 160.139 118.134C160.419 124.692 160.264 131.262 159.675 137.799C159.13 131.06 159.44 124.567 159.774 118.075C159.794 117.673 160.06 117.217 159.55 116.977C159.359 116.891 159.149 116.858 158.941 116.88C158.733 116.901 158.534 116.978 158.364 117.102C157.553 117.694 156.802 118.272 155.71 118.365C154.884 118.436 155.204 119.321 155.2 119.846C155.167 123.95 155.181 128.055 155.172 132.16C155.172 133.523 155.229 134.891 154.754 136.695C154.057 130.561 154.194 124.876 154.507 119.195C154.58 117.854 154.35 117.177 152.809 117.359C151.735 117.493 151.638 118.011 151.644 118.9C151.669 123.416 151.93 127.943 151.066 132.939C151.066 127.979 151.074 123.526 151.057 119.073C151.057 118.429 151.344 117.552 150.128 117.615C148.972 117.676 149.238 118.493 149.252 119.16C149.33 123.182 149.576 127.204 148.784 131.371C148.137 127.11 148.105 123.013 148.267 118.909C148.287 118.412 148.494 117.751 147.655 117.702C146.716 117.649 146.822 118.35 146.858 118.933C147.522 128.546 146.946 138.216 148.207 147.798C148.438 149.552 148.526 151.37 150.065 152.877C148.969 153.145 148.083 153.505 147.205 153.787C145.982 154.177 144.948 153.385 144.888 152.222C144.768 149.573 142.885 148.156 141.372 146.475C140.537 145.553 139.608 144.724 138.6 144C136.859 142.749 135.238 141.736 132.7 142.169C129.801 142.665 126.726 142.098 123.721 141.985C122.821 141.95 122.066 142.119 121.285 142.725C119.546 144.086 117.6 143.752 115.768 142.878C114.816 142.416 113.771 142.184 112.715 142.199C108.85 142.224 104.992 141.811 101.123 142.018C100.607 142.047 100.23 142.309 99.8592 142.587C96.088 145.421 92.3075 148.245 88.5761 151.126C87.7106 151.796 86.9938 152.466 87.6641 153.941C88.1646 155.04 88.7022 155.133 89.63 155.098C96.8659 154.817 104.099 154.215 111.345 154.451C112.757 154.496 114.172 154.451 116.09 154.451C106.831 156.248 97.9424 156.23 89.0991 156.888C82.5469 157.376 76.0703 156.946 69.5593 156.994C68.3202 157.012 67.0978 157.286 65.9673 157.798C63.9482 158.686 62.6261 157.932 62.3474 155.705C62.1297 153.963 62.0819 152.189 61.9611 150.387C58.6053 151.679 57.9283 151.427 56.0036 148.295C55.3199 147.181 54.6456 146.054 53.5518 145.286C51.7199 144 50.1788 144.44 49.3186 146.527C48.6323 148.191 48.42 149.97 48.193 151.741C48.1093 152.389 48.0602 153.052 47.8784 153.672C47.2717 155.712 45.4757 156.338 43.92 154.94C39.874 151.304 37.5483 143.521 42.7611 138.01C44.5359 136.133 46.6505 134.72 49.1766 134.082C50.0288 133.867 50.4138 133.627 50.062 132.655C49.8708 132.126 49.8907 131.469 49.977 130.893C51.1346 123.217 52.8058 115.691 56.5014 108.772C61.7248 99.008 69.2911 91.7657 79.4938 87.5626C82.6982 86.2447 84.8221 83.5687 87.7982 81.9693ZM125.469 84.8437C124.362 83.9897 125.253 82.9172 125.161 81.9532C125.111 81.4277 125.537 80.7037 124.56 80.5804C123.708 80.4718 123.44 80.945 123.314 81.6931C123.188 82.4412 122.97 83.1974 122.767 83.9401C122.329 85.5489 122.501 85.7272 124.164 85.5784C124.775 85.5235 125.111 85.1762 125.475 84.7968C125.857 86.2622 127.014 85.5114 127.787 85.5007C128.659 85.4886 128.07 84.6721 128.118 84.2283C128.207 83.4038 128.2 82.5672 128.222 81.736C128.24 81.1314 128.593 80.3323 127.459 80.3699C126.684 80.3953 126.132 80.5334 126.092 81.5497C126.053 82.6557 126.181 83.8315 125.469 84.8437ZM108.271 127.653C107.116 127.882 106.998 127.081 106.981 126.268C106.944 124.492 106.879 122.71 106.97 120.938C107.029 119.821 106.591 119.412 105.578 119.417C105.047 119.417 104.516 119.408 103.993 119.417C103.47 119.427 102.85 119.417 102.858 120.183C102.867 120.995 103.503 120.911 104.017 120.853C105.733 120.66 106.167 121.649 106.149 123.116C106.135 124.124 106.149 125.127 106.17 126.141C106.21 128.27 106.214 128.27 108.237 127.607C110.43 128.252 110.185 126.853 110.126 125.432C110.098 124.761 110.191 124.309 109.305 124.359C108.624 124.401 108.197 124.536 108.254 125.356C108.307 126.126 108.27 126.892 108.271 127.653ZM118.722 31.0811C116.544 31.0811 114.364 31.1133 112.187 31.0744C104.236 30.9403 96.2805 30.7097 88.3544 31.5423C85.3013 31.864 85.1393 32.1684 84.9429 35.3511C84.7345 38.7337 84.7371 42.139 84.3482 45.5001C83.0845 56.4079 83.0553 67.3385 83.3885 78.2891C83.4256 79.5159 83.7601 79.9556 85.0504 79.7518C89.5358 79.0413 94.065 78.8281 98.5995 78.6525C107.132 78.324 115.677 78.4353 124.202 77.726C134.411 76.8747 144.631 75.8612 154.889 76.9699C156.13 77.104 156.4 76.5007 156.505 75.4777C157.021 70.4502 157.508 65.4226 158.11 60.4018C159.095 52.1888 159.437 43.9275 160.123 35.6917C160.225 34.469 159.817 34.2169 158.72 34.0708C145.445 32.2796 132.079 31.8801 118.722 31.0811ZM140.415 92.129C145.592 91.094 150.935 90.8312 156.304 90.8969C156.773 90.8969 157.613 91.338 157.64 90.3204C157.662 89.4637 157.138 89.1406 156.294 89.0307C153.527 88.67 150.764 88.7357 148.002 88.965C140.248 89.6098 132.489 89.9128 124.703 89.693C112.411 89.3457 100.101 89.4034 87.8792 87.749C86.2491 87.5278 85.888 87.9903 86.1628 89.6501C87.9323 100.397 88.373 111.294 89.6606 122.095C89.8411 123.611 89.1296 124.626 87.5154 124.776C87.0933 124.816 86.6274 124.791 86.5995 125.352C86.577 125.814 86.5318 126.386 86.7641 126.721C87.1159 127.231 87.619 126.756 88.0106 126.587C91.4088 125.07 94.8203 123.497 98.5464 123.131C100.11 122.977 100.405 122.431 100.349 121.068C100.236 117.976 100.185 114.883 100.196 111.789C100.196 110.75 99.9402 110.154 98.8929 109.838C98.3531 109.67 97.8544 109.388 97.4292 109.013C97.0041 108.637 96.662 108.175 96.4252 107.657C96.003 106.765 95.4362 106.517 94.503 106.488C92.8823 106.435 91.515 105.78 90.8075 104.18C89.48 101.201 92.5331 94.6991 95.6287 93.8571C95.742 93.8258 95.8573 93.8025 95.9738 93.7874C96.4822 93.7244 96.9933 93.8236 97.1513 94.3411C97.3424 94.9659 96.7172 94.8774 96.38 95.0423C94.2946 96.0652 92.2517 100.3 92.7429 102.499C92.946 103.403 93.5314 103.774 94.369 103.861C95.2066 103.948 95.6964 103.611 95.8809 102.743C96.0101 102.163 96.2103 101.601 96.4769 101.071C97.2097 99.5859 98.1681 97.9971 99.9814 98.3283C101.707 98.6447 103.36 98.3632 105.043 98.4061C107.398 98.465 109.753 98.5214 112.107 98.575C113.043 98.5978 113.7 98.5495 113.272 97.2048C112.864 95.9419 113.139 94.6052 113.658 93.3691C113.834 92.9428 114.031 92.3542 114.6 92.4829C115.264 92.6344 114.984 93.2511 114.903 93.6748C114.733 94.5556 114.546 95.4351 114.789 96.3213C115.07 97.3483 115.851 97.6794 116.822 97.662C117.725 97.6513 118.673 97.607 119.09 96.6377C119.41 95.8936 119.09 95.2809 118.378 94.8358C117.943 94.5677 117.072 94.498 117.421 93.6413C117.749 92.8369 118.462 92.5513 119.306 92.6157C120.737 92.7256 121.924 94.132 121.745 95.9995C121.581 97.6982 122.228 97.6714 123.521 97.4488C126.77 96.8884 130.037 96.4286 133.307 95.9955C134.999 95.7716 136.713 95.6429 138.416 95.8936C139.279 96.0277 140.026 96.4299 140.1 97.4341C140.172 98.4034 139.447 98.7265 138.695 99.0107C138.395 99.1233 137.873 98.9209 137.803 99.5899C139.381 99.4263 140.905 99.2145 142.418 99.5094C144.353 99.8875 145.788 101.445 145.649 102.966C145.593 103.577 145.397 104.259 144.853 104.469C144.454 104.623 144.015 104.078 143.776 103.68C142.624 101.759 140.899 101.945 139.087 102.281C138.217 102.443 137.927 102.881 137.971 103.755C138.057 105.478 138.104 107.205 138.085 108.929C138.072 110.034 138.19 110.806 139.604 110.491C140.013 110.398 140.723 110.326 140.799 110.913C140.883 111.627 140.124 111.751 139.657 111.696C138.14 111.518 138.145 112.391 138.172 113.513C138.245 116.545 138.27 119.579 138.221 122.612C138.206 123.516 137.85 124.476 136.715 124.478C135.603 124.478 135.229 123.577 135.156 122.648C135.057 121.407 135.075 120.152 135.1 118.905C135.153 116.178 135.168 116.178 132.55 116.264C128.753 116.387 128.903 116.386 128.955 120.263C128.975 121.68 130.548 123.817 127.811 124.591C127.788 124.598 127.779 124.705 127.787 124.761C127.837 125.163 127.75 125.73 127.98 125.936C128.51 126.417 129.207 126.005 129.838 125.961C130.247 125.933 130.486 125.751 130.291 125.265C129.934 124.383 130.657 124.257 131.187 124.106C132.004 123.87 132.802 124.095 133.609 124.325C137.1 125.324 140.199 127.168 143.349 128.894C144.315 129.431 144.651 129.393 144.676 128.176C144.724 125.202 144.858 122.23 144.979 119.258C145.018 118.278 144.979 117.437 143.651 117.551C143.265 117.583 142.722 117.57 142.674 117.032C142.622 116.41 143.205 116.391 143.637 116.212C144.863 115.708 145.961 114.262 147.424 115.779C147.497 115.854 147.761 115.748 147.935 115.718C149.445 115.461 150.947 115.135 152.465 114.966C153.729 114.832 154.245 114.203 154.486 112.962C155.415 108.176 156.424 103.405 157.434 98.6366C157.978 96.0639 158.209 96.1108 155.368 96.2824C151.056 96.5425 146.757 96.509 142.837 96.0706C147.251 95.3627 152.07 95.1026 156.902 95.1509C158.549 95.167 158.536 93.9684 158.538 92.9709C158.538 91.7308 157.458 92.373 156.915 92.3743C151.361 92.373 145.824 92.739 140.415 92.129ZM169.313 61.713C168.847 62.083 168.718 62.4838 168.851 62.7855C169.515 64.2804 167.258 65.3248 168.243 66.8639C168.03 67.0433 167.798 67.1984 167.552 67.3264C166.257 67.8881 164.998 68.6671 163.642 68.9218C160.883 69.4299 160.074 71.083 159.837 73.7053C159.643 75.8504 159.837 78.328 157.664 79.8416C157.443 79.9945 157.37 80.2519 157.56 80.449C159.237 82.1919 160.265 84.7164 162.367 85.8238C169.174 89.4114 176.322 90.6234 183.85 88.0935C192.36 85.2325 195.968 75.8679 191.475 68.0437C189.98 65.4414 188.002 63.2789 185.659 61.4193C184.545 60.5345 183.668 60.3736 182.388 61.2611C179.793 63.0536 176.886 64.2415 173.725 64.5713C171.09 64.8434 169.885 64.0149 169.313 61.713ZM68.7841 125.634C68.273 123.891 68.427 122.416 68.5651 120.958C68.6527 120.019 68.4323 119.633 67.4049 119.447C65.7482 119.148 65.6513 120.179 65.5929 121.267C65.3606 125.602 65.0805 129.936 64.9889 134.272C64.8642 140.217 64.7752 146.164 65.1814 152.103C65.2757 153.483 65.5903 154.019 67.0956 153.516C68.6009 153.013 70.2204 153.005 71.8133 152.972C75.4624 152.897 79.1141 152.811 82.7606 152.666C83.2398 152.647 84.2792 153.016 83.9646 151.772C82.9358 147.702 83.0672 143.517 82.819 139.379C82.4009 132.372 82.1925 125.355 82.7433 118.341C82.7779 117.9 82.9743 117.28 82.4075 117.086C82 116.945 81.4172 116.952 81.0482 117.147C80.3991 117.493 80.719 118.22 80.7323 118.774C80.8133 122.29 81.0376 125.812 80.2159 129.421C79.5708 125.793 79.5416 122.285 79.4858 118.778C79.4779 118.271 79.7513 117.449 78.7305 117.543C77.9579 117.614 77.3447 117.866 77.4787 118.853C77.5112 119.209 77.5249 119.567 77.5199 119.925C77.6526 124.127 77.8624 128.331 77.3301 132.308C76.9387 128.057 76.7915 123.786 76.8894 119.518C76.9186 118.267 76.5774 118.008 75.3695 118.338C74.3075 118.629 73.9743 119.118 73.9836 120.195C74.0141 123.762 73.9677 127.333 73.9133 130.9C73.904 131.544 74.0606 132.269 73.3982 133.084C73.1327 128.697 73.3186 124.599 73.3172 120.5C73.3172 119.972 73.7779 119.069 72.5991 119.09C71.6155 119.109 71.5093 119.76 71.4987 120.545C71.4628 123.262 71.4987 125.985 70.9757 128.528C70.3119 126.015 70.7659 123.34 70.8071 120.672C70.815 120.191 71.0367 119.523 70.1646 119.506C69.4053 119.491 69.3336 120.014 69.3429 120.588C69.3612 122.286 69.1735 123.981 68.7841 125.634ZM132.458 110.689C130.539 111.155 129.195 110.763 127.987 109.984C127.253 109.511 126.704 109.127 125.812 109.732C125.229 110.125 124.458 110.014 123.845 109.473C122.534 108.322 121.126 108.35 119.877 109.524C118.549 110.781 116.091 110.715 115.822 109.318C115.386 107.064 115.721 104.777 115.84 102.269C116.914 103.006 116.643 103.781 116.707 104.44C116.821 105.623 116.852 106.812 116.966 107.993C117.023 108.583 117.424 108.778 117.985 108.642C118.611 108.491 118.405 108.096 118.299 107.68C118 106.506 118.195 105.311 118.22 104.127C118.293 100.723 118.308 100.775 114.89 100.806C113.769 100.817 113.503 101.23 113.487 102.265C113.451 104.583 113.322 106.899 113.193 109.215C113.145 110.078 113.193 111.011 112.349 111.64C111.685 110.935 111.765 110.087 111.807 109.271C111.932 106.836 112.098 104.404 112.224 101.97C112.247 101.543 112.547 100.825 111.89 100.787C111.056 100.74 111.456 101.558 111.384 102.006C111.32 102.408 111.373 102.837 111.376 103.253C111.395 105.453 111.421 107.653 111.422 109.854C111.422 110.318 111.473 110.892 110.979 111.128C110.485 111.364 110.315 110.85 110.05 110.539C109.519 109.908 108.855 110.33 108.246 110.377C107.338 110.447 106.561 110.661 105.673 109.826C104.864 109.064 103.779 110.228 102.765 110.352C101.955 110.449 102.209 111.277 102.234 111.826C102.342 113.785 102.546 115.741 102.594 117.7C102.62 118.851 102.977 119.008 104.079 118.847C107.456 118.354 107.796 118.701 108.061 122.01C108.104 122.546 107.906 123.234 108.872 123.276C111.004 123.368 111.438 123.008 111.45 120.891C111.45 120.236 111.401 119.577 111.468 118.929C111.578 117.857 111.088 117.428 110.079 117.357C108.436 117.24 106.796 117.09 105.16 116.906C104.496 116.831 103.771 116.549 103.783 115.779C103.795 115.04 104.645 115.167 105.186 114.939C104.996 114.899 104.803 114.87 104.609 114.852C103.759 114.823 102.765 114.795 102.996 113.595C103.188 112.592 104.169 112.978 104.783 113.096C107.615 113.632 110.445 114.176 113.335 114.268C114.632 114.308 115.244 114.938 115.253 116.256C115.269 118.456 115.356 120.656 115.372 122.856C115.38 123.769 115.381 124.45 116.674 124.276C117.615 124.15 118.465 124.686 118.457 125.798C118.457 126.613 118.551 126.963 119.484 126.912C120.497 126.855 120.546 126.322 120.59 125.516C120.676 123.729 120.116 121.974 120.384 120.183C120.446 119.767 120.749 119.081 119.939 119.166C119.383 119.225 118.779 118.279 118.265 119.275C117.501 120.75 116.805 119.919 116.468 119.04C115.718 117.087 115.479 115.008 115.515 112.915C115.53 112.073 115.984 111.334 116.852 111.265C118.784 111.108 120.73 111.055 122.671 111.046C123.153 111.046 123.825 111.251 123.612 112.019C123.081 113.966 123.834 115.96 123.178 118.052C124.22 117.693 125.622 118.219 125.845 117.248C126.161 115.872 126.551 114.721 127.956 114.03C127.106 113.524 126.387 114.096 125.832 113.572C126.067 112.901 126.695 112.931 127.171 112.893C129.631 112.698 132.095 112.558 134.56 112.438C134.935 112.42 135.41 112.788 135.529 112.131C135.652 111.441 135.943 110.707 135.583 110.047C135.367 109.645 134.964 110.047 134.654 110.114C132.316 110.612 130.869 109.343 131.092 106.905C131.181 105.943 131.491 105.002 131.756 103.793C130.03 104.517 128.645 105.479 128.548 107.087C128.426 109.28 130.605 109.668 132.458 110.689ZM84.2115 93.5796C80.7786 96.8533 77.5844 100.373 74.654 104.112C71.7044 107.844 69.1571 111.838 67.2204 116.21C66.9854 116.747 66.4093 117.371 66.7558 117.838C67.154 118.374 67.9704 118.062 68.5863 117.961C70.454 117.658 72.2288 117.013 74.0062 116.377C77.1655 115.246 80.2703 113.884 83.6964 113.757C84.6601 113.722 84.6734 113.15 84.6601 112.446C84.6256 110.602 84.6296 108.757 84.5845 106.914C84.469 102.647 84.3429 98.3846 84.2115 93.5796ZM174.791 35.26C175.322 35.5187 175.568 35.6622 175.827 35.7601C180.562 37.6223 182.168 40.5557 181.171 45.5216C180.134 50.6899 176.93 54.1475 172.532 56.6492C171.567 57.1989 171.963 58.1132 171.928 58.8627C171.888 59.6952 172.608 59.4941 173.104 59.4284C177.927 58.7795 181.532 55.8837 184.004 52.0654C187.255 47.0446 185.184 39.3464 180.262 35.8566C178.671 34.7237 176.922 34.6151 174.791 35.26ZM59.3049 145.257C61.6664 139.377 59.7748 134.987 54.9124 134.785C54.9124 135.441 55.8522 135.649 55.7022 136.413C54.7584 136.279 54.0323 135.767 53.3129 135.273C52.5934 134.78 51.8023 134.674 50.958 134.897C47.5731 135.788 43.6757 140.25 43.3001 143.745C43.1209 145.424 43.2045 147.078 44.3859 148.731C45.8899 139.998 53.1071 137.232 59.3102 145.257H59.3049ZM92.1495 145.381C93.2221 144.788 94.1672 144.239 94.3597 143.236C95.2955 138.364 95.7761 133.481 94.1234 128.633C93.7504 127.539 93.2526 127.068 92.0632 127.506C90.745 128.009 89.3912 128.413 88.0132 128.712C86.8955 128.94 86.6048 129.492 86.6858 130.558C86.9513 134.044 87.1345 137.549 87.4013 141.04C87.6031 143.677 87.8858 146.307 88.146 149.096C89.0433 148.299 89.0008 148.291 89.0752 147.59C89.642 141.748 89.4482 135.969 87.7557 130.304C87.6429 129.924 87.4398 129.4 87.8964 129.177C88.4805 128.892 88.7154 129.456 88.9212 129.865C89.8637 131.726 90.4716 133.706 90.9721 135.728C91.738 138.833 92.0393 141.998 92.1548 145.381H92.1495ZM172.62 52.0346C175.584 51.6833 176.469 50.8119 177.303 47.3516C178.92 40.608 175.312 38.9898 170.027 40.0677C169.002 40.2768 168.036 40.7675 167.05 41.167C166.287 41.4767 165.564 41.8964 164.793 42.1712C164.214 42.3777 163.679 42.4849 163.675 43.288C163.675 44.1138 164.309 44.209 164.829 44.4155C166.471 45.0671 168.138 45.657 169.771 46.33C170.635 46.6866 171.505 47.1143 171.595 48.282C170.931 48.4818 169.881 48.0809 170.002 49.3787C170.037 49.7635 169.774 50.2635 170.331 50.4419C172.099 51.0049 171.687 49.0382 172.626 48.2337L172.62 52.0346ZM80.8796 44.8097C81.1119 43.7143 80.5783 43.5749 79.6916 43.7679C78.6031 44.0052 77.8743 44.3444 77.6726 45.7347C76.8111 51.6619 76.0557 57.6024 75.4557 63.5658C75.0575 67.5127 75.1544 67.4913 78.6655 69.2315C79.6717 69.7302 79.9743 69.6203 79.9557 68.4405C79.8283 60.5399 79.738 52.6459 80.8796 44.8097ZM164.601 66.2954C165.604 66.219 165.515 65.5071 165.616 64.8662C165.817 63.5805 165.756 61.4328 166.375 61.2008C167.817 60.6645 167.387 59.6282 167.54 58.8546C167.938 56.8235 168.122 54.7468 168.396 52.6875C168.606 51.1189 169.458 49.2178 168.863 48.0756C168.26 46.9118 166.245 46.4949 164.849 45.7495C164.797 45.7215 164.747 45.6906 164.699 45.657C163.902 45.114 163.484 45.1395 163.425 46.2911C163.229 50.0289 162.612 53.7198 162.113 57.4188C161.633 60.985 161.2 64.5579 160.731 68.2327C162.025 67.7125 161.979 67.7112 162.02 66.6239C162.117 64.0498 162.616 61.5481 163.225 58.9257C165.838 61.1981 163.966 63.8835 164.601 66.2954ZM104.111 139.84L111.525 139.078C111.956 139.034 112.407 138.958 112.334 138.386C112.011 135.803 113.165 133.276 112.534 130.655C112.328 129.803 112.03 129.569 111.291 129.59C109.831 129.631 108.357 129.702 106.891 129.689C105.802 129.681 105.541 130.131 105.584 131.21C105.701 134.059 105.622 136.905 104.111 139.84ZM128.598 137.508C128.399 136.719 128.14 135.988 128.043 135.229C127.946 134.47 128.057 133.685 127.985 132.919C127.876 131.758 129.271 130.372 128.367 129.702C127.56 129.105 125.99 129.557 124.757 129.554C124.345 129.554 123.932 129.582 123.521 129.584C122.797 129.584 122.412 129.736 122.741 130.627C123.237 131.967 122.641 133.06 121.751 134.023C120.424 135.457 118.757 136.094 116.84 136.047C116.013 136.026 115.79 136.464 115.883 137.158C115.966 137.795 116.002 138.543 116.957 138.466C120.815 138.156 124.674 137.834 128.598 137.508ZM195.428 58.0382C195.071 57.1895 195.397 56.5983 195.851 56.0271C196.099 55.7161 196.515 55.4118 196.14 54.9546C195.299 53.9424 194.327 53.0227 193.13 52.528C192.239 52.1606 191.716 53.1755 191.043 53.5925C190.588 53.8727 190.171 54.2628 189.602 54.1502C188.611 53.9665 188.447 54.7682 188.128 55.3648C187.662 56.2376 188.457 56.5098 188.925 56.8878C190.309 58.0019 191.587 59.2444 192.742 60.5989C193.352 61.3215 193.794 62.457 194.546 62.7185C195.44 63.0295 196.111 61.717 197.052 61.4274C197.218 61.3668 197.38 61.2951 197.537 61.2129C199.726 60.1899 199.661 60.2248 198.502 58.1092C197.854 56.9281 197.258 56.6572 196.268 57.6654C196.079 57.8478 195.754 57.896 195.428 58.0382ZM73.304 94.1708C73.3622 94.2758 73.4307 94.3746 73.5084 94.4658C74.8796 95.4606 76.4752 96.4768 77.8743 96.9313C79.2734 97.3858 80.3739 94.8157 81.9004 94.01C84.0827 92.8597 84.4398 91.0229 84.2221 88.7974C84.1318 87.871 83.9871 87.4272 82.9929 87.867C79.4221 89.4503 76.2668 91.6611 73.304 94.1708ZM70.077 105.868C69.3771 104.06 68.0295 102.584 66.3018 101.734C65.2996 101.227 64.8031 103.019 64.085 103.778C63.6867 104.203 63.3867 104.73 63.0562 105.219C61.4938 107.536 61.45 107.633 63.9934 108.782C65.0925 109.275 65.7429 111.089 66.8354 110.551C67.8496 110.054 68.3819 108.54 69.1013 107.457C69.4518 106.929 70.0093 106.517 70.077 105.868ZM135.519 137.175C135.039 138.614 136.714 138.49 137.622 139.051C138.41 139.544 138.742 139.3 138.857 138.396C139.122 136.291 140.062 134.44 141.14 132.66C142.628 130.202 142.617 130.287 139.835 129.193C138.498 128.668 137.797 128.962 137.196 130.22C136.203 132.296 135.795 134.49 135.517 137.175H135.519ZM203.842 79.2343C204.114 78.564 203.595 78.3575 202.946 78.2355C202.142 78.084 201.337 77.9339 200.536 77.7703C198.158 77.2863 198.179 77.2903 197.46 79.5427C197.155 80.4946 196.739 81.4116 196.377 82.3447C196.233 82.7161 195.931 83.1344 196.487 83.4038C197.804 84.042 199.131 84.6623 200.469 85.2647C200.855 85.4376 201.133 85.1749 201.339 84.8625C202.482 83.1428 203.329 81.2398 203.842 79.2343ZM106.656 108.707C107.357 108.756 107.771 108.737 108.164 108.823C109.742 109.165 110.217 108.499 110.155 106.946C110.092 105.231 110.261 103.506 110.37 101.787C110.416 101.059 110.37 100.522 109.461 100.428C107.416 100.22 105.379 99.9519 103.337 99.7079C102.541 99.6127 102.158 99.8982 102.125 100.771C102.099 101.474 101.791 102.164 101.76 102.868C101.722 103.816 101.634 104.958 103.208 104.057C103.894 103.682 104.697 103.591 105.448 103.804C106.324 104.04 106.607 103.621 106.775 102.881C106.865 102.478 106.999 102.086 107.173 101.712C107.315 101.404 107.484 101.006 107.906 101.073C108.401 101.152 108.59 101.583 108.496 102.011C108.026 104.183 108.392 106.564 106.656 108.707ZM202.462 75.9054C204.136 76.5275 204.398 75.5474 204.132 74.003C204.012 73.3045 203.971 72.5926 203.84 71.8968C203.19 68.4673 203.201 68.5451 199.829 69.379C198.357 69.745 197.85 70.2732 198.125 71.8954C198.734 75.5045 198.636 75.5206 202.462 75.9054ZM100.39 81.8111C100.021 83.2859 98.93 84.1332 98.3991 85.3103C101.585 86.4726 101.422 82.704 103.39 82.0511C103.276 83.0968 102.602 83.802 102.186 84.6279C102.038 84.9268 101.734 85.3867 102.275 85.447C103.088 85.5369 104.051 85.9096 104.58 84.7767C105.006 83.865 105.484 82.9762 105.987 82.1034C106.461 81.2802 106.311 80.9423 105.323 80.9625C102.971 81.0094 100.617 81.0067 98.265 81.0281C97.8561 81.0281 97.4685 81.0281 97.2176 81.492C96.5898 82.6718 95.9181 83.8288 95.257 85.0059C98.7389 86.7153 98.4415 82.6959 100.39 81.8111ZM65.2013 113.585C65.182 113.43 65.1468 113.278 65.0965 113.131C64.2031 111.407 62.589 110.531 61.008 109.626C60.6934 109.445 60.4478 109.695 60.3151 109.972C59.5252 111.625 58.2469 113.288 58.3332 115.017C58.3969 116.271 60.5288 116.209 61.6398 116.921C61.9345 117.111 62.2664 117.241 62.5783 117.405C62.8611 117.554 63.1704 117.622 63.339 117.296C63.9907 116.044 64.6093 114.774 65.2013 113.591V113.585ZM75.0177 99.5497C74.942 99.0911 75.0257 98.6232 74.7071 98.1929C72.9257 95.7797 71.4469 95.6389 69.3164 97.7304C68.8956 98.1446 68.4987 98.5844 68.0699 98.9906C67.4726 99.5564 67.3664 99.9988 68.2027 100.476C69.4796 101.201 70.8084 101.892 71.5358 103.291C71.65 103.511 71.8013 103.649 72.0894 103.56C72.6642 103.396 75.0336 100.174 75.0177 99.555V99.5497ZM57.7611 117.563C57.0589 117.516 57.0456 118.016 56.9447 118.384C56.5969 119.636 56.3434 120.919 55.9359 122.15C55.4248 123.694 55.7407 124.599 57.5062 124.429C58.5894 124.321 59.5332 125.862 60.3496 125.064C61.0611 124.371 61.1606 123.02 61.4805 121.944C61.6598 121.345 62.3142 120.665 61.8244 120.125C60.7013 118.89 59.0394 118.44 57.7611 117.568V117.563ZM144.31 144.645C144.278 140.069 144.283 135.65 144.575 130.805C140.606 135.007 139.601 141.337 144.307 144.66L144.31 144.645ZM161.964 87.0907C162.056 87.7155 162.019 87.9474 162.112 88.0292C165.069 90.6663 168.11 93.1854 171.709 94.9096C171.975 95.0342 172.353 95.2662 172.517 95.0007C173.402 93.5809 173.623 94.4215 173.935 95.3533C174.214 96.1872 175.052 96.3508 175.683 96.1966C176.582 95.9767 175.92 95.238 175.881 94.7219C175.768 93.2015 175.032 92.4011 173.44 92.3086C172.52 92.255 171.607 91.9064 170.712 91.6195C167.668 90.6556 164.906 89.0897 161.964 87.0987V87.0907ZM98.0022 140.271C99.5114 139.644 100.259 139.027 99.4955 137.52C99.23 137.008 99.384 136.231 99.4809 135.595C99.7383 134.017 99.8446 132.417 99.7982 130.818C99.773 129.629 99.4807 128.461 98.9433 127.402C98.2185 126.017 96.9176 126.504 95.9977 126.846C95.0778 127.188 96.0123 127.928 96.2061 128.435C96.6681 129.652 97.1141 130.865 97.4141 132.139C98.0274 134.747 98.0486 137.402 98.0022 140.271ZM130.807 133.264C131.03 134.544 131.264 135.822 131.471 137.105C131.576 137.76 132.092 137.703 132.533 137.801C133.146 137.935 133.395 137.602 133.482 137.061C133.953 134.094 134.857 131.305 136.745 128.917C136.901 128.719 136.989 128.515 136.764 128.303C136.724 128.259 136.676 128.224 136.621 128.2C136.567 128.176 136.508 128.164 136.449 128.164C136.39 128.164 136.331 128.176 136.277 128.2C136.223 128.224 136.174 128.259 136.134 128.303C135.197 129.467 133.903 129.49 132.599 129.468C131.887 129.456 131.537 129.84 131.329 130.462C131.019 131.365 130.843 132.309 130.807 133.264ZM178.703 95.3949C179.425 96.1001 180.343 95.3734 180.908 96.1175C181.491 96.8857 184.873 96.9903 185.471 96.3159C185.783 95.9647 185.537 95.6684 185.411 95.348C184.151 92.1303 184.02 92.0512 180.645 92.5218C180.006 92.6103 179.355 92.6143 178.714 92.6961C178.352 92.743 177.722 92.5258 177.752 93.1278C177.779 93.6641 177.892 94.3666 178.609 94.5315C178.942 94.6079 179.31 94.5315 179.66 94.5462C179.72 94.5462 179.773 94.6803 179.871 94.8144L178.703 95.3949ZM202.094 65.8329C201.674 64.9078 201.345 63.5537 200.54 62.6045C199.916 61.8725 198.933 62.8244 198.159 63.114C195.382 64.1543 195.155 65.2926 197.115 67.7487C197.38 68.0718 197.629 68.2099 198.008 68.0772C199.227 67.6535 200.447 67.2299 201.659 66.7888C201.944 66.6869 202.158 66.4844 202.094 65.8342V65.8329ZM124.449 102.256C124.588 103.762 124.62 104.837 124.81 105.876C124.922 106.494 124.535 107.67 125.451 107.596C126.27 107.529 125.816 106.39 125.861 105.745C126.271 99.7937 125.237 100.807 131.392 101.082C132.749 101.144 134.199 101.665 135.474 100.638C135.838 100.346 136.403 100.168 136.239 99.5993C136.057 98.9799 135.458 99.2078 135.023 99.248C132.217 99.5068 129.418 99.9009 126.607 100.03C124.707 100.125 123.858 100.719 124.449 102.256ZM194.404 91.1851C194.565 91.2884 194.751 91.4895 194.837 91.4533C196.563 90.7213 197.757 89.3457 198.927 87.9595C199.325 87.4902 198.748 87.2663 198.444 87.029C195.463 84.6963 195.462 84.6976 192.847 87.3307C192.757 87.406 192.674 87.49 192.6 87.5814C192.335 87.9836 191.538 88.1378 191.853 88.8041C192.13 89.394 192.745 89.2854 193.325 89.39C194.107 89.5321 194.882 89.5348 195.657 89.5468C195.652 90.4504 194.638 90.4759 194.409 91.1851H194.404ZM110.643 81.602C110.493 83.1826 109.439 84.1332 109.215 85.4028C110.213 85.6213 110.89 85.6414 111.38 84.6332C113.175 80.9383 113.208 80.9464 109.134 80.996C108.521 81.0027 107.747 80.7117 107.357 81.4169C106.758 82.4989 106.269 83.6438 105.74 84.7686C105.567 85.1333 105.521 85.4926 106.065 85.502C107.075 85.5194 108.16 85.8613 108.683 84.4228C109.038 83.4481 109.512 82.4613 110.647 81.602H110.643ZM119.556 103.389H119.655C119.655 103.979 119.607 104.576 119.668 105.16C119.73 105.745 119.46 106.657 120.288 106.815C120.752 106.896 121.227 106.877 121.683 106.761C122.138 106.644 122.565 106.432 122.934 106.138C123.157 105.966 123.209 101.125 123.018 100.87C122.912 100.738 122.775 100.636 122.619 100.571C120.926 99.8594 119.477 100.861 119.557 102.679C119.568 102.915 119.56 103.152 119.56 103.389H119.556ZM186.458 93.4683C187.026 93.9322 187.54 93.6171 188.038 93.6024C188.605 93.5796 189.544 93.7539 189.498 94.0542C189.373 94.9712 189.682 94.7245 190.187 94.5275C193.013 93.4107 193.065 93.2283 191.116 90.9492C190.885 90.681 190.654 90.4129 190.426 90.1448C190.16 89.8297 189.842 89.7841 189.479 89.9437L185.043 91.9091C185.848 93.0809 186.988 91.8675 187.791 92.4802C187.565 93.0902 186.787 92.8248 186.458 93.4683ZM124.157 5.65774C124.198 4.16422 123.507 3.35982 122.343 3.3692C121.054 3.37993 119.341 4.80373 119.29 5.90175C119.249 6.8724 121.272 8.61931 122.541 8.35519C123.896 8.07499 123.874 6.60292 124.157 5.65774ZM59.7336 127.563C59.7336 127.571 59.9806 127.117 59.3354 126.983C58.1898 126.744 57.0483 126.484 55.904 126.243C55.5058 126.159 55.1872 126.294 55.1076 126.717C54.9151 127.703 54.7319 128.691 54.5925 129.684C54.5142 130.242 54.858 130.412 55.3571 130.316C56.3425 130.143 57.3535 130.193 58.3173 130.463C58.981 130.633 59.3115 130.369 59.3978 129.7C59.4682 129.114 59.5744 128.532 59.7336 127.563ZM140.745 79.6097C140.379 79.9221 139.029 79.0654 139.244 80.3605C139.491 81.846 140.132 83.2952 140.781 84.6748C141.241 85.6535 142.275 85.1923 142.986 85.0167C143.987 84.7686 143.206 84.0782 143.094 83.6063C142.843 82.578 142.409 81.5953 142.229 80.5522C142.081 79.6915 141.677 79.4636 140.745 79.6097ZM134.837 85.4336C135.103 85.0059 136.604 86.3721 136.26 84.6212C135.995 83.2993 135.498 82.0283 135.173 80.7158C134.883 79.5494 134.039 79.9717 133.34 79.9851C132.454 80.0025 132.51 80.6072 132.615 81.2319C132.772 82.1597 133.074 83.0968 133.033 84.0165C132.975 85.325 133.459 85.7487 134.837 85.4336ZM129.15 83.0673C129.549 83.806 128.464 85.0462 129.681 85.4953C130.446 85.7768 131.54 85.738 132.254 85.376C132.851 85.073 132.079 84.2485 132.016 83.6331C131.931 82.8059 131.718 81.9867 131.695 81.1595C131.664 80.0414 130.962 80.1875 130.235 80.1835C129.387 80.1835 129.077 80.5576 129.142 81.3821C129.185 81.9157 129.15 82.452 129.15 83.0673ZM119.858 17.8861L119.554 17.7949C118.702 20.0178 117.829 22.2339 117.01 24.4688C116.829 24.9609 116.091 25.7747 117.312 25.8846C118.056 25.9516 119.245 26.5013 119.378 25.0561C119.601 22.671 119.7 20.2765 119.854 17.8861H119.858ZM108.27 114.915L108.166 115.279C109.119 115.474 110.066 115.713 111.026 115.856C112.438 116.067 113.046 116.816 112.942 118.278C112.842 119.692 112.869 121.116 112.853 122.536C112.853 122.878 112.81 123.305 113.281 123.368C113.877 123.447 113.907 122.966 113.925 122.554C114.007 120.605 114.057 118.653 114.156 116.705C114.199 115.823 113.841 115.405 112.961 115.339C111.396 115.221 109.831 115.059 108.266 114.915H108.27ZM115.053 80.9772C114.184 80.6755 113.809 81.2976 113.544 82.1208C113.343 82.7402 113.037 83.3274 112.88 83.9562C112.747 84.4509 112.026 85.1789 112.864 85.443C113.585 85.6696 114.659 86.0061 115.149 84.8384C115.494 84.0192 115.762 83.1652 116.143 82.3648C116.645 81.2963 116.453 80.7815 115.053 80.9772ZM119.586 115.233V116.984C119.586 117.52 119.864 117.755 120.357 117.575C120.992 117.343 121.985 117.32 122.045 116.549C122.143 115.291 122.291 113.973 121.818 112.735C121.779 112.635 121.388 112.657 121.154 112.648C118.926 112.561 119.795 114.3 119.586 115.234V115.233ZM138.31 85.3532C138.708 85.195 139.648 85.5851 139.39 84.5488C139.038 83.1196 138.602 81.7079 138.117 80.3176C137.852 79.5722 137.148 79.7518 136.601 79.8926C135.996 80.0468 136.276 80.5348 136.372 80.9142C136.691 82.1691 137.225 83.3717 137.266 84.6936C137.286 85.3639 137.741 85.4015 138.31 85.3545V85.3532ZM122.593 126.402C123.201 125.446 122.958 124.455 122.901 123.493C122.807 121.884 122.949 120.584 125.086 120.903C126.023 121.037 126.097 120.387 126.089 119.667C126.08 118.721 125.525 118.809 124.895 118.98C123.761 119.291 122.52 118.971 122.349 121.065C122.203 122.91 122.625 124.624 122.593 126.402ZM102.486 133.91C102.547 133.561 102.603 133.211 102.669 132.863C103.068 130.797 102.983 128.743 102.572 126.684C102.421 125.921 101.976 125.611 101.28 125.456C100.909 125.371 100.616 125.245 100.396 125.676C100.078 126.299 100.584 126.676 100.832 127.107C102.056 129.23 102.359 131.56 102.486 133.909V133.91ZM120.453 85.5436C121.182 85.7232 121.515 85.2888 121.638 84.5179C121.771 83.7135 122.002 82.9091 122.157 82.1047C122.254 81.6033 122.84 80.8981 121.832 80.7265C121.204 80.6206 120.542 80.6943 120.304 81.5309C120.039 82.4908 119.745 83.4521 119.375 84.3785C118.957 85.4564 119.483 85.624 120.453 85.5436ZM144.197 79.5105C143.841 79.6848 142.903 79.2129 143.191 80.1647C143.631 81.6234 144.272 83.0217 144.862 84.4308C145.018 84.8062 145.406 84.8558 145.768 84.7539C146.237 84.6198 146.155 84.2297 146.09 83.8905C145.844 82.6195 145.571 81.3553 145.329 80.0843C145.196 79.3885 144.663 79.5641 144.197 79.5024V79.5105ZM119.772 81.0657C118.417 80.6179 117.634 80.9236 117.334 82.2844C117.184 82.9654 116.838 83.5996 116.619 84.2672C116.487 84.6694 115.969 85.2057 116.578 85.4738C117.122 85.7098 117.882 85.7849 118.215 84.9738C118.745 83.676 119.248 82.3795 119.772 81.059V81.0657ZM126.071 124.484H126.024C126.024 124.189 126.024 123.894 126.024 123.599C126.032 122.928 126.048 122.32 125.079 122.28C124.11 122.239 124.082 122.847 124.069 123.522C124.056 124.226 124.04 124.931 124.049 125.635C124.056 126.067 124.126 126.509 124.713 126.44C125.204 126.379 125.865 126.556 126.048 125.893C126.169 125.446 126.071 124.952 126.071 124.477V124.484ZM129.304 115.179C131.135 114.919 132.915 114.664 134.696 114.416C135.172 114.349 135.446 114.105 135.426 113.604C135.418 113.371 135.331 113.034 135.051 113.182C133.458 114.028 131.718 113.575 130.062 113.823C129.511 113.898 129.345 114.481 129.304 115.173V115.179ZM75.2646 54.0295C75.5022 52.9811 74.8783 52.6634 74.2106 52.6808C72.8434 52.717 73.3796 54.004 73.1168 54.7159C72.7425 55.7335 73.7341 55.7416 74.2757 55.7563C75.6349 55.7858 74.7602 54.4183 75.2646 54.0295ZM73.8615 61.8953C74.277 60.5627 73.4911 60.5895 72.7823 60.4447C71.6288 60.2101 71.7203 61.115 71.5876 61.7465C71.3327 62.9973 72.4796 62.874 73.0703 62.9973C74.0898 63.2051 73.681 62.1447 73.8549 61.8899L73.8615 61.8953ZM96.3999 81.1274C94.2269 81.1153 94.0106 82.889 93.0508 83.7363C92.7707 83.983 92.1123 84.3959 92.6035 84.841C93.0946 85.2861 93.7013 84.9751 94.0849 84.4388C94.7871 83.4481 95.4774 82.452 96.3999 81.1274ZM76.8575 44.8834C75.8699 45.3459 74.7681 45.5363 74.6234 46.873C74.5717 47.3556 74.2053 47.9978 75.108 48.0568C75.6708 48.093 76.3425 48.2431 76.4805 47.3797C76.604 46.5861 77.0447 45.8393 76.8575 44.8834ZM104.613 125.717C105.051 124.738 104.903 123.921 104.869 123.12C104.849 122.666 104.848 122.132 104.222 122.048C103.824 121.994 103.358 121.895 103.123 122.316C102.888 122.737 102.961 123.242 103.219 123.656C103.616 124.295 104.058 124.903 104.613 125.717ZM150.721 84.463L151.208 84.2324C151.099 82.826 150.279 81.5658 150.322 80.1232C150.343 79.4783 149.821 79.5789 149.429 79.5869C148.918 79.5869 148.848 79.9502 148.997 80.3203C149.553 81.7065 150.144 83.0821 150.721 84.463ZM90.8765 81.3915C90.1385 81.5162 88.9597 80.9759 88.657 81.7843C88.1964 83.0164 87.2048 83.8328 86.727 85.0381C88.4314 84.2364 89.1442 82.2576 90.8765 81.3915ZM148.346 84.5045L148.737 84.3075C148.326 82.9064 147.906 81.5094 147.513 80.1031C147.397 79.6928 147.19 79.4904 146.767 79.5668C146.465 79.6191 146.368 79.847 146.488 80.087C147.198 81.5135 147.331 83.2215 148.346 84.5045ZM73.7447 59.2005C74.496 59.3078 74.4827 58.6642 74.5252 58.1937C74.6075 57.2981 73.8615 57.4188 73.3305 57.3088C72.6057 57.1587 72.4013 57.6708 72.3495 58.2165C72.2473 59.2783 73.1951 58.9069 73.746 59.2005H73.7447ZM169.751 52.7961C169.788 53.2238 169.59 53.7681 170.338 53.7976C171.303 53.8378 171.209 53.0562 171.359 52.4837C171.526 51.8429 171.128 51.6793 170.597 51.6391C169.673 51.5586 169.798 52.2343 169.751 52.7961ZM74.6261 49.3371C74.0434 49.376 74.042 49.8814 73.9889 50.3426C73.8947 51.1779 74.5518 51.0974 75.0376 51.19C75.8805 51.3495 75.8593 50.6671 75.8659 50.1804C75.8752 49.4256 75.1717 49.5382 74.6261 49.3371ZM100.378 105.549C100.315 105.17 100.556 104.544 99.98 104.58C99.5181 104.609 98.9898 105.004 99.0349 105.632C99.0707 106.123 99.4053 106.603 99.8738 106.604C100.564 106.608 100.247 105.926 100.374 105.553L100.378 105.549Z" fill="#4A5568"/>
<path d="M-0.000875872 148.965C0.0270002 148.37 0.0256728 147.774 0.0867346 147.182C0.4093 144.099 0.696025 143.872 3.47168 144.925C4.76062 145.413 5.47876 145.359 5.93805 143.82C6.46106 142.077 7.6876 140.807 9.60707 140.648C11.5265 140.488 12.8752 141.576 13.8217 143.113C15.6535 146.078 15.5473 149.191 14.3593 152.364C14.1787 152.848 13.4619 153.494 14.2013 153.909C14.9686 154.339 15.9734 154.323 16.7712 153.935C17.427 153.618 16.7925 153.131 16.6 152.773C15.3641 150.47 15.3044 148.118 16.2907 145.725C16.8217 144.446 17.6433 143.465 19.1194 143.361C20.5199 143.264 21.4424 144.095 22.146 145.187C22.9969 146.509 23.492 147.971 23.4907 149.559C23.4907 150.498 23.6672 151.053 24.7982 150.73C25.6066 150.499 26.8265 150.522 27.0654 151.147C27.4146 152.06 26.9128 153.317 25.9451 153.729C23.0473 154.961 20.4124 156.764 17.3858 157.7C17.2732 157.737 17.1549 157.753 17.0367 157.747C13.6093 157.507 10.2535 157.188 6.80221 158.262C4.83097 158.874 3.01637 157.306 1.78319 155.56C0.389389 153.589 -0.0526457 151.344 -0.000875872 148.965ZM1.84027 147.787C1.81903 149.846 2.13496 151.828 3.30044 153.567C4.17788 154.868 5.32743 155.726 6.99734 155.521C8.09645 155.387 8.723 155.119 7.70221 153.913C6.06814 151.999 5.14026 149.714 5.35265 147.186C5.53849 144.988 3.90841 145.309 2.81991 145.162C1.24824 144.955 2.0885 146.382 1.8416 147.074C1.77655 147.29 1.84027 147.551 1.84425 147.787H1.84027ZM11.5013 146.58C11.411 145.226 10.9929 144.482 10.1248 144.135C9.49689 143.884 9.05087 144.449 8.98318 144.95C8.74424 146.724 8.18672 148.54 9.29114 150.244C9.70132 150.879 9.99468 151.961 10.7181 151.881C11.6248 151.784 11.5703 150.616 11.7137 149.858C11.946 148.625 12.2579 147.341 11.5053 146.582L11.5013 146.58Z" fill="#4A5568"/>
<path d="M178.503 154.826C180.08 155.119 181.344 156.061 181.579 153.69C181.758 151.898 183.681 150.786 185.421 151.128C187.014 151.443 187.247 152.576 187.377 154.692C187.51 156.912 186.141 156.913 184.823 157.384C182.441 158.236 180.008 158.939 177.627 157.7C175.821 156.762 174.064 155.839 172.118 155.153C169.705 154.308 168.76 152.051 168.746 149.57C168.725 145.403 170.493 141.994 173.477 139.193C173.906 138.791 174.413 138.459 175.042 138.451C175.515 138.451 175.877 138.696 175.938 139.147C176.017 139.707 175.533 139.495 175.237 139.6C174.86 139.752 174.529 140.002 174.279 140.325C172.405 142.655 171.292 145.285 171.251 148.332C171.239 149.298 171.412 150.231 171.915 151.072C172.284 151.698 172.779 152.384 173.53 152.27C174.304 152.154 173.929 151.282 174.061 150.755C174.339 149.652 174.681 148.585 175.289 147.618C176.529 145.646 178.342 145.016 180.087 145.952C181.989 146.975 182.719 149.304 181.792 151.336C181.15 152.738 179.937 153.604 178.503 154.826ZM177.335 151.441C178.243 150.794 179.083 150.343 178.916 149.18C178.881 148.932 178.613 148.706 178.415 148.829C177.558 149.352 177.178 150.156 177.335 151.441Z" fill="#4A5568"/>
<path d="M181.681 139.402C181.537 133.522 182.626 132.437 188.491 132.595C190.146 132.64 191.784 132.817 193.353 133.351C195.922 134.227 197.173 136.33 196.711 138.96C196.612 139.52 196.766 140.009 196.865 140.531C197.57 144.188 195.714 146.5 192.015 146.736C188.722 146.946 185.749 146.014 182.913 144.44C182.042 143.958 181.668 143.234 181.678 142.254C181.689 141.308 181.681 140.353 181.681 139.402ZM184.085 139.434C184.372 140.909 183.385 142.053 184.782 142.9C187.214 144.375 189.826 144.762 192.591 144.408C193.897 144.242 194.564 143.47 194.545 142.111C194.534 141.35 194.266 141.008 193.459 141.272C190.206 142.339 187.203 141.775 184.085 139.431V139.434ZM188.2 135.797C188.025 135.786 187.848 135.77 187.669 135.766C186.794 135.751 185.761 135.557 185.456 136.694C185.132 137.9 186.154 138.346 186.979 138.765C188.862 139.726 190.828 139.789 192.781 139.012C193.352 138.785 194.22 138.657 194.175 137.867C194.131 137.107 193.378 136.694 192.714 136.471C191.25 135.989 189.718 135.896 188.193 135.797H188.2Z" fill="#4A5568"/>
<path d="M34.2822 157.896C30.1672 161.666 25.1947 162.722 19.9526 162.99C19.269 163.025 18.3239 162.942 18.2761 162.08C18.2296 161.247 19.1602 161.287 19.7694 161.222C21.8243 160.997 23.7995 160.441 25.7522 159.798C28.4774 158.902 31.1389 157.743 34.2822 157.896Z" fill="#4A5568"/>
<path d="M76.3324 162.481C72.675 163.015 68.9573 162.967 65.3148 162.338C64.7612 162.238 63.8679 162.228 63.917 161.631C63.9834 160.845 64.894 160.961 65.5099 161.022C69.1962 161.372 72.9143 161.496 76.3324 162.481Z" fill="#4A5568"/>
<path d="M110.128 47.8438C110.095 48.6737 109.673 49.3319 109.117 49.8695C104.376 54.448 99.3216 58.6135 93.5565 61.8338C93.5068 61.8653 93.4538 61.8914 93.3986 61.9115C92.695 62.1368 91.7698 62.8245 91.3079 62.0456C90.7198 61.0522 91.9835 60.906 92.5238 60.5146C97.1393 57.1629 101.123 53.11 105.194 49.1456C106.083 48.2808 107.017 47.459 107.971 46.668C108.383 46.3275 108.891 46.1317 109.442 46.483C109.946 46.8061 110.122 47.2767 110.128 47.8438Z" fill="#4A5568"/>
<path d="M145.329 56.9578C145.214 57.7998 144.63 57.8145 144.027 57.6054C142.529 57.0865 141.052 56.5047 139.705 55.6413C136.45 53.5538 133.839 50.737 131.239 47.9216C130.497 47.1172 129.646 45.8047 130.442 44.9788C131.133 44.2562 132.557 44.7107 133.537 45.3944C134.897 46.3463 136.027 47.5556 137.146 48.7689C139.308 51.1124 141.477 53.4399 144.107 55.2752C144.69 55.6775 145.213 56.1641 145.329 56.9578Z" fill="#4A5568"/>
<path d="M134.144 57.3688C135.647 57.354 136.835 58.6143 136.879 60.27C136.928 62.0598 135.783 63.3844 134.198 63.375C133.815 63.3753 133.436 63.2983 133.083 63.1486C132.729 62.9988 132.409 62.7794 132.141 62.503C131.873 62.2267 131.662 61.8991 131.52 61.5394C131.379 61.1796 131.31 60.795 131.318 60.4081C131.33 58.7349 132.586 57.3808 134.144 57.3688Z" fill="#4A5568"/>
<path d="M104.252 65.3009C103.004 65.1803 102.303 64.3557 102.277 62.9842C102.249 61.484 103.672 59.965 104.999 60.0535C106.327 60.142 106.971 60.992 107.005 62.283C107.049 63.8892 105.796 65.3143 104.252 65.3009Z" fill="#4A5568"/>
<path d="M143.362 107.836C145.619 106.391 148.06 106.538 150.07 108.238C147.743 108.978 145.591 109.072 143.362 107.836Z" fill="#4A5568"/>
<path d="M147.532 101.274C149.948 100.59 152.371 100.692 154.8 101.231C152.388 101.849 149.968 101.772 147.532 101.274Z" fill="#4A5568"/>
<path d="M146.774 104.439C149.011 103.43 150.735 103.601 152.449 104.398C150.714 104.884 148.987 104.848 146.774 104.439Z" fill="#4A5568"/>
<path d="M111.41 112.922C109.508 113.395 108.092 112.761 106.65 112.349C106.351 112.265 106.105 112.092 106.252 111.718C106.304 111.576 106.408 111.46 106.542 111.393C106.676 111.325 106.83 111.312 106.974 111.355C108.38 111.688 109.853 111.833 111.41 112.922Z" fill="#4A5568"/>
</g>
<defs>
<clipPath id="clip0_4663_350435">
<rect width="209" height="163" fill="white"/>
</clipPath>
</defs>
</svg>
