<svg width="24" height="24" viewBox="0 0 24 24" fill="none" xmlns="http://www.w3.org/2000/svg">
<g id="Key password icon">
<path id="Shape" fill-rule="evenodd" clip-rule="evenodd" d="M21 9.746C21.0006 11.8847 19.9883 13.8973 18.2712 15.1714C16.554 16.4455 14.3349 16.8305 12.2891 16.2092L12 16.4984L10.875 17.6238L9.75 18.7492H7.5V21H3V16.4984L7.78912 11.7076C7.02229 9.17163 7.80885 6.42139 9.80043 4.6749C11.792 2.9284 14.6206 2.50841 17.0334 3.60093C19.4463 4.69345 20.9974 7.09657 21 9.746ZM14.248 5.24433C13.6267 5.24433 13.123 5.74819 13.123 6.36973C13.123 6.99127 13.6267 7.49513 14.248 7.49513C15.4907 7.49513 16.498 8.50285 16.498 9.74593C16.498 10.3675 17.0017 10.8713 17.623 10.8713C18.2444 10.8713 18.748 10.3675 18.748 9.74593C18.748 7.25976 16.7333 5.24433 14.248 5.24433Z" fill="#333333"/>
</g>
</svg>
