<svg width="33" height="32" viewBox="0 0 33 32" fill="none" xmlns="http://www.w3.org/2000/svg">
<path d="M18.0718 18.0532L16.4996 19.5863L14.9273 18.0532C13.2785 16.4455 12.3329 14.2165 12.3329 11.9367C12.3329 9.65689 13.2785 7.4279 14.9273 5.82021L16.4996 4.28711L18.0718 5.82021C19.7206 7.4279 20.6662 9.65689 20.6662 11.9367C20.6662 14.2165 19.7206 16.4455 18.0718 18.0532Z" fill="#589DC0"/>
<path d="M3.84229 16.9105C4.48134 16.2877 5.15962 15.8162 5.81018 15.4356C7.56645 18.6347 10.9963 20.8199 14.9837 20.8685C13.4877 21.9156 11.7112 22.5001 9.8329 22.5001C7.58273 22.5001 5.59357 21.6708 3.84229 19.964L2.27734 18.4372L3.84229 16.9105Z" fill="#589DC0"/>
<path d="M18.5152 20.806C20.1639 20.6075 24.6459 20.0679 27.1891 15.4356C27.8396 15.8163 28.5178 16.2878 29.1568 16.9105L30.7218 18.4372L29.1568 19.964C27.4056 21.6708 25.4164 22.5001 23.1662 22.5001C21.2913 22.5001 19.5178 21.9183 18.0234 20.8749C18.1314 20.8522 18.2989 20.832 18.5152 20.806Z" fill="#589DC0"/>
<path d="M13.1178 23.6102C13.5538 24.5541 14.1585 25.4292 14.9338 26.1852L16.4996 27.7119L18.0653 26.1852C18.8386 25.4312 19.4414 24.5546 19.8778 23.609C18.6552 23.219 17.5105 22.6175 16.4996 21.8104C15.4878 22.6183 14.3418 23.2202 13.1178 23.6102Z" fill="#589DC0"/>
<path d="M13.6647 19.1113C11.7606 17.2084 10.6662 14.6031 10.6662 11.9367C10.6662 10.8863 10.8398 9.84643 11.1611 8.85353C10.2882 8.57736 9.37251 8.4317 8.4519 8.4317H6.23834V10.5901C6.23834 14.7795 9.30007 18.4115 13.6647 19.1113Z" fill="#589DC0"/>
<path d="M26.7608 8.4317V10.5901C26.7608 14.7845 23.6945 18.4122 19.3345 19.1113C21.2386 17.2084 22.3329 14.6031 22.3329 11.9367C22.3329 10.8863 22.1593 9.84643 21.838 8.85353C22.7109 8.57742 23.6266 8.4317 24.5472 8.4317H26.7608Z" fill="#589DC0"/>
</svg>
