<svg width="18" height="18" viewBox="0 0 18 18" fill="none" xmlns="http://www.w3.org/2000/svg">
<path d="M9.86471 10.1299L8.99996 10.9731L8.1352 10.1299C7.22838 9.24569 6.70829 8.01975 6.70829 6.76586C6.70829 5.51197 7.22838 4.28603 8.1352 3.4018L8.99996 2.55859L9.86471 3.4018C10.7715 4.28603 11.2916 5.51197 11.2916 6.76586C11.2916 8.01975 10.7715 9.24569 9.86471 10.1299Z" fill="#CCCCCC"/>
<path d="M2.03845 9.50144C2.38993 9.1589 2.76299 8.8996 3.12079 8.69027C4.08675 10.4498 5.97319 11.6516 8.16625 11.6784C7.34342 12.2542 6.36637 12.5757 5.33329 12.5757C4.0957 12.5757 3.00166 12.1196 2.03845 11.1809L1.17773 10.3412L2.03845 9.50144Z" fill="#CCCCCC"/>
<path d="M10.1086 11.644C11.0153 11.5348 13.4805 11.238 14.8792 8.69027C15.237 8.89966 15.61 9.15896 15.9615 9.50144L16.8222 10.3412L15.9615 11.1809C14.9983 12.1196 13.9042 12.5757 12.6666 12.5757C11.6354 12.5757 10.66 12.2558 9.83807 11.6819C9.89746 11.6694 9.9896 11.6583 10.1086 11.644Z" fill="#CCCCCC"/>
<path d="M7.13998 13.1863C7.37978 13.7054 7.71235 14.1867 8.13878 14.6025L8.99996 15.4423L9.86113 14.6025C10.2864 14.1879 10.618 13.7057 10.858 13.1856C10.1855 12.9711 9.55595 12.6403 8.99999 12.1964C8.44348 12.6408 7.81321 12.9718 7.13998 13.1863Z" fill="#CCCCCC"/>
<path d="M7.44077 10.7119C6.39351 9.66528 5.79162 8.23239 5.79162 6.76586C5.79162 6.18812 5.88708 5.61622 6.06381 5.07012C5.58372 4.91823 5.08008 4.83812 4.57374 4.83812H3.35628V6.02524C3.35628 8.3294 5.04023 10.327 7.44077 10.7119Z" fill="#CCCCCC"/>
<path d="M14.6436 4.83812V6.02524C14.6436 8.33214 12.9572 10.3274 10.5591 10.7119C11.6064 9.66528 12.2083 8.23239 12.2083 6.76586C12.2083 6.18812 12.1128 5.61622 11.9361 5.07012C12.4162 4.91826 12.9198 4.83812 13.4262 4.83812H14.6436Z" fill="#CCCCCC"/>
</svg>
