<svg width="24" height="24" viewBox="0 0 24 24" fill="none" xmlns="http://www.w3.org/2000/svg">
<g id="Lotus">
<g id="Combined Shape">
<path d="M13.1794 13.5404L12.0002 14.6902L10.821 13.5404C9.58437 12.3346 8.87516 10.6628 8.87516 8.953C8.87516 7.24315 9.58437 5.57142 10.821 4.36565L12.0002 3.21582L13.1794 4.36565C14.416 5.57142 15.1252 7.24315 15.1252 8.953C15.1252 10.6628 14.416 12.3346 13.1794 13.5404Z" fill="#ffffff"/>
<path d="M2.5072 12.6833C2.9865 12.2162 3.4952 11.8626 3.98312 11.5772C5.30033 13.9765 7.87275 15.6154 10.8633 15.6519C9.74125 16.4372 8.40891 16.8755 7.00016 16.8755C5.31254 16.8755 3.82066 16.2536 2.5072 14.9735L1.3335 13.8284L2.5072 12.6833Z" fill="#ffffff"/>
<path d="M13.5119 15.605C14.7484 15.4561 18.1099 15.0514 20.0173 11.5772C20.5052 11.8627 21.0138 12.2163 21.4931 12.6833L22.6668 13.8284L21.4931 14.9735C20.1797 16.2536 18.6878 16.8755 17.0002 16.8755C15.594 16.8755 14.2639 16.4392 13.143 15.6567C13.224 15.6396 13.3497 15.6245 13.5119 15.605Z" fill="#ffffff"/>
<path d="M9.46383 17.7081C9.79083 18.4161 10.2443 19.0724 10.8258 19.6394L12.0002 20.7844L13.1745 19.6394C13.7544 19.0739 14.2065 18.4164 14.5338 17.7073C13.6169 17.4147 12.7583 16.9636 12.0002 16.3583C11.2413 16.9642 10.3819 17.4156 9.46383 17.7081Z" fill="#ffffff"/>
<path d="M9.874 14.334C8.44591 12.9068 7.62516 10.9528 7.62516 8.953C7.62516 8.16518 7.75533 7.38531 7.99633 6.64063C7.34166 6.43351 6.65487 6.32426 5.96441 6.32426H4.30425V7.94306C4.30425 11.0851 6.60054 13.8091 9.874 14.334Z" fill="#ffffff"/>
<path d="M19.6961 6.32426V7.94306C19.6961 11.0888 17.3964 13.8096 14.1263 14.334C15.5544 12.9068 16.3752 10.9528 16.3752 8.953C16.3752 8.16518 16.245 7.38531 16.004 6.64063C16.6587 6.43355 17.3455 6.32426 18.0359 6.32426H19.6961Z" fill="#ffffff"/>
</g>
</g>
</svg>
