<svg width="36" height="36" viewBox="0 0 36 36" fill="none" xmlns="http://www.w3.org/2000/svg">
<path fill-rule="evenodd" clip-rule="evenodd" d="M0.418377 11.8359C1.18189 5.8334 5.8334 1.18189 11.8359 0.418377C13.789 0.169939 15.8945 0 18 0C20.1055 0 22.211 0.169939 24.1641 0.418377C30.1666 1.18189 34.8181 5.8334 35.5816 11.8359C35.8301 13.789 36 15.8945 36 18C36 20.1055 35.8301 22.211 35.5816 24.1641C34.8181 30.1666 30.1666 34.8181 24.1641 35.5816C22.211 35.8301 20.1055 36 18 36C15.8945 36 13.789 35.8301 11.8359 35.5816C5.8334 34.8181 1.1819 30.1666 0.418377 24.1641C0.169939 22.211 0 20.1055 0 18C0 15.8945 0.169939 13.789 0.418377 11.8359Z" fill="url(#paint0_linear_4837_44345)"/>
<path d="M22.9 11.5H13.1C11.9407 11.5012 11.0012 12.4407 11 13.6V20.6C11.0012 21.7593 11.9407 22.6988 13.1 22.7H21.2102L23.805 25.2948C24.0052 25.495 24.3063 25.5548 24.5678 25.4465C24.8293 25.3382 24.9999 25.083 24.9999 24.7999V13.6C24.9988 12.4407 24.0593 11.5012 22.9 11.5Z" fill="white"/>
<defs>
<linearGradient id="paint0_linear_4837_44345" x1="36" y1="18" x2="5.06924" y2="30.5218" gradientUnits="userSpaceOnUse">
<stop stop-color="#1D6CAB"/>
<stop offset="1" stop-color="#589DC0"/>
</linearGradient>
</defs>
</svg>
