<svg width="36" height="36" viewBox="0 0 36 36" fill="none" xmlns="http://www.w3.org/2000/svg">
<path fill-rule="evenodd" clip-rule="evenodd" d="M0.418377 11.8359C1.18189 5.8334 5.8334 1.18189 11.8359 0.418377C13.789 0.169939 15.8945 0 18 0C20.1055 0 22.211 0.169939 24.1641 0.418377C30.1666 1.18189 34.8181 5.8334 35.5816 11.8359C35.8301 13.789 36 15.8945 36 18C36 20.1055 35.8301 22.211 35.5816 24.1641C34.8181 30.1666 30.1666 34.8181 24.1641 35.5816C22.211 35.8301 20.1055 36 18 36C15.8945 36 13.789 35.8301 11.8359 35.5816C5.8334 34.8181 1.1819 30.1666 0.418377 24.1641C0.169939 22.211 0 20.1055 0 18C0 15.8945 0.169939 13.789 0.418377 11.8359Z" fill="url(#paint0_linear_4837_44464)"/>
<path d="M19.5993 16.2497H23.0994C23.8694 16.2497 24.4994 16.8797 24.4994 17.6498L23.7994 23.2499C23.7994 24.0199 23.1694 24.6499 22.3994 24.6499H17.4993C16.739 24.6499 15.9787 24.5033 15.3001 24.2102V24.6496C15.3001 25.0697 15.02 25.3497 14.6 25.3497H13.2C12.78 25.3497 12.5 25.0697 12.5 24.6496V18.3495C12.5 17.9295 12.78 17.6495 13.2 17.6495H14.6C14.634 17.6495 14.6671 17.6513 14.6992 17.6549V16.6697L16.7993 14.1497V11.3496C16.7993 10.7896 17.3593 10.5096 17.8493 10.7196C18.8993 11.3496 19.5993 12.9597 19.5993 14.1497V16.2497Z" fill="white"/>
<defs>
<linearGradient id="paint0_linear_4837_44464" x1="36" y1="18" x2="5.06924" y2="30.5218" gradientUnits="userSpaceOnUse">
<stop stop-color="#1D6CAB"/>
<stop offset="1" stop-color="#589DC0"/>
</linearGradient>
</defs>
</svg>
