<svg width="36" height="36" viewBox="0 0 36 36" fill="none" xmlns="http://www.w3.org/2000/svg">
<path fill-rule="evenodd" clip-rule="evenodd" d="M0.418377 11.8359C1.18189 5.8334 5.8334 1.18189 11.8359 0.418377C13.789 0.169939 15.8945 0 18 0C20.1055 0 22.211 0.169939 24.1641 0.418377C30.1666 1.18189 34.8181 5.8334 35.5816 11.8359C35.8301 13.789 36 15.8945 36 18C36 20.1055 35.8301 22.211 35.5816 24.1641C34.8181 30.1666 30.1666 34.8181 24.1641 35.5816C22.211 35.8301 20.1055 36 18 36C15.8945 36 13.789 35.8301 11.8359 35.5816C5.8334 34.8181 1.1819 30.1666 0.418377 24.1641C0.169939 22.211 0 20.1055 0 18C0 15.8945 0.169939 13.789 0.418377 11.8359Z" fill="url(#paint0_linear_4837_44477)"/>
<path d="M18.9397 19.2274L18 20.1436L17.0603 19.2274C16.0749 18.2665 15.5098 16.9344 15.5098 15.5718C15.5098 14.2093 16.0749 12.8771 17.0603 11.9163L18 11L18.9397 11.9163C19.9251 12.8771 20.4902 14.2093 20.4902 15.5718C20.4902 16.9344 19.9251 18.2665 18.9397 19.2274Z" fill="white"/>
<path d="M10.4353 18.5444C10.8172 18.1722 11.2226 17.8904 11.6114 17.663C12.6611 19.575 14.711 20.8809 17.0941 20.91C16.1999 21.5358 15.1382 21.8851 14.0156 21.8851C12.6708 21.8851 11.482 21.3895 10.4353 20.3694L9.5 19.4569L10.4353 18.5444Z" fill="white"/>
<path d="M19.2047 20.8726C20.19 20.754 22.8687 20.4315 24.3886 17.663C24.7774 17.8905 25.1828 18.1723 25.5647 18.5444L26.5 19.4569L25.5647 20.3694C24.518 21.3895 23.3292 21.8851 21.9844 21.8851C20.8638 21.8851 19.8039 21.5374 18.9107 20.9138C18.9753 20.9002 19.0754 20.8882 19.2047 20.8726Z" fill="white"/>
<path d="M15.9789 22.5486C16.2394 23.1127 16.6008 23.6357 17.0642 24.0875L18 25L18.9358 24.0875C19.3979 23.6369 19.7582 23.113 20.019 22.5479C19.2883 22.3148 18.6042 21.9553 18 21.4729C17.3953 21.9558 16.7104 22.3155 15.9789 22.5486Z" fill="white"/>
<path d="M16.3057 19.8598C15.1677 18.7225 14.5137 17.1654 14.5137 15.5718C14.5137 14.944 14.6174 14.3226 14.8094 13.7291C14.2878 13.5641 13.7405 13.477 13.1903 13.477H11.8673V14.767C11.8673 17.2708 13.6972 19.4415 16.3057 19.8598Z" fill="white"/>
<path d="M24.1327 13.477V14.767C24.1327 17.2738 22.3001 19.4419 19.6943 19.8598C20.8323 18.7225 21.4863 17.1654 21.4863 15.5718C21.4863 14.944 21.3826 14.3226 21.1906 13.7291C21.7122 13.5641 22.2595 13.477 22.8097 13.477H24.1327Z" fill="white"/>
<defs>
<linearGradient id="paint0_linear_4837_44477" x1="36" y1="18" x2="5.06924" y2="30.5218" gradientUnits="userSpaceOnUse">
<stop stop-color="#1D6CAB"/>
<stop offset="1" stop-color="#589DC0"/>
</linearGradient>
</defs>
</svg>
