<svg width="36" height="36" viewBox="0 0 36 36" fill="none" xmlns="http://www.w3.org/2000/svg">
<path fill-rule="evenodd" clip-rule="evenodd" d="M0.418377 11.8359C1.18189 5.8334 5.8334 1.18189 11.8359 0.418377C13.789 0.169939 15.8945 0 18 0C20.1055 0 22.211 0.169939 24.1641 0.418377C30.1666 1.18189 34.8181 5.8334 35.5816 11.8359C35.8301 13.789 36 15.8945 36 18C36 20.1055 35.8301 22.211 35.5816 24.1641C34.8181 30.1666 30.1666 34.8181 24.1641 35.5816C22.211 35.8301 20.1055 36 18 36C15.8945 36 13.789 35.8301 11.8359 35.5816C5.8334 34.8181 1.1819 30.1666 0.418377 24.1641C0.169939 22.211 0 20.1055 0 18C0 15.8945 0.169939 13.789 0.418377 11.8359Z" fill="#EBEBEB"/>
<path fill-rule="evenodd" clip-rule="evenodd" d="M14.6101 10.8275C16.229 10.0625 18.059 9.86757 19.8027 10.2745C21.5464 10.6814 23.1011 11.6662 24.2141 13.0688C25.3272 14.4714 25.933 16.2092 25.9331 17.9997V18.7081C25.9331 19.4971 25.6196 20.2538 25.0617 20.8118C24.5038 21.3697 23.7471 21.6831 22.9581 21.6831C22.1691 21.6831 21.4124 21.3697 20.8544 20.8118C20.7776 20.7349 20.7053 20.6542 20.6379 20.5702C19.9689 21.2568 19.0341 21.6831 17.9997 21.6831C15.9655 21.6831 14.3164 20.034 14.3164 17.9998C14.3164 15.9655 15.9655 14.3165 17.9997 14.3165C18.7456 14.3165 19.4396 14.5381 20.0196 14.9192C20.1255 14.5703 20.4496 14.3165 20.8331 14.3165C21.3025 14.3165 21.6831 14.697 21.6831 15.1665V18.7081C21.6831 19.0463 21.8174 19.3706 22.0565 19.6097C22.2956 19.8488 22.6199 19.9831 22.9581 19.9831C23.2962 19.9831 23.6205 19.8488 23.8596 19.6097C24.0988 19.3706 24.2331 19.0463 24.2331 18.7081V17.9998C24.2331 17.9998 24.2331 17.9999 24.2331 17.9998C24.233 16.593 23.757 15.2275 22.8825 14.1255C22.008 13.0235 20.7864 12.2497 19.4164 11.93C18.0463 11.6103 16.6084 11.7634 15.3365 12.3645C14.0645 12.9656 13.0333 13.9793 12.4105 15.2408C11.7877 16.5023 11.6099 17.9373 11.9061 19.3127C12.2024 20.688 12.9551 21.9226 14.042 22.8159C15.1289 23.7091 16.4859 24.2085 17.8926 24.2326C19.2992 24.2568 20.6727 23.8045 21.7896 22.9491C22.1623 22.6637 22.6958 22.7344 22.9813 23.1072C23.2667 23.4799 23.1959 24.0134 22.8232 24.2988C21.4016 25.3874 19.6536 25.9632 17.8633 25.9324C16.0731 25.9016 14.3459 25.2661 12.9626 24.1292C11.5793 22.9924 10.6212 21.421 10.2443 19.6706C9.86726 17.9202 10.0935 16.0937 10.8861 14.4882C11.6788 12.8827 12.9912 11.5925 14.6101 10.8275ZM19.9831 17.9998C19.9831 16.9044 19.0951 16.0165 17.9997 16.0165C16.9044 16.0165 16.0164 16.9044 16.0164 17.9998C16.0164 19.0952 16.9044 19.9831 17.9997 19.9831C19.0951 19.9831 19.9831 19.0952 19.9831 17.9998Z" fill="white"/>
</svg>
