<svg width="15" height="14" viewBox="0 0 15 14" fill="none" xmlns="http://www.w3.org/2000/svg">
<path fill-rule="evenodd" clip-rule="evenodd" d="M13.074 0.495283L14.4959 1.91509C15.1572 2.57547 15.1572 3.63208 14.529 4.29245L5.53496 13.2736C5.50189 13.3066 5.46882 13.3396 5.43576 13.3396H5.40269H5.36962L1.40168 14H1.33555C1.23635 14 1.17022 13.967 1.10409 13.9009C1.03796 13.8019 0.971823 13.7028 1.00489 13.6038L1.66621 9.64151V9.60849V9.57547C1.68275 9.55896 1.69101 9.54245 1.69928 9.52594C1.70755 9.50943 1.71581 9.49292 1.73234 9.47641L10.7594 0.495283C11.057 0.165094 11.4869 0 11.9167 0C12.3466 0 12.7764 0.198113 13.074 0.495283ZM1.93074 11.8208L3.12112 13.0094L4.57604 12.7783L2.1622 10.3679L1.93074 11.8208ZM10.1973 5.25L4.8075 10.6321C4.74137 10.6981 4.64217 10.7311 4.57604 10.7311C4.47684 10.7311 4.4107 10.6981 4.34457 10.6321C4.21231 10.5 4.21231 10.3019 4.34457 10.1698L9.73436 4.78774C9.86662 4.65566 10.065 4.65566 10.1973 4.78774C10.3295 4.91981 10.3295 5.11792 10.1973 5.25ZM9.70129 2.4434L12.545 5.28302L13.4047 4.42453L10.561 1.58491L9.70129 2.4434Z" fill="#1F6EAC"/>
</svg>
