<svg width="24" height="24" viewBox="0 0 24 24" fill="none" xmlns="http://www.w3.org/2000/svg">
<g id="Profile icon">
<path id="Shape" fill-rule="evenodd" clip-rule="evenodd" d="M21.5435 3.729H17.7261C17.3749 3.729 17.0898 4.01404 17.0898 4.36523C17.0898 5.067 16.5191 5.6377 15.8174 5.6377C15.1156 5.6377 14.5449 5.067 14.5449 4.36523C14.5449 4.01404 14.2599 3.729 13.9087 3.729H10.0913C9.74011 3.729 9.45508 4.01404 9.45508 4.36523C9.45508 5.067 8.88438 5.6377 8.18262 5.6377C7.48085 5.6377 6.91016 5.067 6.91016 4.36523C6.91016 4.01404 6.62512 3.729 6.27393 3.729H2.45654C2.10534 3.729 1.82031 4.01404 1.82031 4.36523V19.6348C1.82031 19.986 2.10534 20.271 2.45654 20.271H21.5435C21.8947 20.271 22.1797 19.986 22.1797 19.6348V4.36523C22.1797 4.01404 21.8947 3.729 21.5435 3.729ZM8.18404 9.45506C8.88707 9.45506 9.4565 10.0245 9.4565 10.7275C9.4565 11.4306 8.88707 12 8.18404 12C7.48101 12 6.91158 11.4306 6.91158 10.7275C6.91158 10.0245 7.48101 9.45506 8.18404 9.45506ZM7.54612 13.2725C6.14069 13.2725 5.0012 14.412 5.0012 15.8174H11.3635C11.3635 14.412 10.224 13.2725 8.81858 13.2725H7.54612ZM18.9976 15.1811H13.2715V13.9086H18.9976V15.1811ZM13.2715 12H18.9976V10.7275H13.2715V12Z" fill="#333333"/>
</g>
</svg>
