<svg width="28" height="28" viewBox="0 0 28 28" fill="none" xmlns="http://www.w3.org/2000/svg">
<rect width="28" height="28" rx="14" fill="#F3F2F6"/>
<path d="M16.7234 9.11474C16.8893 9.2108 17.0856 9.23605 17.2697 9.18497C17.4537 9.1339 17.6105 9.01064 17.7058 8.8421C17.7847 8.70016 17.9075 8.58892 18.055 8.52584C18.2025 8.46275 18.3664 8.45139 18.5209 8.49354C18.6754 8.53568 18.8118 8.62895 18.9088 8.7587C19.0058 8.88846 19.0578 9.04738 19.0566 9.21053C19.0566 9.40595 18.9805 9.59337 18.8451 9.73155C18.7096 9.86974 18.5259 9.94737 18.3343 9.94737C18.1427 9.94737 17.9589 10.025 17.8235 10.1632C17.688 10.3014 17.6119 10.4888 17.6119 10.6842C17.6119 10.8796 17.688 11.0671 17.8235 11.2052C17.9589 11.3434 18.1427 11.4211 18.3343 11.4211C18.7146 11.4208 19.0882 11.3185 19.4175 11.1243C19.7468 10.9301 20.0202 10.651 20.2102 10.3149C20.4002 9.97878 20.5002 9.59761 20.5 9.20964C20.4998 8.82167 20.3996 8.44058 20.2093 8.10465C20.019 7.76872 19.7454 7.48979 19.416 7.29589C19.0866 7.10199 18.7129 6.99994 18.3325 7C17.9522 7.00006 17.5786 7.10223 17.2492 7.29624C16.9198 7.49025 16.6463 7.76927 16.4561 8.10526C16.4083 8.18936 16.3774 8.28227 16.365 8.37863C16.3525 8.47499 16.3589 8.57291 16.3838 8.66674C16.4086 8.76057 16.4514 8.84846 16.5097 8.92534C16.568 9.00223 16.6406 9.0666 16.7234 9.11474ZM19.8296 14.3684C19.64 14.3433 19.4483 14.3959 19.2967 14.5147C19.145 14.6335 19.0457 14.8088 19.0205 15.0021C18.8689 16.2512 18.2748 17.4006 17.3501 18.2339C16.4254 19.0672 15.2339 19.5269 14 19.5263H9.96198L10.4315 19.0474C10.5661 18.9093 10.6416 18.7226 10.6416 18.5279C10.6416 18.3332 10.5661 18.1465 10.4315 18.0084C9.72717 17.2871 9.24783 16.3694 9.05388 15.3707C8.85993 14.3721 8.96004 13.3372 9.34161 12.3965C9.72317 11.4558 10.3691 10.6513 11.1981 10.0843C12.0271 9.51739 13.002 9.21335 14 9.21053C14.1916 9.21053 14.3754 9.13289 14.5108 8.99471C14.6463 8.85652 14.7224 8.66911 14.7224 8.47368C14.7224 8.27826 14.6463 8.09084 14.5108 7.95266C14.3754 7.81447 14.1916 7.73684 14 7.73684C12.7787 7.74204 11.5834 8.09807 10.5513 8.76414C9.51913 9.43022 8.69178 10.3794 8.16404 11.5029C7.6363 12.6265 7.4295 13.8789 7.56735 15.1168C7.70519 16.3547 8.1821 17.5279 8.94343 18.5021L7.70818 19.74C7.60794 19.8436 7.54004 19.9752 7.51304 20.1181C7.48605 20.2611 7.50116 20.409 7.55648 20.5432C7.61067 20.6777 7.7027 20.7929 7.82097 20.8742C7.93923 20.9555 8.07845 20.9993 8.22106 21H14C15.5831 21.0002 17.1118 20.4113 18.2995 19.3436C19.4871 18.276 20.2521 16.803 20.4508 15.2011C20.464 15.1047 20.4584 15.0067 20.4343 14.9126C20.4102 14.8184 20.368 14.7301 20.3102 14.6527C20.2525 14.5753 20.1803 14.5103 20.0978 14.4615C20.0153 14.4128 19.9241 14.3811 19.8296 14.3684ZM18.6088 12.2095C18.4773 12.1501 18.3314 12.1322 18.1898 12.1579L18.0598 12.2021L17.9297 12.2684L17.8214 12.3642C17.7564 12.4321 17.7049 12.5122 17.6697 12.6C17.627 12.6919 17.6071 12.7931 17.6119 12.8947C17.6098 12.993 17.627 13.0907 17.6625 13.1821C17.6998 13.2705 17.7538 13.3506 17.8214 13.4179C17.8889 13.4862 17.9689 13.5402 18.0569 13.5769C18.145 13.6136 18.2392 13.6321 18.3343 13.6316C18.5259 13.6316 18.7096 13.5539 18.8451 13.4158C18.9805 13.2776 19.0566 13.0902 19.0566 12.8947C19.0591 12.7981 19.0393 12.7022 18.9989 12.6147C18.9212 12.4377 18.7824 12.296 18.6088 12.2168V12.2095Z" fill="#394251"/>
</svg>
