<svg width="38" height="38" viewBox="0 0 38 38" fill="none" xmlns="http://www.w3.org/2000/svg">
<rect width="38" height="38" rx="19" fill="#F3F2F6"/>
<path d="M27 16.5V13.8C27 12.1198 27 11.2798 26.673 10.638C26.3854 10.0735 25.9265 9.6146 25.362 9.32698C24.7202 9 23.8802 9 22.2 9H15.8C14.1198 9 13.2798 9 12.638 9.32698C12.0735 9.6146 11.6146 10.0735 11.327 10.638C11 11.2798 11 12.1198 11 13.8V24.2C11 25.8802 11 26.7202 11.327 27.362C11.6146 27.9265 12.0735 28.3854 12.638 28.673C13.2798 29 14.1198 29 15.8 29H21M21 18H15M17 22H15M23 14H15M23.5 22.0022C23.6762 21.5014 24.024 21.079 24.4817 20.81C24.9395 20.5409 25.4777 20.4426 26.001 20.5324C26.5243 20.6221 26.999 20.8942 27.3409 21.3004C27.6829 21.7066 27.87 22.2207 27.8692 22.7517C27.8692 24.2506 25.6209 25 25.6209 25M25.6499 28H25.6599" stroke="#394251" strokeWidth="2" strokeLinecap="round" strokeLinejoin="round"/>
</svg>
