<svg width="40" height="40" viewBox="0 0 40 40" fill="none" xmlns="http://www.w3.org/2000/svg">
<circle cx="20" cy="20" r="19.5" stroke="#8ECF4A"/>
<path d="M20 29C21.1046 29 22 28.1046 22 27H18C18 28.1046 18.8954 29 20 29Z" fill="#8ECF4A"/>
<path d="M20.9952 14.099C20.9984 14.0665 21 14.0334 21 14C21 13.4477 20.5523 13 20 13C19.4477 13 19 13.4477 19 14C19 14.0334 19.0016 14.0665 19.0048 14.099C16.7202 14.5604 15 16.5793 15 19C15 20.0976 14.5 25 13 26H27C25.5 25 25 20.0976 25 19C25 16.5793 23.2798 14.5604 20.9952 14.099Z" fill="#8ECF4A"/>
</svg>
