<svg width="22" height="40" viewBox="0 0 22 40" fill="none" xmlns="http://www.w3.org/2000/svg">
<mask id="path-1-inside-1_1023_40598" fill="white">
<path d="M11.0001 15L16.0001 20L11.0001 25L9.93945 23.9393L13.8788 20L9.93945 16.0607L11.0001 15Z"/>
</mask>
<path d="M11.0001 15L16.0001 20L11.0001 25L9.93945 23.9393L13.8788 20L9.93945 16.0607L11.0001 15Z" fill="white"/>
<path d="M16.0001 20L17.0608 21.0607L18.1214 20L17.0608 18.9393L16.0001 20ZM11.0001 15L12.0608 13.9393L11.0001 12.8787L9.93945 13.9393L11.0001 15ZM11.0001 25L9.93945 26.0607L11.0001 27.1213L12.0608 26.0607L11.0001 25ZM9.93945 16.0607L8.87879 15L7.81813 16.0607L8.87879 17.1213L9.93945 16.0607ZM9.93945 23.9393L8.87879 22.8787L7.81813 23.9393L8.87879 25L9.93945 23.9393ZM13.8788 20L14.9395 21.0607L16.0001 20L14.9395 18.9393L13.8788 20ZM17.0608 18.9393L12.0608 13.9393L9.93945 16.0607L14.9395 21.0607L17.0608 18.9393ZM12.0608 26.0607L17.0608 21.0607L14.9395 18.9393L9.93945 23.9393L12.0608 26.0607ZM9.93945 13.9393L8.87879 15L11.0001 17.1213L12.0608 16.0607L9.93945 13.9393ZM8.87879 25L9.93945 26.0607L12.0608 23.9393L11.0001 22.8787L8.87879 25ZM12.8181 18.9393L8.87879 22.8787L11.0001 25L14.9395 21.0607L12.8181 18.9393ZM8.87879 17.1213L12.8181 21.0607L14.9395 18.9393L11.0001 15L8.87879 17.1213Z" fill="#B3B3B3" mask="url(#path-1-inside-1_1023_40598)"/>
<mask id="path-3-inside-2_1023_40598" fill="white">
<path d="M4.93957 15L9.93957 20L4.93957 25L3.87891 23.9393L7.81825 20L3.87891 16.0607L4.93957 15Z"/>
</mask>
<path d="M4.93957 15L9.93957 20L4.93957 25L3.87891 23.9393L7.81825 20L3.87891 16.0607L4.93957 15Z" fill="white"/>
<path d="M9.93957 20L11.0002 21.0607L12.0609 20L11.0002 18.9393L9.93957 20ZM4.93957 15L6.00023 13.9393L4.93957 12.8787L3.87891 13.9393L4.93957 15ZM4.93957 25L3.87891 26.0607L4.93957 27.1213L6.00023 26.0607L4.93957 25ZM3.87891 16.0607L2.81825 15L1.75759 16.0607L2.81825 17.1213L3.87891 16.0607ZM3.87891 23.9393L2.81825 22.8787L1.75759 23.9393L2.81825 25L3.87891 23.9393ZM7.81825 20L8.87891 21.0607L9.93957 20L8.87891 18.9393L7.81825 20ZM11.0002 18.9393L6.00023 13.9393L3.87891 16.0607L8.87891 21.0607L11.0002 18.9393ZM6.00023 26.0607L11.0002 21.0607L8.87891 18.9393L3.87891 23.9393L6.00023 26.0607ZM3.87891 13.9393L2.81825 15L4.93957 17.1213L6.00023 16.0607L3.87891 13.9393ZM2.81825 25L3.87891 26.0607L6.00023 23.9393L4.93957 22.8787L2.81825 25ZM6.75759 18.9393L2.81825 22.8787L4.93957 25L8.87891 21.0607L6.75759 18.9393ZM2.81825 17.1213L6.75759 21.0607L8.87891 18.9393L4.93957 15L2.81825 17.1213Z" fill="#B3B3B3" mask="url(#path-3-inside-2_1023_40598)"/>
</svg>
