<svg width="38" height="20" viewBox="0 0 38 20" fill="none" xmlns="http://www.w3.org/2000/svg">
<rect width="38" height="20" rx="4" fill="#D87737"/>
<path d="M13.9773 5.27273V14H12.9545L8.19886 7.14773H8.11364V14H7.05682V5.27273H8.07955L12.8523 12.142H12.9375V5.27273H13.9773ZM18.6999 14.1364C18.0692 14.1364 17.5252 13.9972 17.0678 13.7188C16.6133 13.4375 16.2624 13.0455 16.0153 12.5426C15.771 12.0369 15.6488 11.4489 15.6488 10.7784C15.6488 10.108 15.771 9.51705 16.0153 9.00568C16.2624 8.49148 16.6062 8.09091 17.0465 7.80398C17.4897 7.5142 18.0067 7.36932 18.5977 7.36932C18.9386 7.36932 19.2752 7.42614 19.6076 7.53977C19.94 7.65341 20.2425 7.83807 20.5153 8.09375C20.788 8.34659 21.0053 8.68182 21.1673 9.09943C21.3292 9.51705 21.4102 10.0312 21.4102 10.642V11.0682H16.3647V10.1989H20.3874C20.3874 9.82955 20.3136 9.5 20.1658 9.21023C20.021 8.92045 19.8136 8.69176 19.5437 8.52415C19.2766 8.35653 18.9613 8.27273 18.5977 8.27273C18.1971 8.27273 17.8505 8.37216 17.5579 8.57102C17.2681 8.76705 17.0451 9.02273 16.8888 9.33807C16.7326 9.65341 16.6545 9.99148 16.6545 10.3523V10.9318C16.6545 11.4261 16.7397 11.8452 16.9102 12.1889C17.0835 12.5298 17.3235 12.7898 17.6303 12.9688C17.9371 13.1449 18.2937 13.233 18.6999 13.233C18.9641 13.233 19.2028 13.196 19.4158 13.1222C19.6317 13.0455 19.8178 12.9318 19.9741 12.7812C20.1303 12.6278 20.2511 12.4375 20.3363 12.2102L21.3079 12.483C21.2056 12.8125 21.0337 13.1023 20.7923 13.3523C20.5508 13.5994 20.2525 13.7926 19.8974 13.9318C19.5423 14.0682 19.1431 14.1364 18.6999 14.1364ZM24.4229 14L22.4286 7.45455H23.4854L24.9002 12.4659H24.9684L26.3661 7.45455H27.44L28.8207 12.4489H28.8888L30.3036 7.45455H31.3604L29.3661 14H28.3775L26.9457 8.97159H26.8434L25.4116 14H24.4229Z" fill="white"/>
</svg>
