<svg width="21" height="21" viewBox="0 0 21 21" fill="none" xmlns="http://www.w3.org/2000/svg">
<g id="user-plus-02">
<path id="Icon" d="M16.3327 8.83398V3.83398M13.8327 6.33398H18.8327M13.8327 18.0007V17.0007C13.8327 15.6005 13.8327 14.9005 13.5602 14.3657C13.3205 13.8953 12.9381 13.5128 12.4677 13.2731C11.9329 13.0007 11.2328 13.0007 9.83268 13.0007H6.16602C4.76588 13.0007 4.06582 13.0007 3.53104 13.2731C3.06063 13.5128 2.67818 13.8953 2.4385 14.3657C2.16602 14.9005 2.16602 15.6005 2.16602 17.0007V18.0007M10.916 6.75065C10.916 8.36148 9.61018 9.66732 7.99935 9.66732C6.38852 9.66732 5.08268 8.36148 5.08268 6.75065C5.08268 5.13982 6.38852 3.83398 7.99935 3.83398C9.61018 3.83398 10.916 5.13982 10.916 6.75065Z" stroke="#1F6EAC" stroke-width="1.6" stroke-linecap="round" stroke-linejoin="round"/>
</g>
</svg>
