<svg width="24" height="24" viewBox="0 0 24 24" fill="none" xmlns="http://www.w3.org/2000/svg">
<path fill-rule="evenodd" clip-rule="evenodd" d="M4 12C4 7.58065 7.58065 4 12 4C16.4194 4 20 7.58065 20 12C20 16.4194 16.4194 20 12 20C7.58065 20 4 16.4194 4 12ZM12.4161 16.4677L15.9839 12.7839C17.0226 11.7129 16.9613 9.93871 15.8065 8.95161C14.7968 8.09032 13.2935 8.24516 12.3677 9.2L12.0032 9.57419L11.6387 9.2C10.7129 8.24516 9.20968 8.09032 8.2 8.95161C7.04194 9.93871 6.98065 11.7129 8.01613 12.7839L11.5806 16.4677C11.8129 16.7065 12.1871 16.7065 12.4161 16.4677Z" fill="#FF5757"/>
</svg>
