<svg width="17" height="16" viewBox="0 0 17 16" fill="none" xmlns="http://www.w3.org/2000/svg">
<circle cx="8.5" cy="8" r="8" fill="#1F6EAC"/>
<path d="M8.50011 3C7.73317 2.99997 6.9765 3.17637 6.28864 3.51557C5.60078 3.85476 5.00017 4.34765 4.53327 4.95611C4.06638 5.56457 3.74571 6.27229 3.59608 7.02451C3.44645 7.77673 3.47187 8.55329 3.67037 9.29411C3.86887 10.0349 4.23514 10.7202 4.74082 11.2968C5.24651 11.8734 5.87807 12.326 6.58664 12.6194C7.29521 12.9129 8.0618 13.0395 8.82709 12.9893C9.59239 12.9391 10.3359 12.7135 11.0001 12.33C11.0598 12.2987 11.1126 12.2557 11.1553 12.2035C11.198 12.1513 11.2297 12.091 11.2485 12.0263C11.2673 11.9615 11.2728 11.8936 11.2646 11.8267C11.2565 11.7597 11.2349 11.6951 11.2012 11.6367C11.1674 11.5784 11.1222 11.5274 11.0683 11.4869C11.0143 11.4465 10.9527 11.4174 10.8873 11.4013C10.8218 11.3853 10.7537 11.3826 10.6871 11.3936C10.6206 11.4045 10.557 11.4288 10.5001 11.465C9.73755 11.9052 8.85108 12.0816 7.97813 11.9667C7.10518 11.8518 6.29453 11.4521 5.6719 10.8295C5.04928 10.2069 4.64946 9.39629 4.53446 8.52334C4.41946 7.65038 4.59571 6.76387 5.03586 6.00129C5.47601 5.2387 6.15548 4.64266 6.96889 4.3056C7.7823 3.96853 8.6842 3.90927 9.53471 4.13702C10.3852 4.36477 11.1368 4.86679 11.673 5.56523C12.2091 6.26367 12.4998 7.1195 12.5 8V8.375C12.5 8.60706 12.4078 8.82962 12.2437 8.99372C12.0797 9.15781 11.8571 9.25 11.625 9.25C11.393 9.25 11.1704 9.15781 11.0063 8.99372C10.8422 8.82962 10.7501 8.60706 10.7501 8.375V6.25C10.7501 6.11739 10.6974 5.99021 10.6036 5.89645C10.5099 5.80268 10.3827 5.75 10.2501 5.75C10.1338 5.74741 10.0203 5.78544 9.92901 5.85754C9.83775 5.92963 9.77448 6.03128 9.75008 6.145C9.38255 5.89079 8.94698 5.75315 8.50011 5.75C8.1237 5.7455 7.75218 5.83551 7.41957 6.0118C7.08696 6.18808 6.8039 6.44501 6.59631 6.75903C6.38871 7.07306 6.26323 7.43416 6.23134 7.80925C6.19945 8.18434 6.26218 8.56144 6.41379 8.906C6.5654 9.25057 6.80103 9.55158 7.09911 9.78149C7.39718 10.0114 7.74818 10.1628 8.11995 10.2219C8.49171 10.281 8.87237 10.2459 9.22705 10.1198C9.58172 9.99366 9.89909 9.78056 10.1501 9.5C10.3876 9.80766 10.7152 10.0336 11.0871 10.1465C11.4591 10.2594 11.857 10.2535 12.2254 10.1298C12.5939 10.0061 12.9147 9.77056 13.1431 9.45606C13.3715 9.14156 13.4963 8.76369 13.5 8.375V8C13.5 7.34339 13.3707 6.69321 13.1194 6.08658C12.8681 5.47995 12.4998 4.92876 12.0356 4.46447C11.5713 4.00017 11.0201 3.63188 10.4135 3.3806C9.80687 3.12933 9.1567 3 8.50011 3ZM8.50011 9.25C8.25289 9.25 8.01122 9.17669 7.80566 9.03934C7.60011 8.90199 7.43989 8.70676 7.34529 8.47835C7.25068 8.24995 7.22592 7.99861 7.27416 7.75614C7.32239 7.51366 7.44143 7.29093 7.61625 7.11612C7.79106 6.9413 8.01378 6.82225 8.25625 6.77402C8.49872 6.72579 8.75005 6.75054 8.97845 6.84515C9.20686 6.93976 9.40208 7.09998 9.53942 7.30554C9.67677 7.5111 9.75008 7.75277 9.75008 8C9.75008 8.33152 9.61839 8.64946 9.38397 8.88388C9.14956 9.1183 8.83162 9.25 8.50011 9.25Z" fill="white"/>
</svg>
