<svg width="20" height="20" viewBox="0 0 20 20" fill="none" xmlns="http://www.w3.org/2000/svg">
<g clip-path="url(#clip0_2108_146132)">
<path fill-rule="evenodd" clip-rule="evenodd" d="M6.01253 1.56207C7.91707 0.662029 10.0701 0.432736 12.1215 0.911468C14.1728 1.3902 16.002 2.5488 17.3114 4.19889C18.6208 5.84897 19.3335 7.89349 19.3337 9.99999V10.8334C19.3337 11.7616 18.9649 12.6519 18.3085 13.3083C17.6522 13.9646 16.7619 14.3334 15.8337 14.3334C14.9054 14.3334 14.0152 13.9646 13.3588 13.3083C13.2683 13.2178 13.1834 13.1229 13.104 13.0241C12.3169 13.8318 11.2172 14.3334 10.0003 14.3334C7.6071 14.3334 5.667 12.3933 5.667 10.0001C5.667 7.60682 7.6071 5.66672 10.0003 5.66672C10.8778 5.66672 11.6943 5.92751 12.3766 6.37581C12.5012 5.96541 12.8826 5.66672 13.3337 5.66672C13.886 5.66672 14.3337 6.11444 14.3337 6.66672V10.8334C14.3337 11.2312 14.4917 11.6127 14.773 11.894C15.0543 12.1754 15.4358 12.3334 15.8337 12.3334C16.2315 12.3334 16.613 12.1754 16.8943 11.894C17.1756 11.6127 17.3337 11.2312 17.3337 10.8334V10.0001C17.3337 10.0001 17.3337 10.0001 17.3337 10.0001C17.3336 8.34503 16.7736 6.73858 15.7447 5.44211C14.7159 4.14561 13.2787 3.23528 11.6669 2.85913C10.0551 2.48299 8.36349 2.66315 6.86706 3.37032C5.37063 4.07749 4.15743 5.27008 3.42472 6.75418C2.69202 8.23828 2.48291 9.92659 2.83139 11.5446C3.17987 13.1626 4.06545 14.6152 5.34413 15.666C6.62281 16.7169 8.21939 17.3044 9.87425 17.3328C11.5291 17.3613 13.1449 16.8291 14.459 15.8228C14.8975 15.487 15.5252 15.5702 15.8609 16.0087C16.1967 16.4472 16.1135 17.0749 15.675 17.4107C14.0026 18.6914 11.9461 19.3687 9.83987 19.3325C7.73367 19.2963 5.70167 18.5487 4.07426 17.2112C2.44685 15.8737 1.31975 14.025 0.876224 11.9657C0.432703 9.90641 0.698844 7.75765 1.63137 5.8688C2.56391 3.97995 4.10798 2.4621 6.01253 1.56207ZM12.3337 10.0001C12.3337 8.71139 11.289 7.66672 10.0003 7.66672C8.71167 7.66672 7.667 8.71139 7.667 10.0001C7.667 11.2887 8.71167 12.3334 10.0003 12.3334C11.289 12.3334 12.3337 11.2887 12.3337 10.0001Z" fill="#1F6EAC"/>
</g>
<defs>
<clipPath id="clip0_2108_146132">
<rect width="20" height="20" fill="white"/>
</clipPath>
</defs>
</svg>
