<svg width="16" height="16" viewBox="0 0 16 16" fill="none" xmlns="http://www.w3.org/2000/svg">
<path fill-rule="evenodd" clip-rule="evenodd" d="M0 8C0 3.58065 3.58065 0 8 0C12.4194 0 16 3.58065 16 8C16 12.4194 12.4194 16 8 16C3.58065 16 0 12.4194 0 8ZM8.41613 12.4677L11.9839 8.78387C13.0226 7.7129 12.9613 5.93871 11.8065 4.95161C10.7968 4.09032 9.29355 4.24516 8.36774 5.2L8.00323 5.57419L7.63871 5.2C6.7129 4.24516 5.20968 4.09032 4.2 4.95161C3.04194 5.93871 2.98065 7.7129 4.01613 8.78387L7.58065 12.4677C7.8129 12.7065 8.1871 12.7065 8.41613 12.4677Z" fill="#FF5757"/>
</svg>
