<svg width="20" height="20" viewBox="0 0 20 20" fill="none" xmlns="http://www.w3.org/2000/svg">
<path fill-rule="evenodd" clip-rule="evenodd" d="M15.8333 0.666748C16.3856 0.666748 16.8333 1.11446 16.8333 1.66675V3.16675H18.3333C18.8856 3.16675 19.3333 3.61446 19.3333 4.16675C19.3333 4.71903 18.8856 5.16675 18.3333 5.16675H16.8333V6.66675C16.8333 7.21903 16.3856 7.66675 15.8333 7.66675C15.281 7.66675 14.8333 7.21903 14.8333 6.66675V5.16675H13.3333C12.781 5.16675 12.3333 4.71903 12.3333 4.16675C12.3333 3.61446 12.781 3.16675 13.3333 3.16675H14.8333V1.66675C14.8333 1.11446 15.281 0.666748 15.8333 0.666748ZM6.45984 1.50008L10.4167 1.50008C10.969 1.50008 11.4167 1.9478 11.4167 2.50008C11.4167 3.05237 10.969 3.50008 10.4167 3.50008H6.5C5.78343 3.50008 5.30615 3.50086 4.93944 3.53082C4.5844 3.55983 4.42194 3.61113 4.31902 3.66357C4.03677 3.80738 3.8073 4.03685 3.66349 4.3191C3.61105 4.42202 3.55975 4.58448 3.53074 4.93952C3.50078 5.30623 3.5 5.78351 3.5 6.50008V13.5001C3.5 14.2166 3.50078 14.6939 3.53074 15.0606C3.55975 15.4157 3.61105 15.5781 3.66349 15.6811C3.77518 15.9003 3.93853 16.0876 4.13815 16.2278C4.18551 16.1675 4.2289 16.1201 4.25998 16.0864C4.39152 15.9441 4.56851 15.7832 4.74382 15.6239L11.8387 9.17408C11.9709 9.05383 12.1079 8.92926 12.2345 8.83059C12.3772 8.71932 12.562 8.59569 12.8015 8.5179C13.1321 8.41052 13.4865 8.39934 13.8232 8.48567C14.0671 8.54821 14.2593 8.65994 14.4088 8.762C14.5414 8.85248 14.6859 8.96816 14.8255 9.07983L17.1773 10.9613C17.1967 10.9768 17.216 10.9922 17.2353 11.0076C17.4925 11.2128 17.7381 11.4088 17.931 11.6547C18.1706 11.9599 18.3407 12.3138 18.4294 12.6917C18.5008 12.9959 18.5005 13.3101 18.5001 13.6391C18.5 13.6638 18.5 13.6885 18.5 13.7134V13.7477C18.5 13.8834 18.5 14.014 18.4996 14.1395C18.4999 14.1485 18.5 14.1576 18.5 14.1667C18.5 14.2094 18.5 14.2515 18.5001 14.293C18.5005 14.9433 18.5009 15.4574 18.3807 15.9059C18.2392 16.4344 17.9789 16.9122 17.6298 17.3096C17.4998 17.4577 17.3574 17.5947 17.2041 17.7189C16.8287 18.0233 16.3884 18.2515 15.9059 18.3808C15.4574 18.501 14.9432 18.5006 14.2929 18.5001C14.2514 18.5001 14.2093 18.5001 14.1667 18.5001H13.8074C13.7876 18.5001 13.7677 18.5001 13.7477 18.5001H6.45982C6.43658 18.5001 6.41347 18.5001 6.39049 18.5001L5.8557 18.5001C5.64715 18.5001 5.43685 18.5002 5.25779 18.4887C5.08644 18.4831 4.92609 18.4749 4.77657 18.4627C4.29785 18.4236 3.84289 18.3386 3.41103 18.1186C2.75247 17.783 2.21704 17.2476 1.88148 16.589C1.66144 16.1572 1.5765 15.7022 1.53738 15.2235C1.49997 14.7656 1.49999 14.2061 1.5 13.5402V6.45992C1.49999 5.79405 1.49997 5.23453 1.53738 4.77665C1.5765 4.29793 1.66144 3.84297 1.88148 3.41111C2.21704 2.75255 2.75247 2.21712 3.41103 1.88156C3.84289 1.66152 4.29785 1.57658 4.77657 1.53746C5.23445 1.50005 5.79397 1.50007 6.45984 1.50008ZM16.1718 15.9366C16.2555 15.8318 16.3255 15.7154 16.3791 15.59C16.4176 15.5002 16.4558 15.3577 16.4773 15.0514C16.4994 14.7359 16.5 14.3271 16.5 13.7134C16.5 13.2624 16.4938 13.1975 16.4824 13.1488C16.4602 13.0543 16.4177 12.9658 16.3578 12.8895C16.3268 12.8501 16.28 12.8047 15.9279 12.523L13.5968 10.6582C13.5163 10.5938 13.4536 10.5436 13.3987 10.501C13.3903 10.4945 13.3824 10.4884 13.3748 10.4826C13.3677 10.4888 13.3601 10.4955 13.3522 10.5025C13.3001 10.5484 13.2407 10.6025 13.1644 10.6718L6.75327 16.5001H13.7133C14.3271 16.5001 14.7358 16.4995 15.0514 16.4774C15.3576 16.4559 15.5001 16.4176 15.59 16.3792C15.737 16.3163 15.8717 16.2309 15.9898 16.1272C16.0559 16.0691 16.1168 16.0053 16.1718 15.9366ZM7.08333 6.41675C6.71514 6.41675 6.41667 6.71522 6.41667 7.08341C6.41667 7.4516 6.71514 7.75008 7.08333 7.75008C7.45152 7.75008 7.75 7.4516 7.75 7.08341C7.75 6.71522 7.45152 6.41675 7.08333 6.41675ZM4.41667 7.08341C4.41667 5.61066 5.61057 4.41675 7.08333 4.41675C8.55609 4.41675 9.75 5.61066 9.75 7.08341C9.75 8.55617 8.55609 9.75008 7.08333 9.75008C5.61057 9.75008 4.41667 8.55617 4.41667 7.08341Z" fill="#1F6EAC"/>
</svg>
