<svg width="20" height="20" viewBox="0 0 20 20" fill="none" xmlns="http://www.w3.org/2000/svg">
<path d="M10.8415 15.2533V14.3668C10.8415 13.732 10.9776 13.152 11.2497 12.6266C11.5275 12.0958 11.9299 11.6717 12.4572 11.3544C12.99 11.0315 13.6335 10.8701 14.3874 10.8701C15.1584 10.8701 15.8047 11.0288 16.3262 11.3462C16.8477 11.6635 17.2417 12.0876 17.5082 12.6184C17.7803 13.1492 17.9163 13.732 17.9163 14.3668V15.2533C17.9163 15.8881 17.7803 16.4708 17.5082 17.0016C17.2361 17.527 16.8364 17.9511 16.3092 18.2739C15.7877 18.5913 15.1471 18.75 14.3874 18.75C13.6221 18.75 12.9759 18.5913 12.4487 18.2739C11.9214 17.9511 11.5218 17.527 11.2497 17.0016C10.9776 16.4708 10.8415 15.8881 10.8415 15.2533ZM12.8228 14.3668V15.2533C12.8228 15.7239 12.939 16.1507 13.1714 16.5338C13.4039 16.9168 13.8092 17.1083 14.3874 17.1083C14.96 17.1083 15.3597 16.9168 15.5864 16.5338C15.8132 16.1507 15.9265 15.7239 15.9265 15.2533V14.3668C15.9265 13.8962 15.816 13.4694 15.5949 13.0863C15.3795 12.7033 14.977 12.5117 14.3874 12.5117C13.8205 12.5117 13.418 12.7033 13.1799 13.0863C12.9419 13.4694 12.8228 13.8962 12.8228 14.3668ZM2.08301 5.63321V4.74672C2.08301 4.11194 2.21906 3.52916 2.49117 2.99836C2.76895 2.46756 3.17144 2.04346 3.69865 1.72608C4.23153 1.40869 4.87496 1.25 5.62893 1.25C6.3999 1.25 7.04616 1.40869 7.5677 1.72608C8.08924 2.04346 8.48323 2.46756 8.74967 2.99836C9.01611 3.52916 9.14933 4.11194 9.14933 4.74672V5.63321C9.14933 6.26798 9.01328 6.85077 8.74117 7.38157C8.47473 7.9069 8.07791 8.33099 7.55069 8.65385C7.02915 8.97123 6.38856 9.12993 5.62893 9.12993C4.85795 9.12993 4.20886 8.97123 3.68165 8.65385C3.16011 8.33099 2.76328 7.9069 2.49117 7.38157C2.21906 6.85077 2.08301 6.26798 2.08301 5.63321ZM4.0728 4.74672V5.63321C4.0728 6.10382 4.18618 6.53064 4.41294 6.9137C4.64537 7.29675 5.05069 7.48827 5.62893 7.48827C6.19582 7.48827 6.59264 7.29675 6.8194 6.9137C7.05183 6.53064 7.16804 6.10382 7.16804 5.63321V4.74672C7.16804 4.27611 7.0575 3.84928 6.83641 3.46623C6.61532 3.08318 6.21283 2.89165 5.62893 2.89165C5.06203 2.89165 4.65954 3.08318 4.42144 3.46623C4.18902 3.84928 4.0728 4.27611 4.0728 4.74672ZM2.89083 18.4053L14.8636 1.59475H16.8959L4.92314 18.4053H2.89083Z" fill="#1F6EAC"/>
</svg>
