<svg width="14" height="14" viewBox="0 0 14 14" fill="none" xmlns="http://www.w3.org/2000/svg">
<path fill-rule="evenodd" clip-rule="evenodd" d="M11.601 1.08698L12.8917 2.37771C13.492 2.97806 13.492 3.93861 12.9217 4.53895L4.75705 12.7036C4.72704 12.7336 4.69702 12.7636 4.667 12.7636H4.63698H4.60697L1.00491 13.364H0.944874C0.854823 13.364 0.794789 13.334 0.734754 13.2739C0.67472 13.1839 0.614686 13.0938 0.644703 13.0038L1.24505 9.40173V9.37171V9.34169C1.26005 9.32668 1.26756 9.31168 1.27506 9.29667C1.28257 9.28166 1.29007 9.26665 1.30508 9.25164L9.49976 1.08698C9.76992 0.786804 10.1601 0.636719 10.5504 0.636719C10.9406 0.636719 11.3308 0.816822 11.601 1.08698ZM1.48438 11.3828L2.56499 12.4634L3.88575 12.2533L1.6945 10.062L1.48438 11.3828ZM8.98903 5.40946L4.09623 10.3023C4.03619 10.3623 3.94614 10.3923 3.88611 10.3923C3.79606 10.3923 3.73602 10.3623 3.67599 10.3023C3.55592 10.1822 3.55592 10.0021 3.67599 9.88202L8.56878 4.98922C8.68885 4.86915 8.86896 4.86915 8.98903 4.98922C9.10909 5.10929 9.10909 5.28939 8.98903 5.40946ZM8.53921 2.85799L11.1207 5.43946L11.9011 4.65902L9.31966 2.07754L8.53921 2.85799Z" fill="#1F6EAC"/>
</svg>
