<svg width="17" height="17" viewBox="0 0 17 17" fill="none" xmlns="http://www.w3.org/2000/svg">
<path fill-rule="evenodd" clip-rule="evenodd" d="M6.05134 2.04186C5.93097 1.59289 5.46942 1.32651 5.02046 1.44689C4.57149 1.56727 4.30511 2.02881 4.42549 2.47778L4.64345 3.2907C4.76382 3.73967 5.22536 4.00605 5.67433 3.88567C6.1233 3.7653 6.38968 3.30375 6.2693 2.85479L6.0505 2.04186H6.05134ZM2.48086 4.42255C2.18989 4.34323 1.87872 4.42568 1.6652 4.63868C1.45168 4.85167 1.36847 5.16264 1.44707 5.4538C1.52568 5.74497 1.75408 5.9718 2.04578 6.04841L2.85871 6.26637C3.30675 6.38403 3.76564 6.11746 3.88539 5.66996C4.00514 5.22247 3.74071 4.76235 3.29378 4.64051L2.48086 4.42171V4.42255ZM9.89804 3.94375C10.1106 3.73104 10.1935 3.42109 10.1156 3.13065C10.0377 2.84021 9.81071 2.61341 9.52021 2.53568C9.22972 2.45795 8.91982 2.5411 8.70726 2.75382L8.11229 3.34879C7.78347 3.67761 7.78347 4.21074 8.11229 4.53956C8.44112 4.86839 8.97425 4.86839 9.30307 4.53956L9.89804 3.94375ZM3.9483 9.89514L4.54327 9.30018C4.87233 8.97158 4.8727 8.43845 4.54411 8.1094C4.21552 7.78034 3.68239 7.77996 3.35333 8.10856L2.75752 8.70352C2.4287 9.03235 2.4287 9.56548 2.75752 9.8943C3.08635 10.2231 3.61948 10.2231 3.9483 9.8943V9.89514ZM6.64085 5.54352C6.32825 5.41839 5.97116 5.49164 5.73307 5.72973C5.49498 5.96783 5.42173 6.32492 5.54685 6.63752L8.91301 15.0529C9.03621 15.3606 9.32851 15.5673 9.65965 15.5809C9.99078 15.5945 10.2991 15.4125 10.4471 15.116L11.6085 12.7942L14.1482 15.3357C14.477 15.6643 15.01 15.6641 15.3386 15.3352C15.6672 15.0064 15.667 14.4735 15.3382 14.1449L12.7976 11.6034L15.1202 10.443C15.4161 10.2945 15.5976 9.98642 15.5838 9.65565C15.57 9.32488 15.3635 9.03293 15.0562 8.90968L6.64085 5.54352Z" fill="#394251"/>
</svg>
