<svg width="18" height="18" viewBox="0 0 18 18" fill="none" xmlns="http://www.w3.org/2000/svg">
<path d="M9.88441 10.155L9 11.0174L8.11559 10.155C7.18816 9.2507 6.65625 7.99689 6.65625 6.71451C6.65625 5.43212 7.18816 4.17832 8.11559 3.27399L9 2.41162L9.88441 3.27399C10.8118 4.17832 11.3438 5.43212 11.3438 6.71451C11.3438 7.99689 10.8118 9.2507 9.88441 10.155Z" fill="white"/>
<path d="M1.88028 9.51226C2.23975 9.16193 2.62128 8.89674 2.98722 8.68265C3.97513 10.4822 5.90444 11.7113 8.14734 11.7386C7.30581 12.3276 6.30656 12.6564 5.25 12.6564C3.98428 12.6564 2.86537 12.19 1.88028 11.2299L1 10.3711L1.88028 9.51226Z" fill="white"/>
<path d="M10.1338 11.7035C11.0612 11.5918 13.5823 11.2883 15.0128 8.68265C15.3787 8.8968 15.7603 9.16199 16.1197 9.51226L17 10.3711L16.1197 11.2299C15.1346 12.19 14.0157 12.6564 12.75 12.6564C11.6954 12.6564 10.6978 12.3292 9.85716 11.7423C9.9179 11.7295 10.0121 11.7181 10.1338 11.7035Z" fill="white"/>
<path d="M7.09775 13.2809C7.343 13.8118 7.68313 14.304 8.11925 14.7293L9 15.5881L9.88075 14.7293C10.3157 14.3052 10.6548 13.8121 10.9003 13.2802C10.2125 13.0608 9.56863 12.7225 9.00003 12.2685C8.43087 12.7229 7.78628 13.0615 7.09775 13.2809Z" fill="white"/>
<path d="M7.40538 10.7503C6.33431 9.67982 5.71875 8.21437 5.71875 6.71451C5.71875 6.12364 5.81637 5.53874 5.99713 4.98023C5.50612 4.82489 4.99103 4.74295 4.47319 4.74295H3.22806V5.95705C3.22806 8.31358 4.95028 10.3566 7.40538 10.7503Z" fill="white"/>
<path d="M14.7719 4.74295V5.95705C14.7719 8.31638 13.0472 10.357 10.5946 10.7503C11.6657 9.67982 12.2812 8.21437 12.2812 6.71451C12.2812 6.12364 12.1836 5.53874 12.0029 4.98023C12.4939 4.82492 13.009 4.74295 13.5268 4.74295H14.7719Z" fill="white"/>
</svg>
