<svg width="36" height="36" viewBox="0 0 36 36" fill="none" xmlns="http://www.w3.org/2000/svg">
<g filter="url(#filter0_d_2527_131786)">
<circle cx="18" cy="16" r="10" fill="url(#paint0_linear_2527_131786)"/>
</g>
<path d="M13.625 19.5254C13.625 19.8711 13.9043 20.1504 14.25 20.1504H17.375V17.0254H13.625V19.5254ZM18.625 20.1504H21.75C22.0957 20.1504 22.375 19.8711 22.375 19.5254V17.0254H18.625V20.1504ZM22.375 13.9004H21.5527C21.6738 13.6641 21.75 13.4023 21.75 13.1191C21.75 12.1719 20.9785 11.4004 20.0312 11.4004C19.2188 11.4004 18.6934 11.8164 18.0195 12.7344C17.3457 11.8164 16.8203 11.4004 16.0078 11.4004C15.0605 11.4004 14.2891 12.1719 14.2891 13.1191C14.2891 13.4023 14.3633 13.6641 14.4863 13.9004H13.625C13.2793 13.9004 13 14.1797 13 14.5254V16.0879C13 16.2598 13.1406 16.4004 13.3125 16.4004H22.6875C22.8594 16.4004 23 16.2598 23 16.0879V14.5254C23 14.1797 22.7207 13.9004 22.375 13.9004ZM16.0059 13.9004C15.5742 13.9004 15.2246 13.5508 15.2246 13.1191C15.2246 12.6875 15.5742 12.3379 16.0059 12.3379C16.3945 12.3379 16.6816 12.4023 17.6875 13.9004H16.0059ZM20.0312 13.9004H18.3496C19.3535 12.4062 19.6328 12.3379 20.0312 12.3379C20.4629 12.3379 20.8125 12.6875 20.8125 13.1191C20.8125 13.5508 20.4629 13.9004 20.0312 13.9004Z" fill="white"/>
<defs>
<filter id="filter0_d_2527_131786" x="0" y="0" width="36" height="36" filterUnits="userSpaceOnUse" color-interpolation-filters="sRGB">
<feFlood flood-opacity="0" result="BackgroundImageFix"/>
<feColorMatrix in="SourceAlpha" type="matrix" values="0 0 0 0 0 0 0 0 0 0 0 0 0 0 0 0 0 0 127 0" result="hardAlpha"/>
<feOffset dy="2"/>
<feGaussianBlur stdDeviation="4"/>
<feComposite in2="hardAlpha" operator="out"/>
<feColorMatrix type="matrix" values="0 0 0 0 0.854902 0 0 0 0 0.192157 0 0 0 0 0.309804 0 0 0 0.3 0"/>
<feBlend mode="normal" in2="BackgroundImageFix" result="effect1_dropShadow_2527_131786"/>
<feBlend mode="normal" in="SourceGraphic" in2="effect1_dropShadow_2527_131786" result="shape"/>
</filter>
<linearGradient id="paint0_linear_2527_131786" x1="18" y1="36" x2="38" y2="16" gradientUnits="userSpaceOnUse">
<stop stop-color="#EF637C"/>
<stop offset="1" stop-color="#DA314F"/>
<stop offset="1" stop-color="#DA314F"/>
</linearGradient>
</defs>
</svg>
