<svg width="85" height="32" viewBox="0 0 85 32" fill="none" xmlns="http://www.w3.org/2000/svg">
<g clip-path="url(#clip0_5441_93282)">
<path d="M40.4586 28.0521L39.9058 28.3839C39.8435 28.2554 39.7482 28.1457 39.6297 28.0661C39.5113 27.9865 39.3738 27.9397 39.2313 27.9305C39.1502 27.9213 39.0681 27.9289 38.9901 27.9527C38.912 27.9765 38.8397 28.016 38.7775 28.0689C38.7153 28.1217 38.6646 28.1867 38.6286 28.2599C38.5925 28.3331 38.5719 28.4129 38.5678 28.4944C38.5678 28.9035 39.0433 29.0031 39.5188 29.2132C39.8575 29.2989 40.1525 29.507 40.347 29.7972C40.5415 30.0875 40.6218 30.4394 40.5724 30.7853C40.523 31.1312 40.3474 31.4466 40.0793 31.6708C39.8113 31.895 39.4699 32.0121 39.1207 31.9996C38.753 32.0035 38.3977 31.8674 38.1266 31.619C37.8556 31.3705 37.6892 31.0283 37.6611 30.6617L38.3577 30.5069C38.3577 30.5069 38.3577 31.3583 39.1428 31.3583C39.2429 31.3598 39.3423 31.3411 39.4349 31.3031C39.5276 31.2652 39.6116 31.2088 39.6819 31.1375C39.7521 31.0662 39.8072 30.9814 39.8438 30.8882C39.8804 30.795 39.8977 30.6954 39.8947 30.5953C39.8782 30.4151 39.8068 30.2442 39.6902 30.1058C39.5735 29.9674 39.4172 29.8681 39.2423 29.8213C38.5347 29.5338 37.8712 29.2684 37.8712 28.4834C37.878 28.3142 37.9191 28.1483 37.992 27.9955C38.0649 27.8428 38.1681 27.7064 38.2953 27.5948C38.4225 27.4831 38.571 27.3984 38.7319 27.3459C38.8928 27.2933 39.0627 27.2741 39.2313 27.2892C39.4858 27.2932 39.7345 27.3663 39.9506 27.5006C40.1668 27.635 40.3424 27.8257 40.4586 28.0521Z" fill="#6D6E71"/>
<path d="M82.8639 28.0521L82.3 28.3838C82.2377 28.2554 82.1425 28.1457 82.024 28.0661C81.9055 27.9865 81.768 27.9397 81.6255 27.9305C81.5444 27.9213 81.4623 27.9289 81.3843 27.9527C81.3062 27.9765 81.2339 28.016 81.1717 28.0689C81.1095 28.1217 81.0589 28.1867 81.0228 28.2599C80.9867 28.3331 80.9661 28.4129 80.962 28.4944C80.962 28.9035 81.4375 29.0031 81.913 29.2132C82.1615 29.2903 82.3842 29.4339 82.5569 29.6285C82.7297 29.8231 82.8459 30.0612 82.893 30.3171C82.9401 30.573 82.9164 30.8369 82.8243 31.0803C82.7322 31.3236 82.5753 31.5372 82.3706 31.6978C82.1658 31.8584 81.9211 31.9599 81.6628 31.9914C81.4045 32.0229 81.1425 31.9831 80.9052 31.8764C80.6679 31.7697 80.4643 31.6001 80.3165 31.386C80.1686 31.1719 80.0821 30.9214 80.0664 30.6617L80.752 30.5069C80.752 30.5069 80.752 31.3583 81.537 31.3583C81.6371 31.3598 81.7365 31.3411 81.8292 31.3031C81.9218 31.2652 82.0058 31.2088 82.0761 31.1375C82.1464 31.0662 82.2015 30.9814 82.238 30.8882C82.2746 30.795 82.2919 30.6954 82.2889 30.5953C82.2724 30.4151 82.2011 30.2442 82.0844 30.1058C81.9677 29.9674 81.8114 29.8681 81.6365 29.8213C80.9399 29.5338 80.2654 29.2684 80.2654 28.4834C80.2737 28.3138 80.3162 28.1476 80.3902 27.9948C80.4643 27.842 80.5685 27.7057 80.6966 27.5942C80.8246 27.4826 80.9739 27.3981 81.1354 27.3457C81.297 27.2933 81.4674 27.2741 81.6365 27.2892C81.8911 27.2932 82.1397 27.3663 82.3559 27.5006C82.5721 27.635 82.7477 27.8257 82.8639 28.0521Z" fill="#6D6E71"/>
<path d="M45.3904 28.0193H43.5659V29.125H45.3351V29.7774H43.5659V31.2922H45.3904V31.9446H42.8804V27.3779H45.3904V28.0193Z" fill="#6D6E71"/>
<path d="M51.1292 27.6431V28.4503C50.7884 28.15 50.3555 27.9745 49.9018 27.9527C49.4472 27.9527 49.0113 28.1333 48.6899 28.4547C48.3685 28.7761 48.1879 29.2121 48.1879 29.6666C48.1879 30.1212 48.3685 30.5571 48.6899 30.8785C49.0113 31.1999 49.4472 31.3805 49.9018 31.3805C50.3561 31.3435 50.7864 31.1613 51.1292 30.8608V31.6901C50.7511 31.9037 50.325 32.0179 49.8907 32.0218C49.5803 32.0279 49.2718 31.971 48.984 31.8547C48.6961 31.7383 48.4348 31.5649 48.2157 31.3448C47.9967 31.1247 47.8245 30.8626 47.7095 30.5742C47.5945 30.2858 47.5391 29.977 47.5466 29.6666C47.5451 29.3521 47.6063 29.0405 47.7266 28.75C47.8469 28.4594 48.024 28.1957 48.2474 27.9744C48.4708 27.7531 48.7361 27.5785 49.0277 27.4608C49.3194 27.3432 49.6316 27.2849 49.946 27.2893C50.3651 27.2983 50.7739 27.4206 51.1292 27.6431Z" fill="#6D6E71"/>
<path d="M60.9369 29.9764L62.3522 31.9225H61.5119L60.2071 30.0538H60.0855V31.9225H59.3999V27.3779H60.2624C61.3681 27.3779 61.9431 27.9087 61.9431 28.7048C61.954 29.0018 61.8587 29.293 61.6743 29.526C61.4899 29.7591 61.2284 29.9187 60.9369 29.9764ZM60.0855 29.4567H60.3066C60.959 29.4567 61.2796 29.2135 61.2796 28.7159C61.2796 28.2183 60.959 28.0193 60.3287 28.0193H60.0855V29.4567Z" fill="#6D6E71"/>
<path d="M65.2383 27.3779V31.9225H64.5527V27.3779H65.2383Z" fill="#6D6E71"/>
<path d="M69.0197 28.0193V31.9225H68.3341V28.0193H67.2837V27.3779H70.0591V28.0193H69.0197Z" fill="#6D6E71"/>
<path d="M72.8345 27.3779V31.9225H72.1489V27.3779H72.8345Z" fill="#6D6E71"/>
<path d="M77.9099 28.0193H76.0855V29.125H77.8546V29.7774H76.0855V31.2922H77.9099V31.9446H75.3999V27.3779H77.9099V28.0193Z" fill="#6D6E71"/>
<path d="M56.1492 27.3779V30.1091C56.1492 31.2148 55.4968 31.3586 55.154 31.3586C54.8112 31.3586 54.1588 31.2259 54.1588 30.1091V27.3779H53.4733V30.2971C53.4339 30.5376 53.4472 30.7838 53.5125 31.0186C53.5777 31.2534 53.6932 31.4712 53.851 31.657C54.0087 31.8427 54.205 31.9919 54.4262 32.0942C54.6474 32.1965 54.8882 32.2495 55.1319 32.2495C55.3756 32.2495 55.6164 32.1965 55.8376 32.0942C56.0588 31.9919 56.255 31.8427 56.4128 31.657C56.5706 31.4712 56.6861 31.2534 56.7513 31.0186C56.8165 30.7838 56.8299 30.5376 56.7905 30.2971V27.3779H56.1492Z" fill="#6D6E71"/>
<path d="M18.7199 9.02267C18.9567 9.03004 19.1925 8.99069 19.414 8.90686C19.6355 8.82303 19.8383 8.69637 20.0108 8.53412C20.1833 8.37187 20.3222 8.17721 20.4194 7.96126C20.5167 7.74532 20.5704 7.51233 20.5776 7.2756C20.5776 6.78293 20.3819 6.31043 20.0335 5.96206C19.6851 5.61368 19.2126 5.41797 18.7199 5.41797C18.2273 5.41797 17.7548 5.61368 17.4064 5.96206C17.058 6.31043 16.8623 6.78293 16.8623 7.2756C16.8695 7.51233 16.9232 7.74532 17.0204 7.96126C17.1177 8.17721 17.2565 8.37187 17.4291 8.53412C17.6016 8.69637 17.8044 8.82303 18.0259 8.90686C18.2474 8.99069 18.4832 9.03004 18.7199 9.02267Z" fill="#0F557B"/>
<path d="M21.5508 21.9377C20.7325 21.9377 20.3234 21.4623 20.3234 20.8873V10.0068H16V10.6371H16.2433C17.0615 10.6371 17.4706 11.1126 17.4706 11.7428V20.9426C17.4706 21.5175 17.0615 21.993 16.2433 21.993H16V22.6233H21.8051V21.993L21.5508 21.9377Z" fill="#0F557B"/>
<path d="M34.9851 21.9383C34.1668 21.9383 33.7577 21.4628 33.7577 20.8878V13.026C33.7978 12.5945 33.7378 12.1595 33.5825 11.7548C33.4272 11.3502 33.1806 10.9868 32.8621 10.6929C32.2496 10.2436 31.5378 9.94872 30.7871 9.83322C30.0364 9.71773 29.2689 9.78506 28.5497 10.0295C28.0355 10.1736 27.567 10.4478 27.1896 10.8256V10.0074H22.8662V10.6377H23.1095C23.9277 10.6377 24.3368 11.1131 24.3368 11.7434V20.9431C24.3368 21.5181 23.9277 21.9936 23.1095 21.9936H22.8662V22.6238H28.6713V21.9936H28.417C27.5988 21.9936 27.1896 21.5181 27.1896 20.9431V12.1636C27.237 11.7893 27.4088 11.4418 27.6776 11.1771C27.9464 10.9123 28.2964 10.7457 28.6713 10.704C29.0712 10.6186 29.4881 10.6717 29.8538 10.8545C30.2195 11.0374 30.5122 11.3391 30.6838 11.7102C30.8431 12.0953 30.9185 12.51 30.9049 12.9265V20.9431C30.9049 21.5181 30.4958 21.9936 29.6775 21.9936H29.4343V22.6238H35.2283V21.9936L34.9851 21.9383Z" fill="#0F557B"/>
<path d="M40.8123 9.79688C37.7826 9.79688 35.7812 12.6828 35.7812 16.2765C35.7812 19.8701 37.9927 22.734 40.9229 22.734C43.3666 22.734 44.6935 21.1638 45.4233 18.8197H44.3175C43.8752 20.5778 43.2118 22.0263 41.1441 22.0263C38.3576 22.0263 38.5124 17.3269 38.5898 16.0553H45.4012C45.4364 16.0584 45.4718 16.0541 45.5053 16.0427C45.5387 16.0313 45.5695 16.0131 45.5955 15.9891C45.6215 15.9652 45.6422 15.9361 45.6563 15.9037C45.6705 15.8713 45.6777 15.8364 45.6776 15.801C45.6334 12.4396 44.2291 9.79688 40.8123 9.79688ZM42.4599 15.2371H38.7004C38.8663 12.4285 39.6071 10.3387 40.8566 10.3387C41.8407 10.3387 42.6589 11.0353 42.8358 14.9938C42.7916 15.0712 42.7474 15.2371 42.4599 15.2371Z" fill="#0F557B"/>
<path d="M1.93489 8.76849L7.46357 3.23981V0L0.33157 7.16517C0.118956 7.37778 -0.000488281 7.66615 -0.000488281 7.96683C-0.000488281 8.26751 0.118956 8.55587 0.33157 8.76849C0.544183 8.9811 0.832548 9.10054 1.13323 9.10054C1.43391 9.10054 1.72227 8.9811 1.93489 8.76849Z" fill="#0F557B"/>
<path d="M9.65292 6.10369H7.49674V5.24121L0.33157 12.4064C0.118956 12.619 -0.000488268 12.9074 -0.000488264 13.208C-0.000488261 13.5087 0.118956 13.7971 0.33157 14.0097C0.544183 14.2223 0.832548 14.3418 1.13323 14.3418C1.43391 14.3418 1.72227 14.2223 1.93489 14.0097L7.46357 8.48102V6.97722H9.13323C11.6432 6.97722 12.5057 8.71322 12.5057 11.0463C12.5057 13.3794 11.6432 15.1154 9.13323 15.1154H7.49674V10.4935L0.33157 17.6918C0.118956 17.9044 -0.000488281 18.1928 -0.000488281 18.4935C-0.000488281 18.7941 0.118956 19.0825 0.33157 19.2951C0.544183 19.5077 0.832548 19.6272 1.13323 19.6272C1.43391 19.6272 1.72227 19.5077 1.93489 19.2951L4.64394 16.5861V20.9095C4.64394 21.4955 4.23482 22.0152 3.41657 22.0152H2.98534V22.6455H9.15534V22.0152H8.7241C7.90586 22.0152 7.49674 21.5398 7.49674 20.9095V15.989H9.70821C13.4345 15.989 15.3696 13.8438 15.3696 11.0463C15.3696 8.24881 13.3793 6.10369 9.65292 6.10369Z" fill="#0F557B"/>
<path d="M68.3897 9.79688C65.371 9.79688 63.3696 12.6828 63.3696 16.2765C63.3696 19.8701 65.5811 22.734 68.5113 22.734C70.955 22.734 72.2708 21.1638 73.0116 18.8197H71.8727C71.4304 20.5778 70.7117 22.0263 68.6882 22.0263C65.9128 22.0263 66.0566 17.3269 66.145 16.0553H72.9785C73.0137 16.0584 73.0491 16.0541 73.0826 16.0427C73.1161 16.0313 73.1468 16.0131 73.1728 15.9891C73.1988 15.9652 73.2195 15.9361 73.2337 15.9037C73.2478 15.8713 73.255 15.8364 73.2549 15.801C73.2217 12.4396 71.7622 9.79688 68.3897 9.79688ZM70.0483 15.2371H66.2445C66.3993 12.4285 67.1512 10.3387 68.456 10.3387C69.4401 10.3387 70.2584 11.0353 70.4353 14.9938C70.38 15.0712 70.3358 15.2371 70.0483 15.2371Z" fill="#0F557B"/>
<path d="M79.4691 9.79688C76.4504 9.79688 74.438 12.6828 74.438 16.2765C74.438 19.8701 76.6495 22.734 79.5797 22.734C82.0233 22.734 83.3502 21.1638 84.08 18.8197H82.93C82.4877 20.5778 81.769 22.0263 79.7566 22.0263C76.9701 22.0263 77.1249 17.3269 77.2023 16.0553H84.0358C84.0705 16.0586 84.1055 16.0543 84.1384 16.0428C84.1713 16.0313 84.2013 16.0129 84.2265 15.9887C84.2517 15.9646 84.2714 15.9354 84.2842 15.903C84.2971 15.8706 84.3029 15.8358 84.3012 15.801C84.3012 12.4396 82.8305 9.79688 79.4691 9.79688ZM81.1277 15.2371H77.324C77.4788 12.4285 78.2307 10.3387 79.4801 10.3387C80.4642 10.3387 81.2714 11.0353 81.4594 14.9938C81.4484 15.0712 81.4152 15.2371 81.1277 15.2371Z" fill="#0F557B"/>
<path d="M61.7771 9.79688C60.0743 9.79688 59.1344 11.6766 59.0791 11.7761V10.007H54.7446V10.6372H54.9879C55.8061 10.6372 56.2263 11.1127 56.2263 11.743V20.9427C56.2263 21.5177 55.8061 21.9931 54.9879 21.9931H54.7446V22.6234H60.5497V21.9931H60.3065C59.4882 21.9931 59.0791 21.5177 59.0791 20.9427V14.9385C59.0791 13.4237 59.3666 11.8204 60.3507 11.4444C61.1579 11.1348 61.379 12.1521 62.1752 12.1521C62.4361 12.1572 62.6921 12.0813 62.908 11.9347C63.1238 11.7881 63.2889 11.5782 63.3804 11.3338C63.6126 10.7478 63.2699 9.79688 61.7771 9.79688Z" fill="#0F557B"/>
<path d="M53.44 21.097C53.3141 21.3225 53.1359 21.5145 52.9204 21.6569C52.7049 21.7992 52.4584 21.8878 52.2016 21.9152C51.0074 21.9152 50.8858 20.8095 50.8858 20.1681V10.6367H53.5616V10.0064H50.8636V7.14258H49.9238C49.7864 7.93951 49.3735 8.66287 48.7571 9.18632C48.1406 9.70977 47.3599 10 46.5513 10.0064V10.6367H48.033V19.7259C48.033 21.2849 48.5305 22.7335 51.0627 22.7335C51.6046 22.8071 52.1562 22.7156 52.6454 22.4711C53.1345 22.2265 53.5386 21.8401 53.8049 21.3623L53.44 21.097Z" fill="#0F557B"/>
</g>
<defs>
<clipPath id="clip0_5441_93282">
<rect width="84.3345" height="32" fill="white"/>
</clipPath>
</defs>
</svg>
